G04 #@! TF.GenerationSoftware,KiCad,Pcbnew,(6.0.6)*
G04 #@! TF.CreationDate,2022-08-12T14:10:59+09:00*
G04 #@! TF.ProjectId,tutorial1,7475746f-7269-4616-9c31-2e6b69636164,1*
G04 #@! TF.SameCoordinates,PX7bfa480PY7bfa480*
G04 #@! TF.FileFunction,Copper,L2,Bot*
G04 #@! TF.FilePolarity,Positive*
%FSLAX46Y46*%
G04 Gerber Fmt 4.6, Leading zero omitted, Abs format (unit mm)*
G04 Created by KiCad (PCBNEW (6.0.6)) date 2022-08-12 14:10:59*
%MOMM*%
%LPD*%
G01*
G04 APERTURE LIST*
G04 #@! TA.AperFunction,ComponentPad*
%ADD10R,1.700000X1.700000*%
G04 #@! TD*
G04 #@! TA.AperFunction,ComponentPad*
%ADD11O,1.700000X1.700000*%
G04 #@! TD*
G04 #@! TA.AperFunction,ViaPad*
%ADD12C,0.605000*%
G04 #@! TD*
G04 APERTURE END LIST*
D10*
X10175000Y2540000D03*
D11*
X12715000Y2540000D03*
X15255000Y2540000D03*
D12*
X3175000Y10795000D03*
X21590000Y20320000D03*
X21590000Y3810000D03*
X21590000Y13970000D03*
X3175000Y3810000D03*
X12065000Y20320000D03*
G04 #@! TA.AperFunction,Conductor*
G36*
X24442121Y24479998D02*
G01*
X24488614Y24426342D01*
X24500000Y24374000D01*
X24500000Y626000D01*
X24479998Y557879D01*
X24426342Y511386D01*
X24374000Y500000D01*
X626000Y500000D01*
X557879Y520002D01*
X511386Y573658D01*
X500000Y626000D01*
X500000Y1656782D01*
X8974500Y1656782D01*
X8975170Y1652232D01*
X8975170Y1652229D01*
X8983216Y1597574D01*
X8984642Y1587888D01*
X9036068Y1483145D01*
X9118650Y1400707D01*
X9128006Y1396134D01*
X9128007Y1396133D01*
X9160460Y1380270D01*
X9223482Y1349464D01*
X9247597Y1345946D01*
X9287256Y1340160D01*
X9287260Y1340160D01*
X9291782Y1339500D01*
X11058218Y1339500D01*
X11062768Y1340170D01*
X11062771Y1340170D01*
X11117426Y1348216D01*
X11117427Y1348216D01*
X11127112Y1349642D01*
X11221804Y1396133D01*
X11222507Y1396478D01*
X11222509Y1396479D01*
X11231855Y1401068D01*
X11314293Y1483650D01*
X11320432Y1496208D01*
X11344965Y1546398D01*
X11365536Y1588482D01*
X11375500Y1656782D01*
X11375500Y2003638D01*
X11395502Y2071759D01*
X11449158Y2118252D01*
X11519432Y2128356D01*
X11584012Y2098862D01*
X11615926Y2056389D01*
X11670883Y1937179D01*
X11798222Y1756998D01*
X11956264Y1603039D01*
X11961060Y1599834D01*
X11961063Y1599832D01*
X12045261Y1543573D01*
X12139717Y1480460D01*
X12145020Y1478182D01*
X12145023Y1478180D01*
X12308221Y1408065D01*
X12342436Y1393365D01*
X12422088Y1375342D01*
X12551995Y1345946D01*
X12552001Y1345945D01*
X12557632Y1344671D01*
X12563403Y1344444D01*
X12563405Y1344444D01*
X12631211Y1341780D01*
X12778098Y1336009D01*
X12900524Y1353760D01*
X12990738Y1366840D01*
X12990743Y1366841D01*
X12996452Y1367669D01*
X13001916Y1369524D01*
X13001921Y1369525D01*
X13199907Y1436732D01*
X13199912Y1436734D01*
X13205379Y1438590D01*
X13397884Y1546398D01*
X13417987Y1563117D01*
X13563086Y1683796D01*
X13567518Y1687482D01*
X13708602Y1857116D01*
X13788020Y1998927D01*
X13838754Y2048586D01*
X13908286Y2062934D01*
X13974537Y2037412D01*
X14014695Y1984762D01*
X14036770Y1930397D01*
X14041413Y1921206D01*
X14152694Y1739612D01*
X14158777Y1731301D01*
X14298213Y1570333D01*
X14305580Y1563117D01*
X14469434Y1427084D01*
X14477881Y1421169D01*
X14661756Y1313721D01*
X14671042Y1309271D01*
X14870001Y1233297D01*
X14879899Y1230421D01*
X14983250Y1209394D01*
X14997299Y1210590D01*
X15001000Y1220935D01*
X15001000Y1221483D01*
X15509000Y1221483D01*
X15513064Y1207641D01*
X15526478Y1205607D01*
X15533184Y1206466D01*
X15543262Y1208608D01*
X15747255Y1269809D01*
X15756842Y1273567D01*
X15948095Y1367261D01*
X15956945Y1372536D01*
X16130328Y1496208D01*
X16138200Y1502861D01*
X16289052Y1653188D01*
X16295730Y1661035D01*
X16420003Y1833980D01*
X16425313Y1842817D01*
X16519670Y2033733D01*
X16523469Y2043328D01*
X16585377Y2247090D01*
X16587555Y2257163D01*
X16588986Y2268038D01*
X16586775Y2282222D01*
X16573617Y2286000D01*
X15527115Y2286000D01*
X15511876Y2281525D01*
X15510671Y2280135D01*
X15509000Y2272452D01*
X15509000Y1221483D01*
X15001000Y1221483D01*
X15001000Y2812115D01*
X15509000Y2812115D01*
X15513475Y2796876D01*
X15514865Y2795671D01*
X15522548Y2794000D01*
X16573344Y2794000D01*
X16586875Y2797973D01*
X16588180Y2807053D01*
X16546214Y2974125D01*
X16542894Y2983876D01*
X16457972Y3179186D01*
X16453105Y3188261D01*
X16337426Y3367074D01*
X16331136Y3375243D01*
X16187806Y3532760D01*
X16180273Y3539785D01*
X16013139Y3671778D01*
X16004552Y3677483D01*
X15818117Y3780401D01*
X15808705Y3784631D01*
X15607959Y3855720D01*
X15597988Y3858354D01*
X15526837Y3871028D01*
X15513540Y3869568D01*
X15509000Y3855011D01*
X15509000Y2812115D01*
X15001000Y2812115D01*
X15001000Y3856898D01*
X14997082Y3870242D01*
X14982806Y3872229D01*
X14944324Y3866340D01*
X14934288Y3863949D01*
X14731868Y3797788D01*
X14722359Y3793791D01*
X14533463Y3695458D01*
X14524738Y3689964D01*
X14354433Y3562095D01*
X14346726Y3555252D01*
X14199590Y3401283D01*
X14193104Y3393273D01*
X14073098Y3217351D01*
X14068000Y3208377D01*
X14012066Y3087878D01*
X13965242Y3034511D01*
X13896998Y3014930D01*
X13829003Y3035354D01*
X13784773Y3085199D01*
X13764324Y3126665D01*
X13745535Y3164767D01*
X13745532Y3164771D01*
X13742980Y3169947D01*
X13610967Y3346733D01*
X13513586Y3436751D01*
X13453189Y3492582D01*
X13453186Y3492584D01*
X13448949Y3496501D01*
X13262350Y3614236D01*
X13057421Y3695994D01*
X13051761Y3697120D01*
X13051757Y3697121D01*
X12846691Y3737911D01*
X12846688Y3737911D01*
X12841024Y3739038D01*
X12835249Y3739114D01*
X12835245Y3739114D01*
X12724504Y3740563D01*
X12620406Y3741926D01*
X12614709Y3740947D01*
X12614708Y3740947D01*
X12408654Y3705541D01*
X12408653Y3705541D01*
X12402957Y3704562D01*
X12195957Y3628196D01*
X12190996Y3625244D01*
X12190995Y3625244D01*
X12073350Y3555252D01*
X12006341Y3515386D01*
X11840457Y3369910D01*
X11703863Y3196640D01*
X11687094Y3164767D01*
X11613008Y3023954D01*
X11563589Y2972982D01*
X11494456Y2956819D01*
X11427560Y2980598D01*
X11384140Y3036769D01*
X11375500Y3082622D01*
X11375500Y3423218D01*
X11366871Y3481838D01*
X11366784Y3482426D01*
X11366784Y3482427D01*
X11365358Y3492112D01*
X11313932Y3596855D01*
X11231350Y3679293D01*
X11209520Y3689964D01*
X11177652Y3705541D01*
X11126518Y3730536D01*
X11096027Y3734984D01*
X11062744Y3739840D01*
X11062740Y3739840D01*
X11058218Y3740500D01*
X9291782Y3740500D01*
X9287232Y3739830D01*
X9287229Y3739830D01*
X9232574Y3731784D01*
X9232573Y3731784D01*
X9222888Y3730358D01*
X9172992Y3705860D01*
X9127493Y3683522D01*
X9127491Y3683521D01*
X9118145Y3678932D01*
X9035707Y3596350D01*
X8984464Y3491518D01*
X8974500Y3423218D01*
X8974500Y1656782D01*
X500000Y1656782D01*
X500000Y20030715D01*
X3044759Y20030715D01*
X3045003Y20026280D01*
X3045003Y20026276D01*
X3048384Y19964853D01*
X3059938Y19754913D01*
X3113825Y19484001D01*
X3205347Y19223384D01*
X3332678Y18978263D01*
X3335261Y18974648D01*
X3335265Y18974642D01*
X3372272Y18922856D01*
X3493275Y18753529D01*
X3683936Y18553665D01*
X3687431Y18550909D01*
X3687433Y18550908D01*
X3735469Y18513040D01*
X3900856Y18382659D01*
X3962559Y18346819D01*
X4135853Y18246161D01*
X4135859Y18246158D01*
X4139707Y18243923D01*
X4395723Y18140226D01*
X4400036Y18139155D01*
X4400041Y18139153D01*
X4659475Y18074709D01*
X4659480Y18074708D01*
X4663796Y18073636D01*
X4668224Y18073182D01*
X4668226Y18073182D01*
X4743339Y18065486D01*
X4899370Y18049500D01*
X5070362Y18049500D01*
X5275530Y18064027D01*
X5279885Y18064965D01*
X5279888Y18064965D01*
X5541215Y18121227D01*
X5541217Y18121227D01*
X5545562Y18122163D01*
X5804709Y18217767D01*
X5853185Y18243923D01*
X6043884Y18346819D01*
X6047800Y18348932D01*
X6269984Y18513040D01*
X6466829Y18706817D01*
X6634406Y18926396D01*
X6769373Y19167396D01*
X6869036Y19425009D01*
X6931407Y19694095D01*
X6955241Y19969285D01*
X6954997Y19973724D01*
X6940307Y20240644D01*
X6940306Y20240651D01*
X6940062Y20245087D01*
X6886175Y20515999D01*
X6794653Y20776616D01*
X6667322Y21021737D01*
X6664739Y21025352D01*
X6664735Y21025358D01*
X6509313Y21242850D01*
X6509310Y21242854D01*
X6506725Y21246471D01*
X6316064Y21446335D01*
X6312567Y21449092D01*
X6102639Y21614586D01*
X6102637Y21614587D01*
X6099144Y21617341D01*
X5986609Y21682706D01*
X5864147Y21753839D01*
X5864141Y21753842D01*
X5860293Y21756077D01*
X5604277Y21859774D01*
X5599964Y21860845D01*
X5599959Y21860847D01*
X5340525Y21925291D01*
X5340520Y21925292D01*
X5336204Y21926364D01*
X5331776Y21926818D01*
X5331774Y21926818D01*
X5251573Y21935035D01*
X5100630Y21950500D01*
X4929638Y21950500D01*
X4724470Y21935973D01*
X4720115Y21935035D01*
X4720112Y21935035D01*
X4458785Y21878773D01*
X4458783Y21878773D01*
X4454438Y21877837D01*
X4195291Y21782233D01*
X4191373Y21780119D01*
X4142668Y21753839D01*
X3952200Y21651068D01*
X3730016Y21486960D01*
X3533171Y21293183D01*
X3365594Y21073604D01*
X3230627Y20832604D01*
X3130964Y20574991D01*
X3068593Y20305905D01*
X3044759Y20030715D01*
X500000Y20030715D01*
X500000Y24374000D01*
X520002Y24442121D01*
X573658Y24488614D01*
X626000Y24500000D01*
X24374000Y24500000D01*
X24442121Y24479998D01*
G37*
G04 #@! TD.AperFunction*
M02*
