G04 #@! TF.GenerationSoftware,KiCad,Pcbnew,(6.0.6)*
G04 #@! TF.CreationDate,2022-08-12T14:10:59+09:00*
G04 #@! TF.ProjectId,tutorial1,7475746f-7269-4616-9c31-2e6b69636164,1*
G04 #@! TF.SameCoordinates,PX7bfa480PY7bfa480*
G04 #@! TF.FileFunction,Legend,Top*
G04 #@! TF.FilePolarity,Positive*
%FSLAX46Y46*%
G04 Gerber Fmt 4.6, Leading zero omitted, Abs format (unit mm)*
G04 Created by KiCad (PCBNEW (6.0.6)) date 2022-08-12 14:10:59*
%MOMM*%
%LPD*%
G01*
G04 APERTURE LIST*
%ADD10C,0.150000*%
%ADD11C,0.120000*%
G04 APERTURE END LIST*
D10*
X8612666Y23915620D02*
X9184095Y23915620D01*
X8898380Y22915620D02*
X8898380Y23915620D01*
X9946000Y23582286D02*
X9946000Y22915620D01*
X9517428Y23582286D02*
X9517428Y23058477D01*
X9565047Y22963239D01*
X9660285Y22915620D01*
X9803142Y22915620D01*
X9898380Y22963239D01*
X9946000Y23010858D01*
X10279333Y23582286D02*
X10660285Y23582286D01*
X10422190Y23915620D02*
X10422190Y23058477D01*
X10469809Y22963239D01*
X10565047Y22915620D01*
X10660285Y22915620D01*
X11136476Y22915620D02*
X11041238Y22963239D01*
X10993619Y23010858D01*
X10946000Y23106096D01*
X10946000Y23391810D01*
X10993619Y23487048D01*
X11041238Y23534667D01*
X11136476Y23582286D01*
X11279333Y23582286D01*
X11374571Y23534667D01*
X11422190Y23487048D01*
X11469809Y23391810D01*
X11469809Y23106096D01*
X11422190Y23010858D01*
X11374571Y22963239D01*
X11279333Y22915620D01*
X11136476Y22915620D01*
X11898380Y22915620D02*
X11898380Y23582286D01*
X11898380Y23391810D02*
X11946000Y23487048D01*
X11993619Y23534667D01*
X12088857Y23582286D01*
X12184095Y23582286D01*
X12517428Y22915620D02*
X12517428Y23582286D01*
X12517428Y23915620D02*
X12469809Y23868000D01*
X12517428Y23820381D01*
X12565047Y23868000D01*
X12517428Y23915620D01*
X12517428Y23820381D01*
X13422190Y22915620D02*
X13422190Y23439429D01*
X13374571Y23534667D01*
X13279333Y23582286D01*
X13088857Y23582286D01*
X12993619Y23534667D01*
X13422190Y22963239D02*
X13326952Y22915620D01*
X13088857Y22915620D01*
X12993619Y22963239D01*
X12946000Y23058477D01*
X12946000Y23153715D01*
X12993619Y23248953D01*
X13088857Y23296572D01*
X13326952Y23296572D01*
X13422190Y23344191D01*
X14041238Y22915620D02*
X13946000Y22963239D01*
X13898380Y23058477D01*
X13898380Y23915620D01*
X14422190Y23296572D02*
X15184095Y23296572D01*
X16184095Y22915620D02*
X15612666Y22915620D01*
X15898380Y22915620D02*
X15898380Y23915620D01*
X15803142Y23772762D01*
X15707904Y23677524D01*
X15612666Y23629905D01*
X6818333Y8277620D02*
X6485000Y8753810D01*
X6246904Y8277620D02*
X6246904Y9277620D01*
X6627857Y9277620D01*
X6723095Y9230000D01*
X6770714Y9182381D01*
X6818333Y9087143D01*
X6818333Y8944286D01*
X6770714Y8849048D01*
X6723095Y8801429D01*
X6627857Y8753810D01*
X6246904Y8753810D01*
X7199285Y9182381D02*
X7246904Y9230000D01*
X7342142Y9277620D01*
X7580238Y9277620D01*
X7675476Y9230000D01*
X7723095Y9182381D01*
X7770714Y9087143D01*
X7770714Y8991905D01*
X7723095Y8849048D01*
X7151666Y8277620D01*
X7770714Y8277620D01*
X9358333Y4562858D02*
X9310714Y4515239D01*
X9167857Y4467620D01*
X9072619Y4467620D01*
X8929761Y4515239D01*
X8834523Y4610477D01*
X8786904Y4705715D01*
X8739285Y4896191D01*
X8739285Y5039048D01*
X8786904Y5229524D01*
X8834523Y5324762D01*
X8929761Y5420000D01*
X9072619Y5467620D01*
X9167857Y5467620D01*
X9310714Y5420000D01*
X9358333Y5372381D01*
X10310714Y4467620D02*
X9739285Y4467620D01*
X10025000Y4467620D02*
X10025000Y5467620D01*
X9929761Y5324762D01*
X9834523Y5229524D01*
X9739285Y5181905D01*
X6246904Y13517620D02*
X6246904Y14517620D01*
X6485000Y14517620D01*
X6627857Y14470000D01*
X6723095Y14374762D01*
X6770714Y14279524D01*
X6818333Y14089048D01*
X6818333Y13946191D01*
X6770714Y13755715D01*
X6723095Y13660477D01*
X6627857Y13565239D01*
X6485000Y13517620D01*
X6246904Y13517620D01*
X7770714Y13517620D02*
X7199285Y13517620D01*
X7485000Y13517620D02*
X7485000Y14517620D01*
X7389761Y14374762D01*
X7294523Y14279524D01*
X7199285Y14231905D01*
X7297380Y2206667D02*
X8011666Y2206667D01*
X8154523Y2159048D01*
X8249761Y2063810D01*
X8297380Y1920953D01*
X8297380Y1825715D01*
X8297380Y3206667D02*
X8297380Y2635239D01*
X8297380Y2920953D02*
X7297380Y2920953D01*
X7440238Y2825715D01*
X7535476Y2730477D01*
X7583095Y2635239D01*
X20932380Y11263334D02*
X20456190Y10930000D01*
X20932380Y10691905D02*
X19932380Y10691905D01*
X19932380Y11072858D01*
X19980000Y11168096D01*
X20027619Y11215715D01*
X20122857Y11263334D01*
X20265714Y11263334D01*
X20360952Y11215715D01*
X20408571Y11168096D01*
X20456190Y11072858D01*
X20456190Y10691905D01*
X20932380Y12215715D02*
X20932380Y11644286D01*
X20932380Y11930000D02*
X19932380Y11930000D01*
X20075238Y11834762D01*
X20170476Y11739524D01*
X20218095Y11644286D01*
X9387380Y10668096D02*
X10196904Y10668096D01*
X10292142Y10715715D01*
X10339761Y10763334D01*
X10387380Y10858572D01*
X10387380Y11049048D01*
X10339761Y11144286D01*
X10292142Y11191905D01*
X10196904Y11239524D01*
X9387380Y11239524D01*
X10387380Y12239524D02*
X10387380Y11668096D01*
X10387380Y11953810D02*
X9387380Y11953810D01*
X9530238Y11858572D01*
X9625476Y11763334D01*
X9673095Y11668096D01*
D11*
X7239724Y10682500D02*
X6730276Y10682500D01*
X7239724Y9637500D02*
X6730276Y9637500D01*
X9671267Y6860000D02*
X9378733Y6860000D01*
X9671267Y5840000D02*
X9378733Y5840000D01*
X8645000Y12800000D02*
X6185000Y12800000D01*
X8645000Y11330000D02*
X8645000Y12800000D01*
X6185000Y11330000D02*
X8645000Y11330000D01*
X8845000Y1210000D02*
X8845000Y2540000D01*
X16585000Y1210000D02*
X16585000Y3870000D01*
X11445000Y1210000D02*
X16585000Y1210000D01*
X11445000Y3870000D02*
X16585000Y3870000D01*
X11445000Y1210000D02*
X11445000Y3870000D01*
X10175000Y1210000D02*
X8845000Y1210000D01*
X18527500Y11684724D02*
X18527500Y11175276D01*
X19572500Y11684724D02*
X19572500Y11175276D01*
X15895000Y11430000D02*
X15895000Y13380000D01*
X15895000Y11430000D02*
X15895000Y9480000D01*
X10775000Y11430000D02*
X10775000Y7980000D01*
X10775000Y11430000D02*
X10775000Y13380000D01*
M02*
