G04 #@! TF.GenerationSoftware,KiCad,Pcbnew,(6.0.6)*
G04 #@! TF.CreationDate,2022-08-12T14:10:59+09:00*
G04 #@! TF.ProjectId,tutorial1,7475746f-7269-4616-9c31-2e6b69636164,1*
G04 #@! TF.SameCoordinates,PX7bfa480PY7bfa480*
G04 #@! TF.FileFunction,Copper,L1,Top*
G04 #@! TF.FilePolarity,Positive*
%FSLAX46Y46*%
G04 Gerber Fmt 4.6, Leading zero omitted, Abs format (unit mm)*
G04 Created by KiCad (PCBNEW (6.0.6)) date 2022-08-12 14:10:59*
%MOMM*%
%LPD*%
G01*
G04 APERTURE LIST*
G04 Aperture macros list*
%AMRoundRect*
0 Rectangle with rounded corners*
0 $1 Rounding radius*
0 $2 $3 $4 $5 $6 $7 $8 $9 X,Y pos of 4 corners*
0 Add a 4 corners polygon primitive as box body*
4,1,4,$2,$3,$4,$5,$6,$7,$8,$9,$2,$3,0*
0 Add four circle primitives for the rounded corners*
1,1,$1+$1,$2,$3*
1,1,$1+$1,$4,$5*
1,1,$1+$1,$6,$7*
1,1,$1+$1,$8,$9*
0 Add four rect primitives between the rounded corners*
20,1,$1+$1,$2,$3,$4,$5,0*
20,1,$1+$1,$4,$5,$6,$7,0*
20,1,$1+$1,$6,$7,$8,$9,0*
20,1,$1+$1,$8,$9,$2,$3,0*%
G04 Aperture macros list end*
G04 #@! TA.AperFunction,SMDPad,CuDef*
%ADD10RoundRect,0.237500X0.250000X0.237500X-0.250000X0.237500X-0.250000X-0.237500X0.250000X-0.237500X0*%
G04 #@! TD*
G04 #@! TA.AperFunction,SMDPad,CuDef*
%ADD11RoundRect,0.237500X0.300000X0.237500X-0.300000X0.237500X-0.300000X-0.237500X0.300000X-0.237500X0*%
G04 #@! TD*
G04 #@! TA.AperFunction,SMDPad,CuDef*
%ADD12RoundRect,0.237500X0.287500X0.237500X-0.287500X0.237500X-0.287500X-0.237500X0.287500X-0.237500X0*%
G04 #@! TD*
G04 #@! TA.AperFunction,ComponentPad*
%ADD13R,1.700000X1.700000*%
G04 #@! TD*
G04 #@! TA.AperFunction,ComponentPad*
%ADD14O,1.700000X1.700000*%
G04 #@! TD*
G04 #@! TA.AperFunction,SMDPad,CuDef*
%ADD15RoundRect,0.237500X-0.237500X0.250000X-0.237500X-0.250000X0.237500X-0.250000X0.237500X0.250000X0*%
G04 #@! TD*
G04 #@! TA.AperFunction,SMDPad,CuDef*
%ADD16RoundRect,0.150000X0.150000X-0.825000X0.150000X0.825000X-0.150000X0.825000X-0.150000X-0.825000X0*%
G04 #@! TD*
G04 #@! TA.AperFunction,ViaPad*
%ADD17C,0.605000*%
G04 #@! TD*
G04 #@! TA.AperFunction,Conductor*
%ADD18C,0.152400*%
G04 #@! TD*
G04 #@! TA.AperFunction,Conductor*
%ADD19C,0.200000*%
G04 #@! TD*
G04 #@! TA.AperFunction,Conductor*
%ADD20C,0.400000*%
G04 #@! TD*
G04 APERTURE END LIST*
D10*
X7897500Y10160000D03*
X6072500Y10160000D03*
D11*
X10387500Y6350000D03*
X8662500Y6350000D03*
D12*
X7860000Y12065000D03*
X6110000Y12065000D03*
D13*
X10175000Y2540000D03*
D14*
X12715000Y2540000D03*
X15255000Y2540000D03*
D15*
X19050000Y12342500D03*
X19050000Y10517500D03*
D16*
X11430000Y8955000D03*
X12700000Y8955000D03*
X13970000Y8955000D03*
X15240000Y8955000D03*
X15240000Y13905000D03*
X13970000Y13905000D03*
X12700000Y13905000D03*
X11430000Y13905000D03*
D17*
X3175000Y10795000D03*
X21590000Y20320000D03*
X21590000Y3810000D03*
X21590000Y13970000D03*
X3175000Y3810000D03*
X12065000Y20320000D03*
D18*
X13970000Y8659700D02*
X14885700Y7744000D01*
X15592300Y7744000D02*
X17942400Y10094100D01*
X17942400Y10094100D02*
X17942400Y11234900D01*
X14885700Y7744000D02*
X15592300Y7744000D01*
X13970000Y8955000D02*
X13970000Y8659700D01*
X17942400Y11234900D02*
X19050000Y12342500D01*
X19050000Y10517500D02*
X12715000Y4182500D01*
X12715000Y4182500D02*
X12715000Y2540000D01*
D19*
X7898000Y10160000D02*
X11430000Y10160000D01*
D20*
X10175000Y2540000D02*
X10175000Y3795000D01*
X10175000Y3795000D02*
X10160000Y3810000D01*
X10160000Y3810000D02*
X10160000Y4445000D01*
D18*
X10388000Y6350000D02*
X10387500Y6350000D01*
D19*
X11430000Y10160000D02*
X11430000Y8955000D01*
D18*
X7898000Y10160000D02*
X7897500Y10160000D01*
D20*
X11430000Y5715000D02*
X11430000Y6350000D01*
X10160000Y4445000D02*
X11430000Y5715000D01*
X11430000Y6350000D02*
X11430000Y8955000D01*
X10388000Y6350000D02*
X11430000Y6350000D01*
D18*
X6110000Y12065000D02*
X6072500Y12027500D01*
X6072500Y12027500D02*
X6072500Y10160000D01*
X11557000Y12065000D02*
X7860000Y12065000D01*
X15240000Y10058710D02*
X14630710Y10668000D01*
X14630710Y10668000D02*
X12954000Y10668000D01*
X12954000Y10668000D02*
X11557000Y12065000D01*
X15240000Y8955000D02*
X15240000Y10058710D01*
G04 #@! TA.AperFunction,Conductor*
G36*
X24442121Y24479998D02*
G01*
X24488614Y24426342D01*
X24500000Y24374000D01*
X24500000Y626000D01*
X24479998Y557879D01*
X24426342Y511386D01*
X24374000Y500000D01*
X626000Y500000D01*
X557879Y520002D01*
X511386Y573658D01*
X500000Y626000D01*
X500000Y6066234D01*
X7617000Y6066234D01*
X7617337Y6059718D01*
X7627075Y5965868D01*
X7629968Y5952472D01*
X7680488Y5801047D01*
X7686653Y5787885D01*
X7770426Y5652508D01*
X7779460Y5641110D01*
X7892129Y5528637D01*
X7903540Y5519625D01*
X8039063Y5436088D01*
X8052241Y5429944D01*
X8203766Y5379685D01*
X8217132Y5376819D01*
X8309770Y5367328D01*
X8316185Y5367000D01*
X8390385Y5367000D01*
X8405624Y5371475D01*
X8406829Y5372865D01*
X8408500Y5380548D01*
X8408500Y6077885D01*
X8404025Y6093124D01*
X8402635Y6094329D01*
X8394952Y6096000D01*
X7635115Y6096000D01*
X7619876Y6091525D01*
X7618671Y6090135D01*
X7617000Y6082452D01*
X7617000Y6066234D01*
X500000Y6066234D01*
X500000Y6622115D01*
X7617000Y6622115D01*
X7621475Y6606876D01*
X7622865Y6605671D01*
X7630548Y6604000D01*
X8390385Y6604000D01*
X8405624Y6608475D01*
X8406829Y6609865D01*
X8408500Y6617548D01*
X8408500Y7314885D01*
X8404025Y7330124D01*
X8402635Y7331329D01*
X8394952Y7333000D01*
X8316234Y7333000D01*
X8309718Y7332663D01*
X8215868Y7322925D01*
X8202472Y7320032D01*
X8051047Y7269512D01*
X8037885Y7263347D01*
X7902508Y7179574D01*
X7891110Y7170540D01*
X7778637Y7057871D01*
X7769625Y7046460D01*
X7686088Y6910937D01*
X7679944Y6897759D01*
X7629685Y6746234D01*
X7626819Y6732868D01*
X7617328Y6640230D01*
X7617000Y6633815D01*
X7617000Y6622115D01*
X500000Y6622115D01*
X500000Y9883960D01*
X5234500Y9883960D01*
X5249635Y9769001D01*
X5308883Y9625963D01*
X5403133Y9503133D01*
X5525963Y9408883D01*
X5669001Y9349635D01*
X5783960Y9334500D01*
X6361040Y9334500D01*
X6475999Y9349635D01*
X6619037Y9408883D01*
X6741867Y9503133D01*
X6836117Y9625963D01*
X6868591Y9704363D01*
X6913139Y9759644D01*
X6980502Y9782065D01*
X7049294Y9764507D01*
X7097672Y9712545D01*
X7101407Y9704367D01*
X7133883Y9625963D01*
X7228133Y9503133D01*
X7350963Y9408883D01*
X7494001Y9349635D01*
X7608960Y9334500D01*
X8186040Y9334500D01*
X8300999Y9349635D01*
X8444037Y9408883D01*
X8566867Y9503133D01*
X8661117Y9625963D01*
X8664278Y9633593D01*
X8668406Y9640744D01*
X8670022Y9639811D01*
X8708052Y9687001D01*
X8779910Y9709500D01*
X10653500Y9709500D01*
X10721621Y9689498D01*
X10768114Y9635842D01*
X10779500Y9583500D01*
X10779501Y8831779D01*
X10779501Y8082624D01*
X10786149Y8021420D01*
X10836474Y7887176D01*
X10841854Y7879997D01*
X10841856Y7879994D01*
X10854326Y7863356D01*
X10879174Y7796849D01*
X10879500Y7787791D01*
X10879500Y7298972D01*
X10859498Y7230851D01*
X10805842Y7184358D01*
X10737053Y7174050D01*
X10726040Y7175500D01*
X10048960Y7175500D01*
X9934001Y7160365D01*
X9790963Y7101117D01*
X9784412Y7096090D01*
X9715872Y7043498D01*
X9649651Y7017898D01*
X9580103Y7032163D01*
X9550150Y7054288D01*
X9432871Y7171363D01*
X9421460Y7180375D01*
X9285937Y7263912D01*
X9272759Y7270056D01*
X9121234Y7320315D01*
X9107868Y7323181D01*
X9015230Y7332672D01*
X9008815Y7333000D01*
X8934615Y7333000D01*
X8919376Y7328525D01*
X8918171Y7327135D01*
X8916500Y7319452D01*
X8916500Y5385115D01*
X8920975Y5369876D01*
X8922365Y5368671D01*
X8930048Y5367000D01*
X9008766Y5367000D01*
X9015282Y5367337D01*
X9109132Y5377075D01*
X9122528Y5379968D01*
X9273953Y5430488D01*
X9287115Y5436653D01*
X9422492Y5520426D01*
X9433890Y5529460D01*
X9549876Y5645648D01*
X9612159Y5679727D01*
X9682979Y5674724D01*
X9715752Y5656593D01*
X9784408Y5603912D01*
X9784412Y5603910D01*
X9790963Y5598883D01*
X9934001Y5539635D01*
X10048960Y5524500D01*
X10156784Y5524500D01*
X10224905Y5504498D01*
X10271398Y5450842D01*
X10281502Y5380568D01*
X10252008Y5315988D01*
X10245880Y5309405D01*
X9781346Y4844870D01*
X9777537Y4841218D01*
X9731844Y4799201D01*
X9708901Y4762198D01*
X9702200Y4752448D01*
X9675888Y4717783D01*
X9670354Y4703805D01*
X9660293Y4683801D01*
X9652365Y4671014D01*
X9649968Y4662763D01*
X9649967Y4662761D01*
X9640225Y4629228D01*
X9636380Y4617998D01*
X9620364Y4577547D01*
X9619466Y4569006D01*
X9619466Y4569005D01*
X9618792Y4562592D01*
X9614480Y4540617D01*
X9610285Y4526175D01*
X9609500Y4515485D01*
X9609500Y4480783D01*
X9608810Y4467613D01*
X9604599Y4427546D01*
X9606031Y4419081D01*
X9606031Y4419072D01*
X9607735Y4409000D01*
X9609500Y4387987D01*
X9609500Y3866500D01*
X9589498Y3798379D01*
X9535842Y3751886D01*
X9483500Y3740500D01*
X9291782Y3740500D01*
X9287232Y3739830D01*
X9287229Y3739830D01*
X9232574Y3731784D01*
X9232573Y3731784D01*
X9222888Y3730358D01*
X9172992Y3705860D01*
X9127493Y3683522D01*
X9127491Y3683521D01*
X9118145Y3678932D01*
X9035707Y3596350D01*
X8984464Y3491518D01*
X8974500Y3423218D01*
X8974500Y1656782D01*
X8975170Y1652232D01*
X8975170Y1652229D01*
X8983216Y1597574D01*
X8984642Y1587888D01*
X9036068Y1483145D01*
X9118650Y1400707D01*
X9128006Y1396134D01*
X9128007Y1396133D01*
X9160460Y1380270D01*
X9223482Y1349464D01*
X9247597Y1345946D01*
X9287256Y1340160D01*
X9287260Y1340160D01*
X9291782Y1339500D01*
X11058218Y1339500D01*
X11062768Y1340170D01*
X11062771Y1340170D01*
X11117426Y1348216D01*
X11117427Y1348216D01*
X11127112Y1349642D01*
X11221804Y1396133D01*
X11222507Y1396478D01*
X11222509Y1396479D01*
X11231855Y1401068D01*
X11314293Y1483650D01*
X11320432Y1496208D01*
X11344965Y1546398D01*
X11365536Y1588482D01*
X11375500Y1656782D01*
X11375500Y2003638D01*
X11395502Y2071759D01*
X11449158Y2118252D01*
X11519432Y2128356D01*
X11584012Y2098862D01*
X11615926Y2056389D01*
X11670883Y1937179D01*
X11798222Y1756998D01*
X11956264Y1603039D01*
X11961060Y1599834D01*
X11961063Y1599832D01*
X12045261Y1543573D01*
X12139717Y1480460D01*
X12145020Y1478182D01*
X12145023Y1478180D01*
X12308221Y1408065D01*
X12342436Y1393365D01*
X12422088Y1375342D01*
X12551995Y1345946D01*
X12552001Y1345945D01*
X12557632Y1344671D01*
X12563403Y1344444D01*
X12563405Y1344444D01*
X12631211Y1341780D01*
X12778098Y1336009D01*
X12900524Y1353760D01*
X12990738Y1366840D01*
X12990743Y1366841D01*
X12996452Y1367669D01*
X13001916Y1369524D01*
X13001921Y1369525D01*
X13199907Y1436732D01*
X13199912Y1436734D01*
X13205379Y1438590D01*
X13397884Y1546398D01*
X13417987Y1563117D01*
X13563086Y1683796D01*
X13567518Y1687482D01*
X13708602Y1857116D01*
X13788020Y1998927D01*
X13838754Y2048586D01*
X13908286Y2062934D01*
X13974537Y2037412D01*
X14014695Y1984762D01*
X14036770Y1930397D01*
X14041413Y1921206D01*
X14152694Y1739612D01*
X14158777Y1731301D01*
X14298213Y1570333D01*
X14305580Y1563117D01*
X14469434Y1427084D01*
X14477881Y1421169D01*
X14661756Y1313721D01*
X14671042Y1309271D01*
X14870001Y1233297D01*
X14879899Y1230421D01*
X14983250Y1209394D01*
X14997299Y1210590D01*
X15001000Y1220935D01*
X15001000Y1221483D01*
X15509000Y1221483D01*
X15513064Y1207641D01*
X15526478Y1205607D01*
X15533184Y1206466D01*
X15543262Y1208608D01*
X15747255Y1269809D01*
X15756842Y1273567D01*
X15948095Y1367261D01*
X15956945Y1372536D01*
X16130328Y1496208D01*
X16138200Y1502861D01*
X16289052Y1653188D01*
X16295730Y1661035D01*
X16420003Y1833980D01*
X16425313Y1842817D01*
X16519670Y2033733D01*
X16523469Y2043328D01*
X16585377Y2247090D01*
X16587555Y2257163D01*
X16588986Y2268038D01*
X16586775Y2282222D01*
X16573617Y2286000D01*
X15527115Y2286000D01*
X15511876Y2281525D01*
X15510671Y2280135D01*
X15509000Y2272452D01*
X15509000Y1221483D01*
X15001000Y1221483D01*
X15001000Y2812115D01*
X15509000Y2812115D01*
X15513475Y2796876D01*
X15514865Y2795671D01*
X15522548Y2794000D01*
X16573344Y2794000D01*
X16586875Y2797973D01*
X16588180Y2807053D01*
X16546214Y2974125D01*
X16542894Y2983876D01*
X16457972Y3179186D01*
X16453105Y3188261D01*
X16337426Y3367074D01*
X16331136Y3375243D01*
X16187806Y3532760D01*
X16180273Y3539785D01*
X16013139Y3671778D01*
X16004552Y3677483D01*
X15818117Y3780401D01*
X15808705Y3784631D01*
X15607959Y3855720D01*
X15597988Y3858354D01*
X15526837Y3871028D01*
X15513540Y3869568D01*
X15509000Y3855011D01*
X15509000Y2812115D01*
X15001000Y2812115D01*
X15001000Y3856898D01*
X14997082Y3870242D01*
X14982806Y3872229D01*
X14944324Y3866340D01*
X14934288Y3863949D01*
X14731868Y3797788D01*
X14722359Y3793791D01*
X14533463Y3695458D01*
X14524738Y3689964D01*
X14354433Y3562095D01*
X14346726Y3555252D01*
X14199590Y3401283D01*
X14193104Y3393273D01*
X14073098Y3217351D01*
X14068000Y3208377D01*
X14012066Y3087878D01*
X13965242Y3034511D01*
X13896998Y3014930D01*
X13829003Y3035354D01*
X13784773Y3085199D01*
X13764324Y3126665D01*
X13745535Y3164767D01*
X13745532Y3164771D01*
X13742980Y3169947D01*
X13610967Y3346733D01*
X13513586Y3436751D01*
X13453189Y3492582D01*
X13453186Y3492584D01*
X13448949Y3496501D01*
X13262350Y3614236D01*
X13221010Y3630729D01*
X13165150Y3674550D01*
X13141700Y3747759D01*
X13141700Y3953565D01*
X13161702Y4021686D01*
X13178605Y4042660D01*
X18778540Y9642595D01*
X18840852Y9676621D01*
X18867635Y9679500D01*
X19326040Y9679500D01*
X19440999Y9694635D01*
X19584037Y9753883D01*
X19706867Y9848133D01*
X19801117Y9970963D01*
X19860365Y10114001D01*
X19875500Y10228960D01*
X19875500Y10806040D01*
X19860365Y10920999D01*
X19801117Y11064037D01*
X19706867Y11186867D01*
X19584037Y11281117D01*
X19505637Y11313591D01*
X19450356Y11358139D01*
X19427935Y11425502D01*
X19445493Y11494294D01*
X19497455Y11542672D01*
X19505637Y11546409D01*
X19584037Y11578883D01*
X19706867Y11673133D01*
X19801117Y11795963D01*
X19860365Y11939001D01*
X19875500Y12053960D01*
X19875500Y12631040D01*
X19860365Y12745999D01*
X19801117Y12889037D01*
X19706867Y13011867D01*
X19584037Y13106117D01*
X19440999Y13165365D01*
X19326040Y13180500D01*
X18773960Y13180500D01*
X18659001Y13165365D01*
X18515963Y13106117D01*
X18393133Y13011867D01*
X18298883Y12889037D01*
X18239635Y12745999D01*
X18224500Y12631040D01*
X18224500Y12172635D01*
X18204498Y12104514D01*
X18187595Y12083539D01*
X17663873Y11559818D01*
X17652783Y11549964D01*
X17635234Y11536130D01*
X17635230Y11536126D01*
X17627835Y11530296D01*
X17596243Y11484585D01*
X17594010Y11481462D01*
X17561038Y11436821D01*
X17558773Y11430371D01*
X17554883Y11424743D01*
X17552045Y11415768D01*
X17552042Y11415763D01*
X17538156Y11371854D01*
X17536903Y11368097D01*
X17521643Y11324645D01*
X17521642Y11324642D01*
X17518523Y11315759D01*
X17518254Y11308923D01*
X17516193Y11302405D01*
X17515700Y11296141D01*
X17515700Y11246380D01*
X17515603Y11241434D01*
X17513486Y11187548D01*
X17515292Y11180737D01*
X17515700Y11173322D01*
X17515700Y10323035D01*
X17495698Y10254914D01*
X17478795Y10233940D01*
X16105595Y8860740D01*
X16043283Y8826714D01*
X15972468Y8831779D01*
X15915632Y8874326D01*
X15890821Y8940846D01*
X15890500Y8949835D01*
X15890499Y9784257D01*
X15910501Y9852378D01*
X15964157Y9898871D01*
X15981000Y9905153D01*
X15983884Y9906000D01*
X16002000Y9906000D01*
X16002000Y12954000D01*
X15989213Y12954000D01*
X15927405Y12987750D01*
X15893380Y13050063D01*
X15890500Y13076846D01*
X15890499Y14773958D01*
X15890499Y14777376D01*
X15888695Y14793986D01*
X15884705Y14830722D01*
X15884704Y14830726D01*
X15883851Y14838580D01*
X15833526Y14972824D01*
X15828146Y14980003D01*
X15828144Y14980006D01*
X15752928Y15080365D01*
X15747546Y15087546D01*
X15715834Y15111313D01*
X15640006Y15168144D01*
X15640003Y15168146D01*
X15632824Y15173526D01*
X15543439Y15207034D01*
X15505975Y15221079D01*
X15505973Y15221079D01*
X15498580Y15223851D01*
X15490730Y15224704D01*
X15490729Y15224704D01*
X15440774Y15230131D01*
X15440773Y15230131D01*
X15437377Y15230500D01*
X15240058Y15230500D01*
X15042624Y15230499D01*
X15039230Y15230130D01*
X15039224Y15230130D01*
X14989278Y15224705D01*
X14989274Y15224704D01*
X14981420Y15223851D01*
X14847176Y15173526D01*
X14839997Y15168146D01*
X14839994Y15168144D01*
X14764166Y15111313D01*
X14732454Y15087546D01*
X14705826Y15052016D01*
X14648966Y15009501D01*
X14578147Y15004477D01*
X14515854Y15038537D01*
X14504174Y15052016D01*
X14477546Y15087546D01*
X14445834Y15111313D01*
X14370006Y15168144D01*
X14370003Y15168146D01*
X14362824Y15173526D01*
X14273439Y15207034D01*
X14235975Y15221079D01*
X14235973Y15221079D01*
X14228580Y15223851D01*
X14220730Y15224704D01*
X14220729Y15224704D01*
X14170774Y15230131D01*
X14170773Y15230131D01*
X14167377Y15230500D01*
X13970058Y15230500D01*
X13772624Y15230499D01*
X13769230Y15230130D01*
X13769224Y15230130D01*
X13719278Y15224705D01*
X13719274Y15224704D01*
X13711420Y15223851D01*
X13577176Y15173526D01*
X13569997Y15168146D01*
X13569994Y15168144D01*
X13494166Y15111313D01*
X13462454Y15087546D01*
X13435826Y15052016D01*
X13378966Y15009501D01*
X13308147Y15004477D01*
X13245854Y15038537D01*
X13234174Y15052016D01*
X13207546Y15087546D01*
X13175834Y15111313D01*
X13100006Y15168144D01*
X13100003Y15168146D01*
X13092824Y15173526D01*
X13003439Y15207034D01*
X12965975Y15221079D01*
X12965973Y15221079D01*
X12958580Y15223851D01*
X12950730Y15224704D01*
X12950729Y15224704D01*
X12900774Y15230131D01*
X12900773Y15230131D01*
X12897377Y15230500D01*
X12700058Y15230500D01*
X12502624Y15230499D01*
X12499230Y15230130D01*
X12499224Y15230130D01*
X12449278Y15224705D01*
X12449274Y15224704D01*
X12441420Y15223851D01*
X12307176Y15173526D01*
X12299994Y15168143D01*
X12257322Y15136162D01*
X12190816Y15111313D01*
X12121433Y15126365D01*
X12092661Y15147892D01*
X11992104Y15248449D01*
X11979678Y15258089D01*
X11850221Y15334648D01*
X11835790Y15340893D01*
X11701395Y15379939D01*
X11687294Y15379899D01*
X11684000Y15372630D01*
X11684000Y13777000D01*
X11663998Y13708879D01*
X11610342Y13662386D01*
X11558000Y13651000D01*
X10640116Y13651000D01*
X10624877Y13646525D01*
X10623672Y13645135D01*
X10622001Y13637452D01*
X10622001Y13016016D01*
X10622195Y13011080D01*
X10624430Y12982664D01*
X10626730Y12970069D01*
X10669107Y12824210D01*
X10675352Y12809779D01*
X10751015Y12681839D01*
X10768474Y12613023D01*
X10745957Y12545691D01*
X10690613Y12501222D01*
X10642561Y12491700D01*
X8789768Y12491700D01*
X8721647Y12511702D01*
X8673359Y12569482D01*
X8672132Y12572445D01*
X8661117Y12599037D01*
X8566867Y12721867D01*
X8444037Y12816117D01*
X8300999Y12875365D01*
X8186040Y12890500D01*
X7533960Y12890500D01*
X7419001Y12875365D01*
X7275963Y12816117D01*
X7153133Y12721867D01*
X7148111Y12715322D01*
X7148107Y12715318D01*
X7084963Y12633026D01*
X7027625Y12591158D01*
X6956754Y12586936D01*
X6894851Y12621700D01*
X6885037Y12633026D01*
X6821893Y12715318D01*
X6821889Y12715322D01*
X6816867Y12721867D01*
X6694037Y12816117D01*
X6550999Y12875365D01*
X6436040Y12890500D01*
X5783960Y12890500D01*
X5669001Y12875365D01*
X5525963Y12816117D01*
X5403133Y12721867D01*
X5308883Y12599037D01*
X5249635Y12455999D01*
X5234500Y12341040D01*
X5234500Y11788960D01*
X5249635Y11674001D01*
X5308883Y11530963D01*
X5403133Y11408133D01*
X5525963Y11313883D01*
X5568019Y11296463D01*
X5623299Y11251914D01*
X5645800Y11180054D01*
X5645800Y11044946D01*
X5625798Y10976825D01*
X5568019Y10928537D01*
X5525963Y10911117D01*
X5403133Y10816867D01*
X5308883Y10694037D01*
X5249635Y10550999D01*
X5234500Y10436040D01*
X5234500Y9883960D01*
X500000Y9883960D01*
X500000Y14177115D01*
X10622000Y14177115D01*
X10626475Y14161876D01*
X10627865Y14160671D01*
X10635548Y14159000D01*
X11157885Y14159000D01*
X11173124Y14163475D01*
X11174329Y14164865D01*
X11176000Y14172548D01*
X11176000Y15366878D01*
X11172027Y15380409D01*
X11164129Y15381544D01*
X11024210Y15340893D01*
X11009779Y15334648D01*
X10880322Y15258089D01*
X10867896Y15248449D01*
X10761551Y15142104D01*
X10751911Y15129678D01*
X10675352Y15000221D01*
X10669107Y14985790D01*
X10626731Y14839935D01*
X10624430Y14827333D01*
X10622193Y14798916D01*
X10622000Y14793986D01*
X10622000Y14177115D01*
X500000Y14177115D01*
X500000Y20030715D01*
X3044759Y20030715D01*
X3045003Y20026280D01*
X3045003Y20026276D01*
X3048384Y19964853D01*
X3059938Y19754913D01*
X3113825Y19484001D01*
X3205347Y19223384D01*
X3332678Y18978263D01*
X3335261Y18974648D01*
X3335265Y18974642D01*
X3372272Y18922856D01*
X3493275Y18753529D01*
X3683936Y18553665D01*
X3687431Y18550909D01*
X3687433Y18550908D01*
X3735469Y18513040D01*
X3900856Y18382659D01*
X3962559Y18346819D01*
X4135853Y18246161D01*
X4135859Y18246158D01*
X4139707Y18243923D01*
X4395723Y18140226D01*
X4400036Y18139155D01*
X4400041Y18139153D01*
X4659475Y18074709D01*
X4659480Y18074708D01*
X4663796Y18073636D01*
X4668224Y18073182D01*
X4668226Y18073182D01*
X4743339Y18065486D01*
X4899370Y18049500D01*
X5070362Y18049500D01*
X5275530Y18064027D01*
X5279885Y18064965D01*
X5279888Y18064965D01*
X5541215Y18121227D01*
X5541217Y18121227D01*
X5545562Y18122163D01*
X5804709Y18217767D01*
X5853185Y18243923D01*
X6043884Y18346819D01*
X6047800Y18348932D01*
X6269984Y18513040D01*
X6466829Y18706817D01*
X6634406Y18926396D01*
X6769373Y19167396D01*
X6869036Y19425009D01*
X6931407Y19694095D01*
X6955241Y19969285D01*
X6954997Y19973724D01*
X6940307Y20240644D01*
X6940306Y20240651D01*
X6940062Y20245087D01*
X6886175Y20515999D01*
X6794653Y20776616D01*
X6667322Y21021737D01*
X6664739Y21025352D01*
X6664735Y21025358D01*
X6509313Y21242850D01*
X6509310Y21242854D01*
X6506725Y21246471D01*
X6316064Y21446335D01*
X6312567Y21449092D01*
X6102639Y21614586D01*
X6102637Y21614587D01*
X6099144Y21617341D01*
X5986609Y21682706D01*
X5864147Y21753839D01*
X5864141Y21753842D01*
X5860293Y21756077D01*
X5604277Y21859774D01*
X5599964Y21860845D01*
X5599959Y21860847D01*
X5340525Y21925291D01*
X5340520Y21925292D01*
X5336204Y21926364D01*
X5331776Y21926818D01*
X5331774Y21926818D01*
X5251573Y21935035D01*
X5100630Y21950500D01*
X4929638Y21950500D01*
X4724470Y21935973D01*
X4720115Y21935035D01*
X4720112Y21935035D01*
X4458785Y21878773D01*
X4458783Y21878773D01*
X4454438Y21877837D01*
X4195291Y21782233D01*
X4191373Y21780119D01*
X4142668Y21753839D01*
X3952200Y21651068D01*
X3730016Y21486960D01*
X3533171Y21293183D01*
X3365594Y21073604D01*
X3230627Y20832604D01*
X3130964Y20574991D01*
X3068593Y20305905D01*
X3044759Y20030715D01*
X500000Y20030715D01*
X500000Y24374000D01*
X520002Y24442121D01*
X573658Y24488614D01*
X626000Y24500000D01*
X24374000Y24500000D01*
X24442121Y24479998D01*
G37*
G04 #@! TD.AperFunction*
M02*
