G04 #@! TF.GenerationSoftware,KiCad,Pcbnew,(6.0.6)*
G04 #@! TF.CreationDate,2022-08-12T14:57:56+09:00*
G04 #@! TF.ProjectId,tutorial1-PNLZ,7475746f-7269-4616-9c31-2d504e4c5a2e,1*
G04 #@! TF.SameCoordinates,PX7bfa480PY7bfa480*
G04 #@! TF.FileFunction,Legend,Bot*
G04 #@! TF.FilePolarity,Positive*
%FSLAX46Y46*%
G04 Gerber Fmt 4.6, Leading zero omitted, Abs format (unit mm)*
G04 Created by KiCad (PCBNEW (6.0.6)) date 2022-08-12 14:57:56*
%MOMM*%
%LPD*%
G01*
G04 APERTURE LIST*
%ADD10C,0.150000*%
G04 APERTURE END LIST*
D10*
X42692000Y-17165714D02*
X42311047Y-17165714D01*
X42549142Y-16832380D02*
X42549142Y-17689523D01*
X42501523Y-17784761D01*
X42406285Y-17832380D01*
X42311047Y-17832380D01*
X41977714Y-17832380D02*
X41977714Y-17165714D01*
X41977714Y-17356190D02*
X41930095Y-17260952D01*
X41882476Y-17213333D01*
X41787238Y-17165714D01*
X41692000Y-17165714D01*
X40930095Y-17832380D02*
X40930095Y-17308571D01*
X40977714Y-17213333D01*
X41072952Y-17165714D01*
X41263428Y-17165714D01*
X41358666Y-17213333D01*
X40930095Y-17784761D02*
X41025333Y-17832380D01*
X41263428Y-17832380D01*
X41358666Y-17784761D01*
X41406285Y-17689523D01*
X41406285Y-17594285D01*
X41358666Y-17499047D01*
X41263428Y-17451428D01*
X41025333Y-17451428D01*
X40930095Y-17403809D01*
X40453904Y-17165714D02*
X40453904Y-17832380D01*
X40453904Y-17260952D02*
X40406285Y-17213333D01*
X40311047Y-17165714D01*
X40168190Y-17165714D01*
X40072952Y-17213333D01*
X40025333Y-17308571D01*
X40025333Y-17832380D01*
X39596761Y-17784761D02*
X39501523Y-17832380D01*
X39311047Y-17832380D01*
X39215809Y-17784761D01*
X39168190Y-17689523D01*
X39168190Y-17641904D01*
X39215809Y-17546666D01*
X39311047Y-17499047D01*
X39453904Y-17499047D01*
X39549142Y-17451428D01*
X39596761Y-17356190D01*
X39596761Y-17308571D01*
X39549142Y-17213333D01*
X39453904Y-17165714D01*
X39311047Y-17165714D01*
X39215809Y-17213333D01*
X38739619Y-17832380D02*
X38739619Y-17165714D01*
X38739619Y-16832380D02*
X38787238Y-16880000D01*
X38739619Y-16927619D01*
X38692000Y-16880000D01*
X38739619Y-16832380D01*
X38739619Y-16927619D01*
X37834857Y-17832380D02*
X37834857Y-17308571D01*
X37882476Y-17213333D01*
X37977714Y-17165714D01*
X38168190Y-17165714D01*
X38263428Y-17213333D01*
X37834857Y-17784761D02*
X37930095Y-17832380D01*
X38168190Y-17832380D01*
X38263428Y-17784761D01*
X38311047Y-17689523D01*
X38311047Y-17594285D01*
X38263428Y-17499047D01*
X38168190Y-17451428D01*
X37930095Y-17451428D01*
X37834857Y-17403809D01*
X37358666Y-17165714D02*
X37358666Y-17832380D01*
X37358666Y-17260952D02*
X37311047Y-17213333D01*
X37215809Y-17165714D01*
X37072952Y-17165714D01*
X36977714Y-17213333D01*
X36930095Y-17308571D01*
X36930095Y-17832380D01*
X36596761Y-17165714D02*
X36215809Y-17165714D01*
X36453904Y-16832380D02*
X36453904Y-17689523D01*
X36406285Y-17784761D01*
X36311047Y-17832380D01*
X36215809Y-17832380D01*
X36120571Y-17927619D02*
X35358666Y-17927619D01*
X35120571Y-17832380D02*
X35120571Y-16832380D01*
X35120571Y-17308571D02*
X34549142Y-17308571D01*
X34549142Y-17832380D02*
X34549142Y-16832380D01*
X34120571Y-17546666D02*
X33644380Y-17546666D01*
X34215809Y-17832380D02*
X33882476Y-16832380D01*
X33549142Y-17832380D01*
X32692000Y-16880000D02*
X32787238Y-16832380D01*
X32930095Y-16832380D01*
X33072952Y-16880000D01*
X33168190Y-16975238D01*
X33215809Y-17070476D01*
X33263428Y-17260952D01*
X33263428Y-17403809D01*
X33215809Y-17594285D01*
X33168190Y-17689523D01*
X33072952Y-17784761D01*
X32930095Y-17832380D01*
X32834857Y-17832380D01*
X32692000Y-17784761D01*
X32644380Y-17737142D01*
X32644380Y-17403809D01*
X32834857Y-17403809D01*
X32263428Y-17546666D02*
X31787238Y-17546666D01*
X32358666Y-17832380D02*
X32025333Y-16832380D01*
X31692000Y-17832380D01*
X17692000Y-17165714D02*
X17311047Y-17165714D01*
X17549142Y-16832380D02*
X17549142Y-17689523D01*
X17501523Y-17784761D01*
X17406285Y-17832380D01*
X17311047Y-17832380D01*
X16977714Y-17832380D02*
X16977714Y-17165714D01*
X16977714Y-17356190D02*
X16930095Y-17260952D01*
X16882476Y-17213333D01*
X16787238Y-17165714D01*
X16692000Y-17165714D01*
X15930095Y-17832380D02*
X15930095Y-17308571D01*
X15977714Y-17213333D01*
X16072952Y-17165714D01*
X16263428Y-17165714D01*
X16358666Y-17213333D01*
X15930095Y-17784761D02*
X16025333Y-17832380D01*
X16263428Y-17832380D01*
X16358666Y-17784761D01*
X16406285Y-17689523D01*
X16406285Y-17594285D01*
X16358666Y-17499047D01*
X16263428Y-17451428D01*
X16025333Y-17451428D01*
X15930095Y-17403809D01*
X15453904Y-17165714D02*
X15453904Y-17832380D01*
X15453904Y-17260952D02*
X15406285Y-17213333D01*
X15311047Y-17165714D01*
X15168190Y-17165714D01*
X15072952Y-17213333D01*
X15025333Y-17308571D01*
X15025333Y-17832380D01*
X14596761Y-17784761D02*
X14501523Y-17832380D01*
X14311047Y-17832380D01*
X14215809Y-17784761D01*
X14168190Y-17689523D01*
X14168190Y-17641904D01*
X14215809Y-17546666D01*
X14311047Y-17499047D01*
X14453904Y-17499047D01*
X14549142Y-17451428D01*
X14596761Y-17356190D01*
X14596761Y-17308571D01*
X14549142Y-17213333D01*
X14453904Y-17165714D01*
X14311047Y-17165714D01*
X14215809Y-17213333D01*
X13739619Y-17832380D02*
X13739619Y-17165714D01*
X13739619Y-16832380D02*
X13787238Y-16880000D01*
X13739619Y-16927619D01*
X13692000Y-16880000D01*
X13739619Y-16832380D01*
X13739619Y-16927619D01*
X12834857Y-17832380D02*
X12834857Y-17308571D01*
X12882476Y-17213333D01*
X12977714Y-17165714D01*
X13168190Y-17165714D01*
X13263428Y-17213333D01*
X12834857Y-17784761D02*
X12930095Y-17832380D01*
X13168190Y-17832380D01*
X13263428Y-17784761D01*
X13311047Y-17689523D01*
X13311047Y-17594285D01*
X13263428Y-17499047D01*
X13168190Y-17451428D01*
X12930095Y-17451428D01*
X12834857Y-17403809D01*
X12358666Y-17165714D02*
X12358666Y-17832380D01*
X12358666Y-17260952D02*
X12311047Y-17213333D01*
X12215809Y-17165714D01*
X12072952Y-17165714D01*
X11977714Y-17213333D01*
X11930095Y-17308571D01*
X11930095Y-17832380D01*
X11596761Y-17165714D02*
X11215809Y-17165714D01*
X11453904Y-16832380D02*
X11453904Y-17689523D01*
X11406285Y-17784761D01*
X11311047Y-17832380D01*
X11215809Y-17832380D01*
X11120571Y-17927619D02*
X10358666Y-17927619D01*
X10120571Y-17832380D02*
X10120571Y-16832380D01*
X10120571Y-17308571D02*
X9549142Y-17308571D01*
X9549142Y-17832380D02*
X9549142Y-16832380D01*
X9120571Y-17546666D02*
X8644380Y-17546666D01*
X9215809Y-17832380D02*
X8882476Y-16832380D01*
X8549142Y-17832380D01*
X7692000Y-16880000D02*
X7787238Y-16832380D01*
X7930095Y-16832380D01*
X8072952Y-16880000D01*
X8168190Y-16975238D01*
X8215809Y-17070476D01*
X8263428Y-17260952D01*
X8263428Y-17403809D01*
X8215809Y-17594285D01*
X8168190Y-17689523D01*
X8072952Y-17784761D01*
X7930095Y-17832380D01*
X7834857Y-17832380D01*
X7692000Y-17784761D01*
X7644380Y-17737142D01*
X7644380Y-17403809D01*
X7834857Y-17403809D01*
X7263428Y-17546666D02*
X6787238Y-17546666D01*
X7358666Y-17832380D02*
X7025333Y-16832380D01*
X6692000Y-17832380D01*
X-7308000Y-17165714D02*
X-7688953Y-17165714D01*
X-7450858Y-16832380D02*
X-7450858Y-17689523D01*
X-7498477Y-17784761D01*
X-7593715Y-17832380D01*
X-7688953Y-17832380D01*
X-8022286Y-17832380D02*
X-8022286Y-17165714D01*
X-8022286Y-17356190D02*
X-8069905Y-17260952D01*
X-8117524Y-17213333D01*
X-8212762Y-17165714D01*
X-8308000Y-17165714D01*
X-9069905Y-17832380D02*
X-9069905Y-17308571D01*
X-9022286Y-17213333D01*
X-8927048Y-17165714D01*
X-8736572Y-17165714D01*
X-8641334Y-17213333D01*
X-9069905Y-17784761D02*
X-8974667Y-17832380D01*
X-8736572Y-17832380D01*
X-8641334Y-17784761D01*
X-8593715Y-17689523D01*
X-8593715Y-17594285D01*
X-8641334Y-17499047D01*
X-8736572Y-17451428D01*
X-8974667Y-17451428D01*
X-9069905Y-17403809D01*
X-9546096Y-17165714D02*
X-9546096Y-17832380D01*
X-9546096Y-17260952D02*
X-9593715Y-17213333D01*
X-9688953Y-17165714D01*
X-9831810Y-17165714D01*
X-9927048Y-17213333D01*
X-9974667Y-17308571D01*
X-9974667Y-17832380D01*
X-10403239Y-17784761D02*
X-10498477Y-17832380D01*
X-10688953Y-17832380D01*
X-10784191Y-17784761D01*
X-10831810Y-17689523D01*
X-10831810Y-17641904D01*
X-10784191Y-17546666D01*
X-10688953Y-17499047D01*
X-10546096Y-17499047D01*
X-10450858Y-17451428D01*
X-10403239Y-17356190D01*
X-10403239Y-17308571D01*
X-10450858Y-17213333D01*
X-10546096Y-17165714D01*
X-10688953Y-17165714D01*
X-10784191Y-17213333D01*
X-11260381Y-17832380D02*
X-11260381Y-17165714D01*
X-11260381Y-16832380D02*
X-11212762Y-16880000D01*
X-11260381Y-16927619D01*
X-11308000Y-16880000D01*
X-11260381Y-16832380D01*
X-11260381Y-16927619D01*
X-12165143Y-17832380D02*
X-12165143Y-17308571D01*
X-12117524Y-17213333D01*
X-12022286Y-17165714D01*
X-11831810Y-17165714D01*
X-11736572Y-17213333D01*
X-12165143Y-17784761D02*
X-12069905Y-17832380D01*
X-11831810Y-17832380D01*
X-11736572Y-17784761D01*
X-11688953Y-17689523D01*
X-11688953Y-17594285D01*
X-11736572Y-17499047D01*
X-11831810Y-17451428D01*
X-12069905Y-17451428D01*
X-12165143Y-17403809D01*
X-12641334Y-17165714D02*
X-12641334Y-17832380D01*
X-12641334Y-17260952D02*
X-12688953Y-17213333D01*
X-12784191Y-17165714D01*
X-12927048Y-17165714D01*
X-13022286Y-17213333D01*
X-13069905Y-17308571D01*
X-13069905Y-17832380D01*
X-13403239Y-17165714D02*
X-13784191Y-17165714D01*
X-13546096Y-16832380D02*
X-13546096Y-17689523D01*
X-13593715Y-17784761D01*
X-13688953Y-17832380D01*
X-13784191Y-17832380D01*
X-13879429Y-17927619D02*
X-14641334Y-17927619D01*
X-14879429Y-17832380D02*
X-14879429Y-16832380D01*
X-14879429Y-17308571D02*
X-15450858Y-17308571D01*
X-15450858Y-17832380D02*
X-15450858Y-16832380D01*
X-15879429Y-17546666D02*
X-16355620Y-17546666D01*
X-15784191Y-17832380D02*
X-16117524Y-16832380D01*
X-16450858Y-17832380D01*
X-17308000Y-16880000D02*
X-17212762Y-16832380D01*
X-17069905Y-16832380D01*
X-16927048Y-16880000D01*
X-16831810Y-16975238D01*
X-16784191Y-17070476D01*
X-16736572Y-17260952D01*
X-16736572Y-17403809D01*
X-16784191Y-17594285D01*
X-16831810Y-17689523D01*
X-16927048Y-17784761D01*
X-17069905Y-17832380D01*
X-17165143Y-17832380D01*
X-17308000Y-17784761D01*
X-17355620Y-17737142D01*
X-17355620Y-17403809D01*
X-17165143Y-17403809D01*
X-17736572Y-17546666D02*
X-18212762Y-17546666D01*
X-17641334Y-17832380D02*
X-17974667Y-16832380D01*
X-18308000Y-17832380D01*
X-32308000Y-17165714D02*
X-32688953Y-17165714D01*
X-32450858Y-16832380D02*
X-32450858Y-17689523D01*
X-32498477Y-17784761D01*
X-32593715Y-17832380D01*
X-32688953Y-17832380D01*
X-33022286Y-17832380D02*
X-33022286Y-17165714D01*
X-33022286Y-17356190D02*
X-33069905Y-17260952D01*
X-33117524Y-17213333D01*
X-33212762Y-17165714D01*
X-33308000Y-17165714D01*
X-34069905Y-17832380D02*
X-34069905Y-17308571D01*
X-34022286Y-17213333D01*
X-33927048Y-17165714D01*
X-33736572Y-17165714D01*
X-33641334Y-17213333D01*
X-34069905Y-17784761D02*
X-33974667Y-17832380D01*
X-33736572Y-17832380D01*
X-33641334Y-17784761D01*
X-33593715Y-17689523D01*
X-33593715Y-17594285D01*
X-33641334Y-17499047D01*
X-33736572Y-17451428D01*
X-33974667Y-17451428D01*
X-34069905Y-17403809D01*
X-34546096Y-17165714D02*
X-34546096Y-17832380D01*
X-34546096Y-17260952D02*
X-34593715Y-17213333D01*
X-34688953Y-17165714D01*
X-34831810Y-17165714D01*
X-34927048Y-17213333D01*
X-34974667Y-17308571D01*
X-34974667Y-17832380D01*
X-35403239Y-17784761D02*
X-35498477Y-17832380D01*
X-35688953Y-17832380D01*
X-35784191Y-17784761D01*
X-35831810Y-17689523D01*
X-35831810Y-17641904D01*
X-35784191Y-17546666D01*
X-35688953Y-17499047D01*
X-35546096Y-17499047D01*
X-35450858Y-17451428D01*
X-35403239Y-17356190D01*
X-35403239Y-17308571D01*
X-35450858Y-17213333D01*
X-35546096Y-17165714D01*
X-35688953Y-17165714D01*
X-35784191Y-17213333D01*
X-36260381Y-17832380D02*
X-36260381Y-17165714D01*
X-36260381Y-16832380D02*
X-36212762Y-16880000D01*
X-36260381Y-16927619D01*
X-36308000Y-16880000D01*
X-36260381Y-16832380D01*
X-36260381Y-16927619D01*
X-37165143Y-17832380D02*
X-37165143Y-17308571D01*
X-37117524Y-17213333D01*
X-37022286Y-17165714D01*
X-36831810Y-17165714D01*
X-36736572Y-17213333D01*
X-37165143Y-17784761D02*
X-37069905Y-17832380D01*
X-36831810Y-17832380D01*
X-36736572Y-17784761D01*
X-36688953Y-17689523D01*
X-36688953Y-17594285D01*
X-36736572Y-17499047D01*
X-36831810Y-17451428D01*
X-37069905Y-17451428D01*
X-37165143Y-17403809D01*
X-37641334Y-17165714D02*
X-37641334Y-17832380D01*
X-37641334Y-17260952D02*
X-37688953Y-17213333D01*
X-37784191Y-17165714D01*
X-37927048Y-17165714D01*
X-38022286Y-17213333D01*
X-38069905Y-17308571D01*
X-38069905Y-17832380D01*
X-38403239Y-17165714D02*
X-38784191Y-17165714D01*
X-38546096Y-16832380D02*
X-38546096Y-17689523D01*
X-38593715Y-17784761D01*
X-38688953Y-17832380D01*
X-38784191Y-17832380D01*
X-38879429Y-17927619D02*
X-39641334Y-17927619D01*
X-39879429Y-17832380D02*
X-39879429Y-16832380D01*
X-39879429Y-17308571D02*
X-40450858Y-17308571D01*
X-40450858Y-17832380D02*
X-40450858Y-16832380D01*
X-40879429Y-17546666D02*
X-41355620Y-17546666D01*
X-40784191Y-17832380D02*
X-41117524Y-16832380D01*
X-41450858Y-17832380D01*
X-42308000Y-16880000D02*
X-42212762Y-16832380D01*
X-42069905Y-16832380D01*
X-41927048Y-16880000D01*
X-41831810Y-16975238D01*
X-41784191Y-17070476D01*
X-41736572Y-17260952D01*
X-41736572Y-17403809D01*
X-41784191Y-17594285D01*
X-41831810Y-17689523D01*
X-41927048Y-17784761D01*
X-42069905Y-17832380D01*
X-42165143Y-17832380D01*
X-42308000Y-17784761D01*
X-42355620Y-17737142D01*
X-42355620Y-17403809D01*
X-42165143Y-17403809D01*
X-42736572Y-17546666D02*
X-43212762Y-17546666D01*
X-42641334Y-17832380D02*
X-42974667Y-16832380D01*
X-43308000Y-17832380D01*
X42692000Y7834286D02*
X42311047Y7834286D01*
X42549142Y8167620D02*
X42549142Y7310477D01*
X42501523Y7215239D01*
X42406285Y7167620D01*
X42311047Y7167620D01*
X41977714Y7167620D02*
X41977714Y7834286D01*
X41977714Y7643810D02*
X41930095Y7739048D01*
X41882476Y7786667D01*
X41787238Y7834286D01*
X41692000Y7834286D01*
X40930095Y7167620D02*
X40930095Y7691429D01*
X40977714Y7786667D01*
X41072952Y7834286D01*
X41263428Y7834286D01*
X41358666Y7786667D01*
X40930095Y7215239D02*
X41025333Y7167620D01*
X41263428Y7167620D01*
X41358666Y7215239D01*
X41406285Y7310477D01*
X41406285Y7405715D01*
X41358666Y7500953D01*
X41263428Y7548572D01*
X41025333Y7548572D01*
X40930095Y7596191D01*
X40453904Y7834286D02*
X40453904Y7167620D01*
X40453904Y7739048D02*
X40406285Y7786667D01*
X40311047Y7834286D01*
X40168190Y7834286D01*
X40072952Y7786667D01*
X40025333Y7691429D01*
X40025333Y7167620D01*
X39596761Y7215239D02*
X39501523Y7167620D01*
X39311047Y7167620D01*
X39215809Y7215239D01*
X39168190Y7310477D01*
X39168190Y7358096D01*
X39215809Y7453334D01*
X39311047Y7500953D01*
X39453904Y7500953D01*
X39549142Y7548572D01*
X39596761Y7643810D01*
X39596761Y7691429D01*
X39549142Y7786667D01*
X39453904Y7834286D01*
X39311047Y7834286D01*
X39215809Y7786667D01*
X38739619Y7167620D02*
X38739619Y7834286D01*
X38739619Y8167620D02*
X38787238Y8120000D01*
X38739619Y8072381D01*
X38692000Y8120000D01*
X38739619Y8167620D01*
X38739619Y8072381D01*
X37834857Y7167620D02*
X37834857Y7691429D01*
X37882476Y7786667D01*
X37977714Y7834286D01*
X38168190Y7834286D01*
X38263428Y7786667D01*
X37834857Y7215239D02*
X37930095Y7167620D01*
X38168190Y7167620D01*
X38263428Y7215239D01*
X38311047Y7310477D01*
X38311047Y7405715D01*
X38263428Y7500953D01*
X38168190Y7548572D01*
X37930095Y7548572D01*
X37834857Y7596191D01*
X37358666Y7834286D02*
X37358666Y7167620D01*
X37358666Y7739048D02*
X37311047Y7786667D01*
X37215809Y7834286D01*
X37072952Y7834286D01*
X36977714Y7786667D01*
X36930095Y7691429D01*
X36930095Y7167620D01*
X36596761Y7834286D02*
X36215809Y7834286D01*
X36453904Y8167620D02*
X36453904Y7310477D01*
X36406285Y7215239D01*
X36311047Y7167620D01*
X36215809Y7167620D01*
X36120571Y7072381D02*
X35358666Y7072381D01*
X35120571Y7167620D02*
X35120571Y8167620D01*
X35120571Y7691429D02*
X34549142Y7691429D01*
X34549142Y7167620D02*
X34549142Y8167620D01*
X34120571Y7453334D02*
X33644380Y7453334D01*
X34215809Y7167620D02*
X33882476Y8167620D01*
X33549142Y7167620D01*
X32692000Y8120000D02*
X32787238Y8167620D01*
X32930095Y8167620D01*
X33072952Y8120000D01*
X33168190Y8024762D01*
X33215809Y7929524D01*
X33263428Y7739048D01*
X33263428Y7596191D01*
X33215809Y7405715D01*
X33168190Y7310477D01*
X33072952Y7215239D01*
X32930095Y7167620D01*
X32834857Y7167620D01*
X32692000Y7215239D01*
X32644380Y7262858D01*
X32644380Y7596191D01*
X32834857Y7596191D01*
X32263428Y7453334D02*
X31787238Y7453334D01*
X32358666Y7167620D02*
X32025333Y8167620D01*
X31692000Y7167620D01*
X17692000Y7834286D02*
X17311047Y7834286D01*
X17549142Y8167620D02*
X17549142Y7310477D01*
X17501523Y7215239D01*
X17406285Y7167620D01*
X17311047Y7167620D01*
X16977714Y7167620D02*
X16977714Y7834286D01*
X16977714Y7643810D02*
X16930095Y7739048D01*
X16882476Y7786667D01*
X16787238Y7834286D01*
X16692000Y7834286D01*
X15930095Y7167620D02*
X15930095Y7691429D01*
X15977714Y7786667D01*
X16072952Y7834286D01*
X16263428Y7834286D01*
X16358666Y7786667D01*
X15930095Y7215239D02*
X16025333Y7167620D01*
X16263428Y7167620D01*
X16358666Y7215239D01*
X16406285Y7310477D01*
X16406285Y7405715D01*
X16358666Y7500953D01*
X16263428Y7548572D01*
X16025333Y7548572D01*
X15930095Y7596191D01*
X15453904Y7834286D02*
X15453904Y7167620D01*
X15453904Y7739048D02*
X15406285Y7786667D01*
X15311047Y7834286D01*
X15168190Y7834286D01*
X15072952Y7786667D01*
X15025333Y7691429D01*
X15025333Y7167620D01*
X14596761Y7215239D02*
X14501523Y7167620D01*
X14311047Y7167620D01*
X14215809Y7215239D01*
X14168190Y7310477D01*
X14168190Y7358096D01*
X14215809Y7453334D01*
X14311047Y7500953D01*
X14453904Y7500953D01*
X14549142Y7548572D01*
X14596761Y7643810D01*
X14596761Y7691429D01*
X14549142Y7786667D01*
X14453904Y7834286D01*
X14311047Y7834286D01*
X14215809Y7786667D01*
X13739619Y7167620D02*
X13739619Y7834286D01*
X13739619Y8167620D02*
X13787238Y8120000D01*
X13739619Y8072381D01*
X13692000Y8120000D01*
X13739619Y8167620D01*
X13739619Y8072381D01*
X12834857Y7167620D02*
X12834857Y7691429D01*
X12882476Y7786667D01*
X12977714Y7834286D01*
X13168190Y7834286D01*
X13263428Y7786667D01*
X12834857Y7215239D02*
X12930095Y7167620D01*
X13168190Y7167620D01*
X13263428Y7215239D01*
X13311047Y7310477D01*
X13311047Y7405715D01*
X13263428Y7500953D01*
X13168190Y7548572D01*
X12930095Y7548572D01*
X12834857Y7596191D01*
X12358666Y7834286D02*
X12358666Y7167620D01*
X12358666Y7739048D02*
X12311047Y7786667D01*
X12215809Y7834286D01*
X12072952Y7834286D01*
X11977714Y7786667D01*
X11930095Y7691429D01*
X11930095Y7167620D01*
X11596761Y7834286D02*
X11215809Y7834286D01*
X11453904Y8167620D02*
X11453904Y7310477D01*
X11406285Y7215239D01*
X11311047Y7167620D01*
X11215809Y7167620D01*
X11120571Y7072381D02*
X10358666Y7072381D01*
X10120571Y7167620D02*
X10120571Y8167620D01*
X10120571Y7691429D02*
X9549142Y7691429D01*
X9549142Y7167620D02*
X9549142Y8167620D01*
X9120571Y7453334D02*
X8644380Y7453334D01*
X9215809Y7167620D02*
X8882476Y8167620D01*
X8549142Y7167620D01*
X7692000Y8120000D02*
X7787238Y8167620D01*
X7930095Y8167620D01*
X8072952Y8120000D01*
X8168190Y8024762D01*
X8215809Y7929524D01*
X8263428Y7739048D01*
X8263428Y7596191D01*
X8215809Y7405715D01*
X8168190Y7310477D01*
X8072952Y7215239D01*
X7930095Y7167620D01*
X7834857Y7167620D01*
X7692000Y7215239D01*
X7644380Y7262858D01*
X7644380Y7596191D01*
X7834857Y7596191D01*
X7263428Y7453334D02*
X6787238Y7453334D01*
X7358666Y7167620D02*
X7025333Y8167620D01*
X6692000Y7167620D01*
X-7308000Y7834286D02*
X-7688953Y7834286D01*
X-7450858Y8167620D02*
X-7450858Y7310477D01*
X-7498477Y7215239D01*
X-7593715Y7167620D01*
X-7688953Y7167620D01*
X-8022286Y7167620D02*
X-8022286Y7834286D01*
X-8022286Y7643810D02*
X-8069905Y7739048D01*
X-8117524Y7786667D01*
X-8212762Y7834286D01*
X-8308000Y7834286D01*
X-9069905Y7167620D02*
X-9069905Y7691429D01*
X-9022286Y7786667D01*
X-8927048Y7834286D01*
X-8736572Y7834286D01*
X-8641334Y7786667D01*
X-9069905Y7215239D02*
X-8974667Y7167620D01*
X-8736572Y7167620D01*
X-8641334Y7215239D01*
X-8593715Y7310477D01*
X-8593715Y7405715D01*
X-8641334Y7500953D01*
X-8736572Y7548572D01*
X-8974667Y7548572D01*
X-9069905Y7596191D01*
X-9546096Y7834286D02*
X-9546096Y7167620D01*
X-9546096Y7739048D02*
X-9593715Y7786667D01*
X-9688953Y7834286D01*
X-9831810Y7834286D01*
X-9927048Y7786667D01*
X-9974667Y7691429D01*
X-9974667Y7167620D01*
X-10403239Y7215239D02*
X-10498477Y7167620D01*
X-10688953Y7167620D01*
X-10784191Y7215239D01*
X-10831810Y7310477D01*
X-10831810Y7358096D01*
X-10784191Y7453334D01*
X-10688953Y7500953D01*
X-10546096Y7500953D01*
X-10450858Y7548572D01*
X-10403239Y7643810D01*
X-10403239Y7691429D01*
X-10450858Y7786667D01*
X-10546096Y7834286D01*
X-10688953Y7834286D01*
X-10784191Y7786667D01*
X-11260381Y7167620D02*
X-11260381Y7834286D01*
X-11260381Y8167620D02*
X-11212762Y8120000D01*
X-11260381Y8072381D01*
X-11308000Y8120000D01*
X-11260381Y8167620D01*
X-11260381Y8072381D01*
X-12165143Y7167620D02*
X-12165143Y7691429D01*
X-12117524Y7786667D01*
X-12022286Y7834286D01*
X-11831810Y7834286D01*
X-11736572Y7786667D01*
X-12165143Y7215239D02*
X-12069905Y7167620D01*
X-11831810Y7167620D01*
X-11736572Y7215239D01*
X-11688953Y7310477D01*
X-11688953Y7405715D01*
X-11736572Y7500953D01*
X-11831810Y7548572D01*
X-12069905Y7548572D01*
X-12165143Y7596191D01*
X-12641334Y7834286D02*
X-12641334Y7167620D01*
X-12641334Y7739048D02*
X-12688953Y7786667D01*
X-12784191Y7834286D01*
X-12927048Y7834286D01*
X-13022286Y7786667D01*
X-13069905Y7691429D01*
X-13069905Y7167620D01*
X-13403239Y7834286D02*
X-13784191Y7834286D01*
X-13546096Y8167620D02*
X-13546096Y7310477D01*
X-13593715Y7215239D01*
X-13688953Y7167620D01*
X-13784191Y7167620D01*
X-13879429Y7072381D02*
X-14641334Y7072381D01*
X-14879429Y7167620D02*
X-14879429Y8167620D01*
X-14879429Y7691429D02*
X-15450858Y7691429D01*
X-15450858Y7167620D02*
X-15450858Y8167620D01*
X-15879429Y7453334D02*
X-16355620Y7453334D01*
X-15784191Y7167620D02*
X-16117524Y8167620D01*
X-16450858Y7167620D01*
X-17308000Y8120000D02*
X-17212762Y8167620D01*
X-17069905Y8167620D01*
X-16927048Y8120000D01*
X-16831810Y8024762D01*
X-16784191Y7929524D01*
X-16736572Y7739048D01*
X-16736572Y7596191D01*
X-16784191Y7405715D01*
X-16831810Y7310477D01*
X-16927048Y7215239D01*
X-17069905Y7167620D01*
X-17165143Y7167620D01*
X-17308000Y7215239D01*
X-17355620Y7262858D01*
X-17355620Y7596191D01*
X-17165143Y7596191D01*
X-17736572Y7453334D02*
X-18212762Y7453334D01*
X-17641334Y7167620D02*
X-17974667Y8167620D01*
X-18308000Y7167620D01*
X-32308000Y7834286D02*
X-32688953Y7834286D01*
X-32450858Y8167620D02*
X-32450858Y7310477D01*
X-32498477Y7215239D01*
X-32593715Y7167620D01*
X-32688953Y7167620D01*
X-33022286Y7167620D02*
X-33022286Y7834286D01*
X-33022286Y7643810D02*
X-33069905Y7739048D01*
X-33117524Y7786667D01*
X-33212762Y7834286D01*
X-33308000Y7834286D01*
X-34069905Y7167620D02*
X-34069905Y7691429D01*
X-34022286Y7786667D01*
X-33927048Y7834286D01*
X-33736572Y7834286D01*
X-33641334Y7786667D01*
X-34069905Y7215239D02*
X-33974667Y7167620D01*
X-33736572Y7167620D01*
X-33641334Y7215239D01*
X-33593715Y7310477D01*
X-33593715Y7405715D01*
X-33641334Y7500953D01*
X-33736572Y7548572D01*
X-33974667Y7548572D01*
X-34069905Y7596191D01*
X-34546096Y7834286D02*
X-34546096Y7167620D01*
X-34546096Y7739048D02*
X-34593715Y7786667D01*
X-34688953Y7834286D01*
X-34831810Y7834286D01*
X-34927048Y7786667D01*
X-34974667Y7691429D01*
X-34974667Y7167620D01*
X-35403239Y7215239D02*
X-35498477Y7167620D01*
X-35688953Y7167620D01*
X-35784191Y7215239D01*
X-35831810Y7310477D01*
X-35831810Y7358096D01*
X-35784191Y7453334D01*
X-35688953Y7500953D01*
X-35546096Y7500953D01*
X-35450858Y7548572D01*
X-35403239Y7643810D01*
X-35403239Y7691429D01*
X-35450858Y7786667D01*
X-35546096Y7834286D01*
X-35688953Y7834286D01*
X-35784191Y7786667D01*
X-36260381Y7167620D02*
X-36260381Y7834286D01*
X-36260381Y8167620D02*
X-36212762Y8120000D01*
X-36260381Y8072381D01*
X-36308000Y8120000D01*
X-36260381Y8167620D01*
X-36260381Y8072381D01*
X-37165143Y7167620D02*
X-37165143Y7691429D01*
X-37117524Y7786667D01*
X-37022286Y7834286D01*
X-36831810Y7834286D01*
X-36736572Y7786667D01*
X-37165143Y7215239D02*
X-37069905Y7167620D01*
X-36831810Y7167620D01*
X-36736572Y7215239D01*
X-36688953Y7310477D01*
X-36688953Y7405715D01*
X-36736572Y7500953D01*
X-36831810Y7548572D01*
X-37069905Y7548572D01*
X-37165143Y7596191D01*
X-37641334Y7834286D02*
X-37641334Y7167620D01*
X-37641334Y7739048D02*
X-37688953Y7786667D01*
X-37784191Y7834286D01*
X-37927048Y7834286D01*
X-38022286Y7786667D01*
X-38069905Y7691429D01*
X-38069905Y7167620D01*
X-38403239Y7834286D02*
X-38784191Y7834286D01*
X-38546096Y8167620D02*
X-38546096Y7310477D01*
X-38593715Y7215239D01*
X-38688953Y7167620D01*
X-38784191Y7167620D01*
X-38879429Y7072381D02*
X-39641334Y7072381D01*
X-39879429Y7167620D02*
X-39879429Y8167620D01*
X-39879429Y7691429D02*
X-40450858Y7691429D01*
X-40450858Y7167620D02*
X-40450858Y8167620D01*
X-40879429Y7453334D02*
X-41355620Y7453334D01*
X-40784191Y7167620D02*
X-41117524Y8167620D01*
X-41450858Y7167620D01*
X-42308000Y8120000D02*
X-42212762Y8167620D01*
X-42069905Y8167620D01*
X-41927048Y8120000D01*
X-41831810Y8024762D01*
X-41784191Y7929524D01*
X-41736572Y7739048D01*
X-41736572Y7596191D01*
X-41784191Y7405715D01*
X-41831810Y7310477D01*
X-41927048Y7215239D01*
X-42069905Y7167620D01*
X-42165143Y7167620D01*
X-42308000Y7215239D01*
X-42355620Y7262858D01*
X-42355620Y7596191D01*
X-42165143Y7596191D01*
X-42736572Y7453334D02*
X-43212762Y7453334D01*
X-42641334Y7167620D02*
X-42974667Y8167620D01*
X-43308000Y7167620D01*
X42692000Y32834286D02*
X42311047Y32834286D01*
X42549142Y33167620D02*
X42549142Y32310477D01*
X42501523Y32215239D01*
X42406285Y32167620D01*
X42311047Y32167620D01*
X41977714Y32167620D02*
X41977714Y32834286D01*
X41977714Y32643810D02*
X41930095Y32739048D01*
X41882476Y32786667D01*
X41787238Y32834286D01*
X41692000Y32834286D01*
X40930095Y32167620D02*
X40930095Y32691429D01*
X40977714Y32786667D01*
X41072952Y32834286D01*
X41263428Y32834286D01*
X41358666Y32786667D01*
X40930095Y32215239D02*
X41025333Y32167620D01*
X41263428Y32167620D01*
X41358666Y32215239D01*
X41406285Y32310477D01*
X41406285Y32405715D01*
X41358666Y32500953D01*
X41263428Y32548572D01*
X41025333Y32548572D01*
X40930095Y32596191D01*
X40453904Y32834286D02*
X40453904Y32167620D01*
X40453904Y32739048D02*
X40406285Y32786667D01*
X40311047Y32834286D01*
X40168190Y32834286D01*
X40072952Y32786667D01*
X40025333Y32691429D01*
X40025333Y32167620D01*
X39596761Y32215239D02*
X39501523Y32167620D01*
X39311047Y32167620D01*
X39215809Y32215239D01*
X39168190Y32310477D01*
X39168190Y32358096D01*
X39215809Y32453334D01*
X39311047Y32500953D01*
X39453904Y32500953D01*
X39549142Y32548572D01*
X39596761Y32643810D01*
X39596761Y32691429D01*
X39549142Y32786667D01*
X39453904Y32834286D01*
X39311047Y32834286D01*
X39215809Y32786667D01*
X38739619Y32167620D02*
X38739619Y32834286D01*
X38739619Y33167620D02*
X38787238Y33120000D01*
X38739619Y33072381D01*
X38692000Y33120000D01*
X38739619Y33167620D01*
X38739619Y33072381D01*
X37834857Y32167620D02*
X37834857Y32691429D01*
X37882476Y32786667D01*
X37977714Y32834286D01*
X38168190Y32834286D01*
X38263428Y32786667D01*
X37834857Y32215239D02*
X37930095Y32167620D01*
X38168190Y32167620D01*
X38263428Y32215239D01*
X38311047Y32310477D01*
X38311047Y32405715D01*
X38263428Y32500953D01*
X38168190Y32548572D01*
X37930095Y32548572D01*
X37834857Y32596191D01*
X37358666Y32834286D02*
X37358666Y32167620D01*
X37358666Y32739048D02*
X37311047Y32786667D01*
X37215809Y32834286D01*
X37072952Y32834286D01*
X36977714Y32786667D01*
X36930095Y32691429D01*
X36930095Y32167620D01*
X36596761Y32834286D02*
X36215809Y32834286D01*
X36453904Y33167620D02*
X36453904Y32310477D01*
X36406285Y32215239D01*
X36311047Y32167620D01*
X36215809Y32167620D01*
X36120571Y32072381D02*
X35358666Y32072381D01*
X35120571Y32167620D02*
X35120571Y33167620D01*
X35120571Y32691429D02*
X34549142Y32691429D01*
X34549142Y32167620D02*
X34549142Y33167620D01*
X34120571Y32453334D02*
X33644380Y32453334D01*
X34215809Y32167620D02*
X33882476Y33167620D01*
X33549142Y32167620D01*
X32692000Y33120000D02*
X32787238Y33167620D01*
X32930095Y33167620D01*
X33072952Y33120000D01*
X33168190Y33024762D01*
X33215809Y32929524D01*
X33263428Y32739048D01*
X33263428Y32596191D01*
X33215809Y32405715D01*
X33168190Y32310477D01*
X33072952Y32215239D01*
X32930095Y32167620D01*
X32834857Y32167620D01*
X32692000Y32215239D01*
X32644380Y32262858D01*
X32644380Y32596191D01*
X32834857Y32596191D01*
X32263428Y32453334D02*
X31787238Y32453334D01*
X32358666Y32167620D02*
X32025333Y33167620D01*
X31692000Y32167620D01*
X17692000Y32834286D02*
X17311047Y32834286D01*
X17549142Y33167620D02*
X17549142Y32310477D01*
X17501523Y32215239D01*
X17406285Y32167620D01*
X17311047Y32167620D01*
X16977714Y32167620D02*
X16977714Y32834286D01*
X16977714Y32643810D02*
X16930095Y32739048D01*
X16882476Y32786667D01*
X16787238Y32834286D01*
X16692000Y32834286D01*
X15930095Y32167620D02*
X15930095Y32691429D01*
X15977714Y32786667D01*
X16072952Y32834286D01*
X16263428Y32834286D01*
X16358666Y32786667D01*
X15930095Y32215239D02*
X16025333Y32167620D01*
X16263428Y32167620D01*
X16358666Y32215239D01*
X16406285Y32310477D01*
X16406285Y32405715D01*
X16358666Y32500953D01*
X16263428Y32548572D01*
X16025333Y32548572D01*
X15930095Y32596191D01*
X15453904Y32834286D02*
X15453904Y32167620D01*
X15453904Y32739048D02*
X15406285Y32786667D01*
X15311047Y32834286D01*
X15168190Y32834286D01*
X15072952Y32786667D01*
X15025333Y32691429D01*
X15025333Y32167620D01*
X14596761Y32215239D02*
X14501523Y32167620D01*
X14311047Y32167620D01*
X14215809Y32215239D01*
X14168190Y32310477D01*
X14168190Y32358096D01*
X14215809Y32453334D01*
X14311047Y32500953D01*
X14453904Y32500953D01*
X14549142Y32548572D01*
X14596761Y32643810D01*
X14596761Y32691429D01*
X14549142Y32786667D01*
X14453904Y32834286D01*
X14311047Y32834286D01*
X14215809Y32786667D01*
X13739619Y32167620D02*
X13739619Y32834286D01*
X13739619Y33167620D02*
X13787238Y33120000D01*
X13739619Y33072381D01*
X13692000Y33120000D01*
X13739619Y33167620D01*
X13739619Y33072381D01*
X12834857Y32167620D02*
X12834857Y32691429D01*
X12882476Y32786667D01*
X12977714Y32834286D01*
X13168190Y32834286D01*
X13263428Y32786667D01*
X12834857Y32215239D02*
X12930095Y32167620D01*
X13168190Y32167620D01*
X13263428Y32215239D01*
X13311047Y32310477D01*
X13311047Y32405715D01*
X13263428Y32500953D01*
X13168190Y32548572D01*
X12930095Y32548572D01*
X12834857Y32596191D01*
X12358666Y32834286D02*
X12358666Y32167620D01*
X12358666Y32739048D02*
X12311047Y32786667D01*
X12215809Y32834286D01*
X12072952Y32834286D01*
X11977714Y32786667D01*
X11930095Y32691429D01*
X11930095Y32167620D01*
X11596761Y32834286D02*
X11215809Y32834286D01*
X11453904Y33167620D02*
X11453904Y32310477D01*
X11406285Y32215239D01*
X11311047Y32167620D01*
X11215809Y32167620D01*
X11120571Y32072381D02*
X10358666Y32072381D01*
X10120571Y32167620D02*
X10120571Y33167620D01*
X10120571Y32691429D02*
X9549142Y32691429D01*
X9549142Y32167620D02*
X9549142Y33167620D01*
X9120571Y32453334D02*
X8644380Y32453334D01*
X9215809Y32167620D02*
X8882476Y33167620D01*
X8549142Y32167620D01*
X7692000Y33120000D02*
X7787238Y33167620D01*
X7930095Y33167620D01*
X8072952Y33120000D01*
X8168190Y33024762D01*
X8215809Y32929524D01*
X8263428Y32739048D01*
X8263428Y32596191D01*
X8215809Y32405715D01*
X8168190Y32310477D01*
X8072952Y32215239D01*
X7930095Y32167620D01*
X7834857Y32167620D01*
X7692000Y32215239D01*
X7644380Y32262858D01*
X7644380Y32596191D01*
X7834857Y32596191D01*
X7263428Y32453334D02*
X6787238Y32453334D01*
X7358666Y32167620D02*
X7025333Y33167620D01*
X6692000Y32167620D01*
X-7308000Y32834286D02*
X-7688953Y32834286D01*
X-7450858Y33167620D02*
X-7450858Y32310477D01*
X-7498477Y32215239D01*
X-7593715Y32167620D01*
X-7688953Y32167620D01*
X-8022286Y32167620D02*
X-8022286Y32834286D01*
X-8022286Y32643810D02*
X-8069905Y32739048D01*
X-8117524Y32786667D01*
X-8212762Y32834286D01*
X-8308000Y32834286D01*
X-9069905Y32167620D02*
X-9069905Y32691429D01*
X-9022286Y32786667D01*
X-8927048Y32834286D01*
X-8736572Y32834286D01*
X-8641334Y32786667D01*
X-9069905Y32215239D02*
X-8974667Y32167620D01*
X-8736572Y32167620D01*
X-8641334Y32215239D01*
X-8593715Y32310477D01*
X-8593715Y32405715D01*
X-8641334Y32500953D01*
X-8736572Y32548572D01*
X-8974667Y32548572D01*
X-9069905Y32596191D01*
X-9546096Y32834286D02*
X-9546096Y32167620D01*
X-9546096Y32739048D02*
X-9593715Y32786667D01*
X-9688953Y32834286D01*
X-9831810Y32834286D01*
X-9927048Y32786667D01*
X-9974667Y32691429D01*
X-9974667Y32167620D01*
X-10403239Y32215239D02*
X-10498477Y32167620D01*
X-10688953Y32167620D01*
X-10784191Y32215239D01*
X-10831810Y32310477D01*
X-10831810Y32358096D01*
X-10784191Y32453334D01*
X-10688953Y32500953D01*
X-10546096Y32500953D01*
X-10450858Y32548572D01*
X-10403239Y32643810D01*
X-10403239Y32691429D01*
X-10450858Y32786667D01*
X-10546096Y32834286D01*
X-10688953Y32834286D01*
X-10784191Y32786667D01*
X-11260381Y32167620D02*
X-11260381Y32834286D01*
X-11260381Y33167620D02*
X-11212762Y33120000D01*
X-11260381Y33072381D01*
X-11308000Y33120000D01*
X-11260381Y33167620D01*
X-11260381Y33072381D01*
X-12165143Y32167620D02*
X-12165143Y32691429D01*
X-12117524Y32786667D01*
X-12022286Y32834286D01*
X-11831810Y32834286D01*
X-11736572Y32786667D01*
X-12165143Y32215239D02*
X-12069905Y32167620D01*
X-11831810Y32167620D01*
X-11736572Y32215239D01*
X-11688953Y32310477D01*
X-11688953Y32405715D01*
X-11736572Y32500953D01*
X-11831810Y32548572D01*
X-12069905Y32548572D01*
X-12165143Y32596191D01*
X-12641334Y32834286D02*
X-12641334Y32167620D01*
X-12641334Y32739048D02*
X-12688953Y32786667D01*
X-12784191Y32834286D01*
X-12927048Y32834286D01*
X-13022286Y32786667D01*
X-13069905Y32691429D01*
X-13069905Y32167620D01*
X-13403239Y32834286D02*
X-13784191Y32834286D01*
X-13546096Y33167620D02*
X-13546096Y32310477D01*
X-13593715Y32215239D01*
X-13688953Y32167620D01*
X-13784191Y32167620D01*
X-13879429Y32072381D02*
X-14641334Y32072381D01*
X-14879429Y32167620D02*
X-14879429Y33167620D01*
X-14879429Y32691429D02*
X-15450858Y32691429D01*
X-15450858Y32167620D02*
X-15450858Y33167620D01*
X-15879429Y32453334D02*
X-16355620Y32453334D01*
X-15784191Y32167620D02*
X-16117524Y33167620D01*
X-16450858Y32167620D01*
X-17308000Y33120000D02*
X-17212762Y33167620D01*
X-17069905Y33167620D01*
X-16927048Y33120000D01*
X-16831810Y33024762D01*
X-16784191Y32929524D01*
X-16736572Y32739048D01*
X-16736572Y32596191D01*
X-16784191Y32405715D01*
X-16831810Y32310477D01*
X-16927048Y32215239D01*
X-17069905Y32167620D01*
X-17165143Y32167620D01*
X-17308000Y32215239D01*
X-17355620Y32262858D01*
X-17355620Y32596191D01*
X-17165143Y32596191D01*
X-17736572Y32453334D02*
X-18212762Y32453334D01*
X-17641334Y32167620D02*
X-17974667Y33167620D01*
X-18308000Y32167620D01*
X-32308000Y32834286D02*
X-32688953Y32834286D01*
X-32450858Y33167620D02*
X-32450858Y32310477D01*
X-32498477Y32215239D01*
X-32593715Y32167620D01*
X-32688953Y32167620D01*
X-33022286Y32167620D02*
X-33022286Y32834286D01*
X-33022286Y32643810D02*
X-33069905Y32739048D01*
X-33117524Y32786667D01*
X-33212762Y32834286D01*
X-33308000Y32834286D01*
X-34069905Y32167620D02*
X-34069905Y32691429D01*
X-34022286Y32786667D01*
X-33927048Y32834286D01*
X-33736572Y32834286D01*
X-33641334Y32786667D01*
X-34069905Y32215239D02*
X-33974667Y32167620D01*
X-33736572Y32167620D01*
X-33641334Y32215239D01*
X-33593715Y32310477D01*
X-33593715Y32405715D01*
X-33641334Y32500953D01*
X-33736572Y32548572D01*
X-33974667Y32548572D01*
X-34069905Y32596191D01*
X-34546096Y32834286D02*
X-34546096Y32167620D01*
X-34546096Y32739048D02*
X-34593715Y32786667D01*
X-34688953Y32834286D01*
X-34831810Y32834286D01*
X-34927048Y32786667D01*
X-34974667Y32691429D01*
X-34974667Y32167620D01*
X-35403239Y32215239D02*
X-35498477Y32167620D01*
X-35688953Y32167620D01*
X-35784191Y32215239D01*
X-35831810Y32310477D01*
X-35831810Y32358096D01*
X-35784191Y32453334D01*
X-35688953Y32500953D01*
X-35546096Y32500953D01*
X-35450858Y32548572D01*
X-35403239Y32643810D01*
X-35403239Y32691429D01*
X-35450858Y32786667D01*
X-35546096Y32834286D01*
X-35688953Y32834286D01*
X-35784191Y32786667D01*
X-36260381Y32167620D02*
X-36260381Y32834286D01*
X-36260381Y33167620D02*
X-36212762Y33120000D01*
X-36260381Y33072381D01*
X-36308000Y33120000D01*
X-36260381Y33167620D01*
X-36260381Y33072381D01*
X-37165143Y32167620D02*
X-37165143Y32691429D01*
X-37117524Y32786667D01*
X-37022286Y32834286D01*
X-36831810Y32834286D01*
X-36736572Y32786667D01*
X-37165143Y32215239D02*
X-37069905Y32167620D01*
X-36831810Y32167620D01*
X-36736572Y32215239D01*
X-36688953Y32310477D01*
X-36688953Y32405715D01*
X-36736572Y32500953D01*
X-36831810Y32548572D01*
X-37069905Y32548572D01*
X-37165143Y32596191D01*
X-37641334Y32834286D02*
X-37641334Y32167620D01*
X-37641334Y32739048D02*
X-37688953Y32786667D01*
X-37784191Y32834286D01*
X-37927048Y32834286D01*
X-38022286Y32786667D01*
X-38069905Y32691429D01*
X-38069905Y32167620D01*
X-38403239Y32834286D02*
X-38784191Y32834286D01*
X-38546096Y33167620D02*
X-38546096Y32310477D01*
X-38593715Y32215239D01*
X-38688953Y32167620D01*
X-38784191Y32167620D01*
X-38879429Y32072381D02*
X-39641334Y32072381D01*
X-39879429Y32167620D02*
X-39879429Y33167620D01*
X-39879429Y32691429D02*
X-40450858Y32691429D01*
X-40450858Y32167620D02*
X-40450858Y33167620D01*
X-40879429Y32453334D02*
X-41355620Y32453334D01*
X-40784191Y32167620D02*
X-41117524Y33167620D01*
X-41450858Y32167620D01*
X-42308000Y33120000D02*
X-42212762Y33167620D01*
X-42069905Y33167620D01*
X-41927048Y33120000D01*
X-41831810Y33024762D01*
X-41784191Y32929524D01*
X-41736572Y32739048D01*
X-41736572Y32596191D01*
X-41784191Y32405715D01*
X-41831810Y32310477D01*
X-41927048Y32215239D01*
X-42069905Y32167620D01*
X-42165143Y32167620D01*
X-42308000Y32215239D01*
X-42355620Y32262858D01*
X-42355620Y32596191D01*
X-42165143Y32596191D01*
X-42736572Y32453334D02*
X-43212762Y32453334D01*
X-42641334Y32167620D02*
X-42974667Y33167620D01*
X-43308000Y32167620D01*
X42692000Y57834286D02*
X42311047Y57834286D01*
X42549142Y58167620D02*
X42549142Y57310477D01*
X42501523Y57215239D01*
X42406285Y57167620D01*
X42311047Y57167620D01*
X41977714Y57167620D02*
X41977714Y57834286D01*
X41977714Y57643810D02*
X41930095Y57739048D01*
X41882476Y57786667D01*
X41787238Y57834286D01*
X41692000Y57834286D01*
X40930095Y57167620D02*
X40930095Y57691429D01*
X40977714Y57786667D01*
X41072952Y57834286D01*
X41263428Y57834286D01*
X41358666Y57786667D01*
X40930095Y57215239D02*
X41025333Y57167620D01*
X41263428Y57167620D01*
X41358666Y57215239D01*
X41406285Y57310477D01*
X41406285Y57405715D01*
X41358666Y57500953D01*
X41263428Y57548572D01*
X41025333Y57548572D01*
X40930095Y57596191D01*
X40453904Y57834286D02*
X40453904Y57167620D01*
X40453904Y57739048D02*
X40406285Y57786667D01*
X40311047Y57834286D01*
X40168190Y57834286D01*
X40072952Y57786667D01*
X40025333Y57691429D01*
X40025333Y57167620D01*
X39596761Y57215239D02*
X39501523Y57167620D01*
X39311047Y57167620D01*
X39215809Y57215239D01*
X39168190Y57310477D01*
X39168190Y57358096D01*
X39215809Y57453334D01*
X39311047Y57500953D01*
X39453904Y57500953D01*
X39549142Y57548572D01*
X39596761Y57643810D01*
X39596761Y57691429D01*
X39549142Y57786667D01*
X39453904Y57834286D01*
X39311047Y57834286D01*
X39215809Y57786667D01*
X38739619Y57167620D02*
X38739619Y57834286D01*
X38739619Y58167620D02*
X38787238Y58120000D01*
X38739619Y58072381D01*
X38692000Y58120000D01*
X38739619Y58167620D01*
X38739619Y58072381D01*
X37834857Y57167620D02*
X37834857Y57691429D01*
X37882476Y57786667D01*
X37977714Y57834286D01*
X38168190Y57834286D01*
X38263428Y57786667D01*
X37834857Y57215239D02*
X37930095Y57167620D01*
X38168190Y57167620D01*
X38263428Y57215239D01*
X38311047Y57310477D01*
X38311047Y57405715D01*
X38263428Y57500953D01*
X38168190Y57548572D01*
X37930095Y57548572D01*
X37834857Y57596191D01*
X37358666Y57834286D02*
X37358666Y57167620D01*
X37358666Y57739048D02*
X37311047Y57786667D01*
X37215809Y57834286D01*
X37072952Y57834286D01*
X36977714Y57786667D01*
X36930095Y57691429D01*
X36930095Y57167620D01*
X36596761Y57834286D02*
X36215809Y57834286D01*
X36453904Y58167620D02*
X36453904Y57310477D01*
X36406285Y57215239D01*
X36311047Y57167620D01*
X36215809Y57167620D01*
X36120571Y57072381D02*
X35358666Y57072381D01*
X35120571Y57167620D02*
X35120571Y58167620D01*
X35120571Y57691429D02*
X34549142Y57691429D01*
X34549142Y57167620D02*
X34549142Y58167620D01*
X34120571Y57453334D02*
X33644380Y57453334D01*
X34215809Y57167620D02*
X33882476Y58167620D01*
X33549142Y57167620D01*
X32692000Y58120000D02*
X32787238Y58167620D01*
X32930095Y58167620D01*
X33072952Y58120000D01*
X33168190Y58024762D01*
X33215809Y57929524D01*
X33263428Y57739048D01*
X33263428Y57596191D01*
X33215809Y57405715D01*
X33168190Y57310477D01*
X33072952Y57215239D01*
X32930095Y57167620D01*
X32834857Y57167620D01*
X32692000Y57215239D01*
X32644380Y57262858D01*
X32644380Y57596191D01*
X32834857Y57596191D01*
X32263428Y57453334D02*
X31787238Y57453334D01*
X32358666Y57167620D02*
X32025333Y58167620D01*
X31692000Y57167620D01*
X17692000Y57834286D02*
X17311047Y57834286D01*
X17549142Y58167620D02*
X17549142Y57310477D01*
X17501523Y57215239D01*
X17406285Y57167620D01*
X17311047Y57167620D01*
X16977714Y57167620D02*
X16977714Y57834286D01*
X16977714Y57643810D02*
X16930095Y57739048D01*
X16882476Y57786667D01*
X16787238Y57834286D01*
X16692000Y57834286D01*
X15930095Y57167620D02*
X15930095Y57691429D01*
X15977714Y57786667D01*
X16072952Y57834286D01*
X16263428Y57834286D01*
X16358666Y57786667D01*
X15930095Y57215239D02*
X16025333Y57167620D01*
X16263428Y57167620D01*
X16358666Y57215239D01*
X16406285Y57310477D01*
X16406285Y57405715D01*
X16358666Y57500953D01*
X16263428Y57548572D01*
X16025333Y57548572D01*
X15930095Y57596191D01*
X15453904Y57834286D02*
X15453904Y57167620D01*
X15453904Y57739048D02*
X15406285Y57786667D01*
X15311047Y57834286D01*
X15168190Y57834286D01*
X15072952Y57786667D01*
X15025333Y57691429D01*
X15025333Y57167620D01*
X14596761Y57215239D02*
X14501523Y57167620D01*
X14311047Y57167620D01*
X14215809Y57215239D01*
X14168190Y57310477D01*
X14168190Y57358096D01*
X14215809Y57453334D01*
X14311047Y57500953D01*
X14453904Y57500953D01*
X14549142Y57548572D01*
X14596761Y57643810D01*
X14596761Y57691429D01*
X14549142Y57786667D01*
X14453904Y57834286D01*
X14311047Y57834286D01*
X14215809Y57786667D01*
X13739619Y57167620D02*
X13739619Y57834286D01*
X13739619Y58167620D02*
X13787238Y58120000D01*
X13739619Y58072381D01*
X13692000Y58120000D01*
X13739619Y58167620D01*
X13739619Y58072381D01*
X12834857Y57167620D02*
X12834857Y57691429D01*
X12882476Y57786667D01*
X12977714Y57834286D01*
X13168190Y57834286D01*
X13263428Y57786667D01*
X12834857Y57215239D02*
X12930095Y57167620D01*
X13168190Y57167620D01*
X13263428Y57215239D01*
X13311047Y57310477D01*
X13311047Y57405715D01*
X13263428Y57500953D01*
X13168190Y57548572D01*
X12930095Y57548572D01*
X12834857Y57596191D01*
X12358666Y57834286D02*
X12358666Y57167620D01*
X12358666Y57739048D02*
X12311047Y57786667D01*
X12215809Y57834286D01*
X12072952Y57834286D01*
X11977714Y57786667D01*
X11930095Y57691429D01*
X11930095Y57167620D01*
X11596761Y57834286D02*
X11215809Y57834286D01*
X11453904Y58167620D02*
X11453904Y57310477D01*
X11406285Y57215239D01*
X11311047Y57167620D01*
X11215809Y57167620D01*
X11120571Y57072381D02*
X10358666Y57072381D01*
X10120571Y57167620D02*
X10120571Y58167620D01*
X10120571Y57691429D02*
X9549142Y57691429D01*
X9549142Y57167620D02*
X9549142Y58167620D01*
X9120571Y57453334D02*
X8644380Y57453334D01*
X9215809Y57167620D02*
X8882476Y58167620D01*
X8549142Y57167620D01*
X7692000Y58120000D02*
X7787238Y58167620D01*
X7930095Y58167620D01*
X8072952Y58120000D01*
X8168190Y58024762D01*
X8215809Y57929524D01*
X8263428Y57739048D01*
X8263428Y57596191D01*
X8215809Y57405715D01*
X8168190Y57310477D01*
X8072952Y57215239D01*
X7930095Y57167620D01*
X7834857Y57167620D01*
X7692000Y57215239D01*
X7644380Y57262858D01*
X7644380Y57596191D01*
X7834857Y57596191D01*
X7263428Y57453334D02*
X6787238Y57453334D01*
X7358666Y57167620D02*
X7025333Y58167620D01*
X6692000Y57167620D01*
X-7308000Y57834286D02*
X-7688953Y57834286D01*
X-7450858Y58167620D02*
X-7450858Y57310477D01*
X-7498477Y57215239D01*
X-7593715Y57167620D01*
X-7688953Y57167620D01*
X-8022286Y57167620D02*
X-8022286Y57834286D01*
X-8022286Y57643810D02*
X-8069905Y57739048D01*
X-8117524Y57786667D01*
X-8212762Y57834286D01*
X-8308000Y57834286D01*
X-9069905Y57167620D02*
X-9069905Y57691429D01*
X-9022286Y57786667D01*
X-8927048Y57834286D01*
X-8736572Y57834286D01*
X-8641334Y57786667D01*
X-9069905Y57215239D02*
X-8974667Y57167620D01*
X-8736572Y57167620D01*
X-8641334Y57215239D01*
X-8593715Y57310477D01*
X-8593715Y57405715D01*
X-8641334Y57500953D01*
X-8736572Y57548572D01*
X-8974667Y57548572D01*
X-9069905Y57596191D01*
X-9546096Y57834286D02*
X-9546096Y57167620D01*
X-9546096Y57739048D02*
X-9593715Y57786667D01*
X-9688953Y57834286D01*
X-9831810Y57834286D01*
X-9927048Y57786667D01*
X-9974667Y57691429D01*
X-9974667Y57167620D01*
X-10403239Y57215239D02*
X-10498477Y57167620D01*
X-10688953Y57167620D01*
X-10784191Y57215239D01*
X-10831810Y57310477D01*
X-10831810Y57358096D01*
X-10784191Y57453334D01*
X-10688953Y57500953D01*
X-10546096Y57500953D01*
X-10450858Y57548572D01*
X-10403239Y57643810D01*
X-10403239Y57691429D01*
X-10450858Y57786667D01*
X-10546096Y57834286D01*
X-10688953Y57834286D01*
X-10784191Y57786667D01*
X-11260381Y57167620D02*
X-11260381Y57834286D01*
X-11260381Y58167620D02*
X-11212762Y58120000D01*
X-11260381Y58072381D01*
X-11308000Y58120000D01*
X-11260381Y58167620D01*
X-11260381Y58072381D01*
X-12165143Y57167620D02*
X-12165143Y57691429D01*
X-12117524Y57786667D01*
X-12022286Y57834286D01*
X-11831810Y57834286D01*
X-11736572Y57786667D01*
X-12165143Y57215239D02*
X-12069905Y57167620D01*
X-11831810Y57167620D01*
X-11736572Y57215239D01*
X-11688953Y57310477D01*
X-11688953Y57405715D01*
X-11736572Y57500953D01*
X-11831810Y57548572D01*
X-12069905Y57548572D01*
X-12165143Y57596191D01*
X-12641334Y57834286D02*
X-12641334Y57167620D01*
X-12641334Y57739048D02*
X-12688953Y57786667D01*
X-12784191Y57834286D01*
X-12927048Y57834286D01*
X-13022286Y57786667D01*
X-13069905Y57691429D01*
X-13069905Y57167620D01*
X-13403239Y57834286D02*
X-13784191Y57834286D01*
X-13546096Y58167620D02*
X-13546096Y57310477D01*
X-13593715Y57215239D01*
X-13688953Y57167620D01*
X-13784191Y57167620D01*
X-13879429Y57072381D02*
X-14641334Y57072381D01*
X-14879429Y57167620D02*
X-14879429Y58167620D01*
X-14879429Y57691429D02*
X-15450858Y57691429D01*
X-15450858Y57167620D02*
X-15450858Y58167620D01*
X-15879429Y57453334D02*
X-16355620Y57453334D01*
X-15784191Y57167620D02*
X-16117524Y58167620D01*
X-16450858Y57167620D01*
X-17308000Y58120000D02*
X-17212762Y58167620D01*
X-17069905Y58167620D01*
X-16927048Y58120000D01*
X-16831810Y58024762D01*
X-16784191Y57929524D01*
X-16736572Y57739048D01*
X-16736572Y57596191D01*
X-16784191Y57405715D01*
X-16831810Y57310477D01*
X-16927048Y57215239D01*
X-17069905Y57167620D01*
X-17165143Y57167620D01*
X-17308000Y57215239D01*
X-17355620Y57262858D01*
X-17355620Y57596191D01*
X-17165143Y57596191D01*
X-17736572Y57453334D02*
X-18212762Y57453334D01*
X-17641334Y57167620D02*
X-17974667Y58167620D01*
X-18308000Y57167620D01*
X-32308000Y57834286D02*
X-32688953Y57834286D01*
X-32450858Y58167620D02*
X-32450858Y57310477D01*
X-32498477Y57215239D01*
X-32593715Y57167620D01*
X-32688953Y57167620D01*
X-33022286Y57167620D02*
X-33022286Y57834286D01*
X-33022286Y57643810D02*
X-33069905Y57739048D01*
X-33117524Y57786667D01*
X-33212762Y57834286D01*
X-33308000Y57834286D01*
X-34069905Y57167620D02*
X-34069905Y57691429D01*
X-34022286Y57786667D01*
X-33927048Y57834286D01*
X-33736572Y57834286D01*
X-33641334Y57786667D01*
X-34069905Y57215239D02*
X-33974667Y57167620D01*
X-33736572Y57167620D01*
X-33641334Y57215239D01*
X-33593715Y57310477D01*
X-33593715Y57405715D01*
X-33641334Y57500953D01*
X-33736572Y57548572D01*
X-33974667Y57548572D01*
X-34069905Y57596191D01*
X-34546096Y57834286D02*
X-34546096Y57167620D01*
X-34546096Y57739048D02*
X-34593715Y57786667D01*
X-34688953Y57834286D01*
X-34831810Y57834286D01*
X-34927048Y57786667D01*
X-34974667Y57691429D01*
X-34974667Y57167620D01*
X-35403239Y57215239D02*
X-35498477Y57167620D01*
X-35688953Y57167620D01*
X-35784191Y57215239D01*
X-35831810Y57310477D01*
X-35831810Y57358096D01*
X-35784191Y57453334D01*
X-35688953Y57500953D01*
X-35546096Y57500953D01*
X-35450858Y57548572D01*
X-35403239Y57643810D01*
X-35403239Y57691429D01*
X-35450858Y57786667D01*
X-35546096Y57834286D01*
X-35688953Y57834286D01*
X-35784191Y57786667D01*
X-36260381Y57167620D02*
X-36260381Y57834286D01*
X-36260381Y58167620D02*
X-36212762Y58120000D01*
X-36260381Y58072381D01*
X-36308000Y58120000D01*
X-36260381Y58167620D01*
X-36260381Y58072381D01*
X-37165143Y57167620D02*
X-37165143Y57691429D01*
X-37117524Y57786667D01*
X-37022286Y57834286D01*
X-36831810Y57834286D01*
X-36736572Y57786667D01*
X-37165143Y57215239D02*
X-37069905Y57167620D01*
X-36831810Y57167620D01*
X-36736572Y57215239D01*
X-36688953Y57310477D01*
X-36688953Y57405715D01*
X-36736572Y57500953D01*
X-36831810Y57548572D01*
X-37069905Y57548572D01*
X-37165143Y57596191D01*
X-37641334Y57834286D02*
X-37641334Y57167620D01*
X-37641334Y57739048D02*
X-37688953Y57786667D01*
X-37784191Y57834286D01*
X-37927048Y57834286D01*
X-38022286Y57786667D01*
X-38069905Y57691429D01*
X-38069905Y57167620D01*
X-38403239Y57834286D02*
X-38784191Y57834286D01*
X-38546096Y58167620D02*
X-38546096Y57310477D01*
X-38593715Y57215239D01*
X-38688953Y57167620D01*
X-38784191Y57167620D01*
X-38879429Y57072381D02*
X-39641334Y57072381D01*
X-39879429Y57167620D02*
X-39879429Y58167620D01*
X-39879429Y57691429D02*
X-40450858Y57691429D01*
X-40450858Y57167620D02*
X-40450858Y58167620D01*
X-40879429Y57453334D02*
X-41355620Y57453334D01*
X-40784191Y57167620D02*
X-41117524Y58167620D01*
X-41450858Y57167620D01*
X-42308000Y58120000D02*
X-42212762Y58167620D01*
X-42069905Y58167620D01*
X-41927048Y58120000D01*
X-41831810Y58024762D01*
X-41784191Y57929524D01*
X-41736572Y57739048D01*
X-41736572Y57596191D01*
X-41784191Y57405715D01*
X-41831810Y57310477D01*
X-41927048Y57215239D01*
X-42069905Y57167620D01*
X-42165143Y57167620D01*
X-42308000Y57215239D01*
X-42355620Y57262858D01*
X-42355620Y57596191D01*
X-42165143Y57596191D01*
X-42736572Y57453334D02*
X-43212762Y57453334D01*
X-42641334Y57167620D02*
X-42974667Y58167620D01*
X-43308000Y57167620D01*
M02*
