G04 #@! TF.GenerationSoftware,KiCad,Pcbnew,(6.0.6)*
G04 #@! TF.CreationDate,2022-08-12T14:57:56+09:00*
G04 #@! TF.ProjectId,tutorial1-PNLZ,7475746f-7269-4616-9c31-2d504e4c5a2e,1*
G04 #@! TF.SameCoordinates,PX7bfa480PY7bfa480*
G04 #@! TF.FileFunction,Soldermask,Top*
G04 #@! TF.FilePolarity,Negative*
%FSLAX46Y46*%
G04 Gerber Fmt 4.6, Leading zero omitted, Abs format (unit mm)*
G04 Created by KiCad (PCBNEW (6.0.6)) date 2022-08-12 14:57:56*
%MOMM*%
%LPD*%
G01*
G04 APERTURE LIST*
G04 Aperture macros list*
%AMRoundRect*
0 Rectangle with rounded corners*
0 $1 Rounding radius*
0 $2 $3 $4 $5 $6 $7 $8 $9 X,Y pos of 4 corners*
0 Add a 4 corners polygon primitive as box body*
4,1,4,$2,$3,$4,$5,$6,$7,$8,$9,$2,$3,0*
0 Add four circle primitives for the rounded corners*
1,1,$1+$1,$2,$3*
1,1,$1+$1,$4,$5*
1,1,$1+$1,$6,$7*
1,1,$1+$1,$8,$9*
0 Add four rect primitives between the rounded corners*
20,1,$1+$1,$2,$3,$4,$5,0*
20,1,$1+$1,$4,$5,$6,$7,0*
20,1,$1+$1,$6,$7,$8,$9,0*
20,1,$1+$1,$8,$9,$2,$3,0*%
G04 Aperture macros list end*
%ADD10RoundRect,0.237500X0.300000X0.237500X-0.300000X0.237500X-0.300000X-0.237500X0.300000X-0.237500X0*%
%ADD11C,3.200000*%
%ADD12RoundRect,0.237500X0.250000X0.237500X-0.250000X0.237500X-0.250000X-0.237500X0.250000X-0.237500X0*%
%ADD13RoundRect,0.237500X0.287500X0.237500X-0.287500X0.237500X-0.287500X-0.237500X0.287500X-0.237500X0*%
%ADD14RoundRect,0.150000X0.150000X-0.825000X0.150000X0.825000X-0.150000X0.825000X-0.150000X-0.825000X0*%
%ADD15RoundRect,0.237500X-0.237500X0.250000X-0.237500X-0.250000X0.237500X-0.250000X0.237500X0.250000X0*%
%ADD16O,1.700000X1.700000*%
%ADD17R,1.700000X1.700000*%
%ADD18C,0.605000*%
G04 APERTURE END LIST*
D10*
X33662500Y-18650000D03*
X35387500Y-18650000D03*
D11*
X30000000Y-5000000D03*
D12*
X31072500Y-14840000D03*
X32897500Y-14840000D03*
D13*
X31110000Y-12935000D03*
X32860000Y-12935000D03*
D14*
X36430000Y-11095000D03*
X37700000Y-11095000D03*
X38970000Y-11095000D03*
X40240000Y-11095000D03*
X40240000Y-16045000D03*
X38970000Y-16045000D03*
X37700000Y-16045000D03*
X36430000Y-16045000D03*
D15*
X44050000Y-14482500D03*
X44050000Y-12657500D03*
D16*
X40255000Y-22460000D03*
X37715000Y-22460000D03*
D17*
X35175000Y-22460000D03*
D10*
X8662500Y-18650000D03*
X10387500Y-18650000D03*
D11*
X5000000Y-5000000D03*
D12*
X6072500Y-14840000D03*
X7897500Y-14840000D03*
D13*
X6110000Y-12935000D03*
X7860000Y-12935000D03*
D14*
X11430000Y-11095000D03*
X12700000Y-11095000D03*
X13970000Y-11095000D03*
X15240000Y-11095000D03*
X15240000Y-16045000D03*
X13970000Y-16045000D03*
X12700000Y-16045000D03*
X11430000Y-16045000D03*
D15*
X19050000Y-14482500D03*
X19050000Y-12657500D03*
D16*
X15255000Y-22460000D03*
X12715000Y-22460000D03*
D17*
X10175000Y-22460000D03*
D10*
X-16337500Y-18650000D03*
X-14612500Y-18650000D03*
D11*
X-20000000Y-5000000D03*
D12*
X-18927500Y-14840000D03*
X-17102500Y-14840000D03*
D13*
X-18890000Y-12935000D03*
X-17140000Y-12935000D03*
D14*
X-13570000Y-11095000D03*
X-12300000Y-11095000D03*
X-11030000Y-11095000D03*
X-9760000Y-11095000D03*
X-9760000Y-16045000D03*
X-11030000Y-16045000D03*
X-12300000Y-16045000D03*
X-13570000Y-16045000D03*
D15*
X-5950000Y-14482500D03*
X-5950000Y-12657500D03*
D16*
X-9745000Y-22460000D03*
X-12285000Y-22460000D03*
D17*
X-14825000Y-22460000D03*
D10*
X-41337500Y-18650000D03*
X-39612500Y-18650000D03*
D11*
X-45000000Y-5000000D03*
D12*
X-43927500Y-14840000D03*
X-42102500Y-14840000D03*
D13*
X-43890000Y-12935000D03*
X-42140000Y-12935000D03*
D14*
X-38570000Y-11095000D03*
X-37300000Y-11095000D03*
X-36030000Y-11095000D03*
X-34760000Y-11095000D03*
X-34760000Y-16045000D03*
X-36030000Y-16045000D03*
X-37300000Y-16045000D03*
X-38570000Y-16045000D03*
D15*
X-30950000Y-14482500D03*
X-30950000Y-12657500D03*
D16*
X-34745000Y-22460000D03*
X-37285000Y-22460000D03*
D17*
X-39825000Y-22460000D03*
D10*
X33662500Y6350000D03*
X35387500Y6350000D03*
D11*
X30000000Y20000000D03*
D12*
X31072500Y10160000D03*
X32897500Y10160000D03*
D13*
X31110000Y12065000D03*
X32860000Y12065000D03*
D14*
X36430000Y13905000D03*
X37700000Y13905000D03*
X38970000Y13905000D03*
X40240000Y13905000D03*
X40240000Y8955000D03*
X38970000Y8955000D03*
X37700000Y8955000D03*
X36430000Y8955000D03*
D15*
X44050000Y10517500D03*
X44050000Y12342500D03*
D16*
X40255000Y2540000D03*
X37715000Y2540000D03*
D17*
X35175000Y2540000D03*
D10*
X8662500Y6350000D03*
X10387500Y6350000D03*
D11*
X5000000Y20000000D03*
D12*
X6072500Y10160000D03*
X7897500Y10160000D03*
D13*
X6110000Y12065000D03*
X7860000Y12065000D03*
D14*
X11430000Y13905000D03*
X12700000Y13905000D03*
X13970000Y13905000D03*
X15240000Y13905000D03*
X15240000Y8955000D03*
X13970000Y8955000D03*
X12700000Y8955000D03*
X11430000Y8955000D03*
D15*
X19050000Y10517500D03*
X19050000Y12342500D03*
D16*
X15255000Y2540000D03*
X12715000Y2540000D03*
D17*
X10175000Y2540000D03*
D10*
X-16337500Y6350000D03*
X-14612500Y6350000D03*
D11*
X-20000000Y20000000D03*
D12*
X-18927500Y10160000D03*
X-17102500Y10160000D03*
D13*
X-18890000Y12065000D03*
X-17140000Y12065000D03*
D14*
X-13570000Y13905000D03*
X-12300000Y13905000D03*
X-11030000Y13905000D03*
X-9760000Y13905000D03*
X-9760000Y8955000D03*
X-11030000Y8955000D03*
X-12300000Y8955000D03*
X-13570000Y8955000D03*
D15*
X-5950000Y10517500D03*
X-5950000Y12342500D03*
D16*
X-9745000Y2540000D03*
X-12285000Y2540000D03*
D17*
X-14825000Y2540000D03*
D10*
X-41337500Y6350000D03*
X-39612500Y6350000D03*
D11*
X-45000000Y20000000D03*
D12*
X-43927500Y10160000D03*
X-42102500Y10160000D03*
D13*
X-43890000Y12065000D03*
X-42140000Y12065000D03*
D14*
X-38570000Y13905000D03*
X-37300000Y13905000D03*
X-36030000Y13905000D03*
X-34760000Y13905000D03*
X-34760000Y8955000D03*
X-36030000Y8955000D03*
X-37300000Y8955000D03*
X-38570000Y8955000D03*
D15*
X-30950000Y10517500D03*
X-30950000Y12342500D03*
D16*
X-34745000Y2540000D03*
X-37285000Y2540000D03*
D17*
X-39825000Y2540000D03*
D10*
X33662500Y31350000D03*
X35387500Y31350000D03*
D11*
X30000000Y45000000D03*
D12*
X31072500Y35160000D03*
X32897500Y35160000D03*
D13*
X31110000Y37065000D03*
X32860000Y37065000D03*
D14*
X36430000Y38905000D03*
X37700000Y38905000D03*
X38970000Y38905000D03*
X40240000Y38905000D03*
X40240000Y33955000D03*
X38970000Y33955000D03*
X37700000Y33955000D03*
X36430000Y33955000D03*
D15*
X44050000Y35517500D03*
X44050000Y37342500D03*
D16*
X40255000Y27540000D03*
X37715000Y27540000D03*
D17*
X35175000Y27540000D03*
D10*
X8662500Y31350000D03*
X10387500Y31350000D03*
D11*
X5000000Y45000000D03*
D12*
X6072500Y35160000D03*
X7897500Y35160000D03*
D13*
X6110000Y37065000D03*
X7860000Y37065000D03*
D14*
X11430000Y38905000D03*
X12700000Y38905000D03*
X13970000Y38905000D03*
X15240000Y38905000D03*
X15240000Y33955000D03*
X13970000Y33955000D03*
X12700000Y33955000D03*
X11430000Y33955000D03*
D15*
X19050000Y35517500D03*
X19050000Y37342500D03*
D16*
X15255000Y27540000D03*
X12715000Y27540000D03*
D17*
X10175000Y27540000D03*
D10*
X-16337500Y31350000D03*
X-14612500Y31350000D03*
D11*
X-20000000Y45000000D03*
D12*
X-18927500Y35160000D03*
X-17102500Y35160000D03*
D13*
X-18890000Y37065000D03*
X-17140000Y37065000D03*
D14*
X-13570000Y38905000D03*
X-12300000Y38905000D03*
X-11030000Y38905000D03*
X-9760000Y38905000D03*
X-9760000Y33955000D03*
X-11030000Y33955000D03*
X-12300000Y33955000D03*
X-13570000Y33955000D03*
D15*
X-5950000Y35517500D03*
X-5950000Y37342500D03*
D16*
X-9745000Y27540000D03*
X-12285000Y27540000D03*
D17*
X-14825000Y27540000D03*
D10*
X-41337500Y31350000D03*
X-39612500Y31350000D03*
D11*
X-45000000Y45000000D03*
D12*
X-43927500Y35160000D03*
X-42102500Y35160000D03*
D13*
X-43890000Y37065000D03*
X-42140000Y37065000D03*
D14*
X-38570000Y38905000D03*
X-37300000Y38905000D03*
X-36030000Y38905000D03*
X-34760000Y38905000D03*
X-34760000Y33955000D03*
X-36030000Y33955000D03*
X-37300000Y33955000D03*
X-38570000Y33955000D03*
D15*
X-30950000Y35517500D03*
X-30950000Y37342500D03*
D16*
X-34745000Y27540000D03*
X-37285000Y27540000D03*
D17*
X-39825000Y27540000D03*
D10*
X33662500Y56350000D03*
X35387500Y56350000D03*
D11*
X30000000Y70000000D03*
D12*
X31072500Y60160000D03*
X32897500Y60160000D03*
D13*
X31110000Y62065000D03*
X32860000Y62065000D03*
D14*
X36430000Y63905000D03*
X37700000Y63905000D03*
X38970000Y63905000D03*
X40240000Y63905000D03*
X40240000Y58955000D03*
X38970000Y58955000D03*
X37700000Y58955000D03*
X36430000Y58955000D03*
D15*
X44050000Y60517500D03*
X44050000Y62342500D03*
D16*
X40255000Y52540000D03*
X37715000Y52540000D03*
D17*
X35175000Y52540000D03*
D10*
X8662500Y56350000D03*
X10387500Y56350000D03*
D11*
X5000000Y70000000D03*
D12*
X6072500Y60160000D03*
X7897500Y60160000D03*
D13*
X6110000Y62065000D03*
X7860000Y62065000D03*
D14*
X11430000Y63905000D03*
X12700000Y63905000D03*
X13970000Y63905000D03*
X15240000Y63905000D03*
X15240000Y58955000D03*
X13970000Y58955000D03*
X12700000Y58955000D03*
X11430000Y58955000D03*
D15*
X19050000Y60517500D03*
X19050000Y62342500D03*
D16*
X15255000Y52540000D03*
X12715000Y52540000D03*
D17*
X10175000Y52540000D03*
D10*
X-16337500Y56350000D03*
X-14612500Y56350000D03*
D11*
X-20000000Y70000000D03*
D12*
X-18927500Y60160000D03*
X-17102500Y60160000D03*
D13*
X-18890000Y62065000D03*
X-17140000Y62065000D03*
D14*
X-13570000Y63905000D03*
X-12300000Y63905000D03*
X-11030000Y63905000D03*
X-9760000Y63905000D03*
X-9760000Y58955000D03*
X-11030000Y58955000D03*
X-12300000Y58955000D03*
X-13570000Y58955000D03*
D15*
X-5950000Y60517500D03*
X-5950000Y62342500D03*
D16*
X-9745000Y52540000D03*
X-12285000Y52540000D03*
D17*
X-14825000Y52540000D03*
D12*
X-43927500Y60160000D03*
X-42102500Y60160000D03*
D10*
X-41337500Y56350000D03*
X-39612500Y56350000D03*
D11*
X-45000000Y70000000D03*
D13*
X-43890000Y62065000D03*
X-42140000Y62065000D03*
D16*
X-34745000Y52540000D03*
X-37285000Y52540000D03*
D17*
X-39825000Y52540000D03*
D15*
X-30950000Y60517500D03*
X-30950000Y62342500D03*
D14*
X-38570000Y63905000D03*
X-37300000Y63905000D03*
X-36030000Y63905000D03*
X-34760000Y63905000D03*
X-34760000Y58955000D03*
X-36030000Y58955000D03*
X-37300000Y58955000D03*
X-38570000Y58955000D03*
D18*
X46590000Y-4680000D03*
X28175000Y-21190000D03*
X28175000Y-14205000D03*
X37065000Y-4680000D03*
X46590000Y-11030000D03*
X46590000Y-21190000D03*
X21590000Y-4680000D03*
X3175000Y-21190000D03*
X3175000Y-14205000D03*
X12065000Y-4680000D03*
X21590000Y-11030000D03*
X21590000Y-21190000D03*
X-3410000Y-4680000D03*
X-21825000Y-21190000D03*
X-21825000Y-14205000D03*
X-12935000Y-4680000D03*
X-3410000Y-11030000D03*
X-3410000Y-21190000D03*
X-28410000Y-4680000D03*
X-46825000Y-21190000D03*
X-46825000Y-14205000D03*
X-37935000Y-4680000D03*
X-28410000Y-11030000D03*
X-28410000Y-21190000D03*
X46590000Y20320000D03*
X28175000Y3810000D03*
X28175000Y10795000D03*
X37065000Y20320000D03*
X46590000Y13970000D03*
X46590000Y3810000D03*
X21590000Y20320000D03*
X3175000Y3810000D03*
X3175000Y10795000D03*
X12065000Y20320000D03*
X21590000Y13970000D03*
X21590000Y3810000D03*
X-3410000Y20320000D03*
X-21825000Y3810000D03*
X-21825000Y10795000D03*
X-12935000Y20320000D03*
X-3410000Y13970000D03*
X-3410000Y3810000D03*
X-28410000Y20320000D03*
X-46825000Y3810000D03*
X-46825000Y10795000D03*
X-37935000Y20320000D03*
X-28410000Y13970000D03*
X-28410000Y3810000D03*
X46590000Y45320000D03*
X28175000Y28810000D03*
X28175000Y35795000D03*
X37065000Y45320000D03*
X46590000Y38970000D03*
X46590000Y28810000D03*
X21590000Y45320000D03*
X3175000Y28810000D03*
X3175000Y35795000D03*
X12065000Y45320000D03*
X21590000Y38970000D03*
X21590000Y28810000D03*
X-3410000Y45320000D03*
X-21825000Y28810000D03*
X-21825000Y35795000D03*
X-12935000Y45320000D03*
X-3410000Y38970000D03*
X-3410000Y28810000D03*
X-28410000Y45320000D03*
X-46825000Y28810000D03*
X-46825000Y35795000D03*
X-37935000Y45320000D03*
X-28410000Y38970000D03*
X-28410000Y28810000D03*
X46590000Y70320000D03*
X28175000Y53810000D03*
X28175000Y60795000D03*
X37065000Y70320000D03*
X46590000Y63970000D03*
X46590000Y53810000D03*
X21590000Y70320000D03*
X3175000Y53810000D03*
X3175000Y60795000D03*
X12065000Y70320000D03*
X21590000Y63970000D03*
X21590000Y53810000D03*
X-3410000Y70320000D03*
X-21825000Y53810000D03*
X-21825000Y60795000D03*
X-12935000Y70320000D03*
X-3410000Y63970000D03*
X-3410000Y53810000D03*
X-46825000Y60795000D03*
X-28410000Y70320000D03*
X-28410000Y53810000D03*
X-28410000Y63970000D03*
X-46825000Y53810000D03*
X-37935000Y70320000D03*
M02*
