G04 #@! TF.GenerationSoftware,KiCad,Pcbnew,(6.0.6)*
G04 #@! TF.CreationDate,2022-08-12T14:57:56+09:00*
G04 #@! TF.ProjectId,tutorial1-PNLZ,7475746f-7269-4616-9c31-2d504e4c5a2e,1*
G04 #@! TF.SameCoordinates,PX7bfa480PY7bfa480*
G04 #@! TF.FileFunction,Legend,Top*
G04 #@! TF.FilePolarity,Positive*
%FSLAX46Y46*%
G04 Gerber Fmt 4.6, Leading zero omitted, Abs format (unit mm)*
G04 Created by KiCad (PCBNEW (6.0.6)) date 2022-08-12 14:57:56*
%MOMM*%
%LPD*%
G01*
G04 APERTURE LIST*
%ADD10C,0.150000*%
%ADD11C,0.120000*%
G04 APERTURE END LIST*
D10*
X33612666Y-1084380D02*
X34184095Y-1084380D01*
X33898380Y-2084380D02*
X33898380Y-1084380D01*
X34946000Y-1417714D02*
X34946000Y-2084380D01*
X34517428Y-1417714D02*
X34517428Y-1941523D01*
X34565047Y-2036761D01*
X34660285Y-2084380D01*
X34803142Y-2084380D01*
X34898380Y-2036761D01*
X34946000Y-1989142D01*
X35279333Y-1417714D02*
X35660285Y-1417714D01*
X35422190Y-1084380D02*
X35422190Y-1941523D01*
X35469809Y-2036761D01*
X35565047Y-2084380D01*
X35660285Y-2084380D01*
X36136476Y-2084380D02*
X36041238Y-2036761D01*
X35993619Y-1989142D01*
X35946000Y-1893904D01*
X35946000Y-1608190D01*
X35993619Y-1512952D01*
X36041238Y-1465333D01*
X36136476Y-1417714D01*
X36279333Y-1417714D01*
X36374571Y-1465333D01*
X36422190Y-1512952D01*
X36469809Y-1608190D01*
X36469809Y-1893904D01*
X36422190Y-1989142D01*
X36374571Y-2036761D01*
X36279333Y-2084380D01*
X36136476Y-2084380D01*
X36898380Y-2084380D02*
X36898380Y-1417714D01*
X36898380Y-1608190D02*
X36946000Y-1512952D01*
X36993619Y-1465333D01*
X37088857Y-1417714D01*
X37184095Y-1417714D01*
X37517428Y-2084380D02*
X37517428Y-1417714D01*
X37517428Y-1084380D02*
X37469809Y-1132000D01*
X37517428Y-1179619D01*
X37565047Y-1132000D01*
X37517428Y-1084380D01*
X37517428Y-1179619D01*
X38422190Y-2084380D02*
X38422190Y-1560571D01*
X38374571Y-1465333D01*
X38279333Y-1417714D01*
X38088857Y-1417714D01*
X37993619Y-1465333D01*
X38422190Y-2036761D02*
X38326952Y-2084380D01*
X38088857Y-2084380D01*
X37993619Y-2036761D01*
X37946000Y-1941523D01*
X37946000Y-1846285D01*
X37993619Y-1751047D01*
X38088857Y-1703428D01*
X38326952Y-1703428D01*
X38422190Y-1655809D01*
X39041238Y-2084380D02*
X38946000Y-2036761D01*
X38898380Y-1941523D01*
X38898380Y-1084380D01*
X39422190Y-1703428D02*
X40184095Y-1703428D01*
X41184095Y-2084380D02*
X40612666Y-2084380D01*
X40898380Y-2084380D02*
X40898380Y-1084380D01*
X40803142Y-1227238D01*
X40707904Y-1322476D01*
X40612666Y-1370095D01*
X8612666Y-1084380D02*
X9184095Y-1084380D01*
X8898380Y-2084380D02*
X8898380Y-1084380D01*
X9946000Y-1417714D02*
X9946000Y-2084380D01*
X9517428Y-1417714D02*
X9517428Y-1941523D01*
X9565047Y-2036761D01*
X9660285Y-2084380D01*
X9803142Y-2084380D01*
X9898380Y-2036761D01*
X9946000Y-1989142D01*
X10279333Y-1417714D02*
X10660285Y-1417714D01*
X10422190Y-1084380D02*
X10422190Y-1941523D01*
X10469809Y-2036761D01*
X10565047Y-2084380D01*
X10660285Y-2084380D01*
X11136476Y-2084380D02*
X11041238Y-2036761D01*
X10993619Y-1989142D01*
X10946000Y-1893904D01*
X10946000Y-1608190D01*
X10993619Y-1512952D01*
X11041238Y-1465333D01*
X11136476Y-1417714D01*
X11279333Y-1417714D01*
X11374571Y-1465333D01*
X11422190Y-1512952D01*
X11469809Y-1608190D01*
X11469809Y-1893904D01*
X11422190Y-1989142D01*
X11374571Y-2036761D01*
X11279333Y-2084380D01*
X11136476Y-2084380D01*
X11898380Y-2084380D02*
X11898380Y-1417714D01*
X11898380Y-1608190D02*
X11946000Y-1512952D01*
X11993619Y-1465333D01*
X12088857Y-1417714D01*
X12184095Y-1417714D01*
X12517428Y-2084380D02*
X12517428Y-1417714D01*
X12517428Y-1084380D02*
X12469809Y-1132000D01*
X12517428Y-1179619D01*
X12565047Y-1132000D01*
X12517428Y-1084380D01*
X12517428Y-1179619D01*
X13422190Y-2084380D02*
X13422190Y-1560571D01*
X13374571Y-1465333D01*
X13279333Y-1417714D01*
X13088857Y-1417714D01*
X12993619Y-1465333D01*
X13422190Y-2036761D02*
X13326952Y-2084380D01*
X13088857Y-2084380D01*
X12993619Y-2036761D01*
X12946000Y-1941523D01*
X12946000Y-1846285D01*
X12993619Y-1751047D01*
X13088857Y-1703428D01*
X13326952Y-1703428D01*
X13422190Y-1655809D01*
X14041238Y-2084380D02*
X13946000Y-2036761D01*
X13898380Y-1941523D01*
X13898380Y-1084380D01*
X14422190Y-1703428D02*
X15184095Y-1703428D01*
X16184095Y-2084380D02*
X15612666Y-2084380D01*
X15898380Y-2084380D02*
X15898380Y-1084380D01*
X15803142Y-1227238D01*
X15707904Y-1322476D01*
X15612666Y-1370095D01*
X-16387334Y-1084380D02*
X-15815905Y-1084380D01*
X-16101620Y-2084380D02*
X-16101620Y-1084380D01*
X-15054000Y-1417714D02*
X-15054000Y-2084380D01*
X-15482572Y-1417714D02*
X-15482572Y-1941523D01*
X-15434953Y-2036761D01*
X-15339715Y-2084380D01*
X-15196858Y-2084380D01*
X-15101620Y-2036761D01*
X-15054000Y-1989142D01*
X-14720667Y-1417714D02*
X-14339715Y-1417714D01*
X-14577810Y-1084380D02*
X-14577810Y-1941523D01*
X-14530191Y-2036761D01*
X-14434953Y-2084380D01*
X-14339715Y-2084380D01*
X-13863524Y-2084380D02*
X-13958762Y-2036761D01*
X-14006381Y-1989142D01*
X-14054000Y-1893904D01*
X-14054000Y-1608190D01*
X-14006381Y-1512952D01*
X-13958762Y-1465333D01*
X-13863524Y-1417714D01*
X-13720667Y-1417714D01*
X-13625429Y-1465333D01*
X-13577810Y-1512952D01*
X-13530191Y-1608190D01*
X-13530191Y-1893904D01*
X-13577810Y-1989142D01*
X-13625429Y-2036761D01*
X-13720667Y-2084380D01*
X-13863524Y-2084380D01*
X-13101620Y-2084380D02*
X-13101620Y-1417714D01*
X-13101620Y-1608190D02*
X-13054000Y-1512952D01*
X-13006381Y-1465333D01*
X-12911143Y-1417714D01*
X-12815905Y-1417714D01*
X-12482572Y-2084380D02*
X-12482572Y-1417714D01*
X-12482572Y-1084380D02*
X-12530191Y-1132000D01*
X-12482572Y-1179619D01*
X-12434953Y-1132000D01*
X-12482572Y-1084380D01*
X-12482572Y-1179619D01*
X-11577810Y-2084380D02*
X-11577810Y-1560571D01*
X-11625429Y-1465333D01*
X-11720667Y-1417714D01*
X-11911143Y-1417714D01*
X-12006381Y-1465333D01*
X-11577810Y-2036761D02*
X-11673048Y-2084380D01*
X-11911143Y-2084380D01*
X-12006381Y-2036761D01*
X-12054000Y-1941523D01*
X-12054000Y-1846285D01*
X-12006381Y-1751047D01*
X-11911143Y-1703428D01*
X-11673048Y-1703428D01*
X-11577810Y-1655809D01*
X-10958762Y-2084380D02*
X-11054000Y-2036761D01*
X-11101620Y-1941523D01*
X-11101620Y-1084380D01*
X-10577810Y-1703428D02*
X-9815905Y-1703428D01*
X-8815905Y-2084380D02*
X-9387334Y-2084380D01*
X-9101620Y-2084380D02*
X-9101620Y-1084380D01*
X-9196858Y-1227238D01*
X-9292096Y-1322476D01*
X-9387334Y-1370095D01*
X-41387334Y-1084380D02*
X-40815905Y-1084380D01*
X-41101620Y-2084380D02*
X-41101620Y-1084380D01*
X-40054000Y-1417714D02*
X-40054000Y-2084380D01*
X-40482572Y-1417714D02*
X-40482572Y-1941523D01*
X-40434953Y-2036761D01*
X-40339715Y-2084380D01*
X-40196858Y-2084380D01*
X-40101620Y-2036761D01*
X-40054000Y-1989142D01*
X-39720667Y-1417714D02*
X-39339715Y-1417714D01*
X-39577810Y-1084380D02*
X-39577810Y-1941523D01*
X-39530191Y-2036761D01*
X-39434953Y-2084380D01*
X-39339715Y-2084380D01*
X-38863524Y-2084380D02*
X-38958762Y-2036761D01*
X-39006381Y-1989142D01*
X-39054000Y-1893904D01*
X-39054000Y-1608190D01*
X-39006381Y-1512952D01*
X-38958762Y-1465333D01*
X-38863524Y-1417714D01*
X-38720667Y-1417714D01*
X-38625429Y-1465333D01*
X-38577810Y-1512952D01*
X-38530191Y-1608190D01*
X-38530191Y-1893904D01*
X-38577810Y-1989142D01*
X-38625429Y-2036761D01*
X-38720667Y-2084380D01*
X-38863524Y-2084380D01*
X-38101620Y-2084380D02*
X-38101620Y-1417714D01*
X-38101620Y-1608190D02*
X-38054000Y-1512952D01*
X-38006381Y-1465333D01*
X-37911143Y-1417714D01*
X-37815905Y-1417714D01*
X-37482572Y-2084380D02*
X-37482572Y-1417714D01*
X-37482572Y-1084380D02*
X-37530191Y-1132000D01*
X-37482572Y-1179619D01*
X-37434953Y-1132000D01*
X-37482572Y-1084380D01*
X-37482572Y-1179619D01*
X-36577810Y-2084380D02*
X-36577810Y-1560571D01*
X-36625429Y-1465333D01*
X-36720667Y-1417714D01*
X-36911143Y-1417714D01*
X-37006381Y-1465333D01*
X-36577810Y-2036761D02*
X-36673048Y-2084380D01*
X-36911143Y-2084380D01*
X-37006381Y-2036761D01*
X-37054000Y-1941523D01*
X-37054000Y-1846285D01*
X-37006381Y-1751047D01*
X-36911143Y-1703428D01*
X-36673048Y-1703428D01*
X-36577810Y-1655809D01*
X-35958762Y-2084380D02*
X-36054000Y-2036761D01*
X-36101620Y-1941523D01*
X-36101620Y-1084380D01*
X-35577810Y-1703428D02*
X-34815905Y-1703428D01*
X-33815905Y-2084380D02*
X-34387334Y-2084380D01*
X-34101620Y-2084380D02*
X-34101620Y-1084380D01*
X-34196858Y-1227238D01*
X-34292096Y-1322476D01*
X-34387334Y-1370095D01*
X33612666Y23915620D02*
X34184095Y23915620D01*
X33898380Y22915620D02*
X33898380Y23915620D01*
X34946000Y23582286D02*
X34946000Y22915620D01*
X34517428Y23582286D02*
X34517428Y23058477D01*
X34565047Y22963239D01*
X34660285Y22915620D01*
X34803142Y22915620D01*
X34898380Y22963239D01*
X34946000Y23010858D01*
X35279333Y23582286D02*
X35660285Y23582286D01*
X35422190Y23915620D02*
X35422190Y23058477D01*
X35469809Y22963239D01*
X35565047Y22915620D01*
X35660285Y22915620D01*
X36136476Y22915620D02*
X36041238Y22963239D01*
X35993619Y23010858D01*
X35946000Y23106096D01*
X35946000Y23391810D01*
X35993619Y23487048D01*
X36041238Y23534667D01*
X36136476Y23582286D01*
X36279333Y23582286D01*
X36374571Y23534667D01*
X36422190Y23487048D01*
X36469809Y23391810D01*
X36469809Y23106096D01*
X36422190Y23010858D01*
X36374571Y22963239D01*
X36279333Y22915620D01*
X36136476Y22915620D01*
X36898380Y22915620D02*
X36898380Y23582286D01*
X36898380Y23391810D02*
X36946000Y23487048D01*
X36993619Y23534667D01*
X37088857Y23582286D01*
X37184095Y23582286D01*
X37517428Y22915620D02*
X37517428Y23582286D01*
X37517428Y23915620D02*
X37469809Y23868000D01*
X37517428Y23820381D01*
X37565047Y23868000D01*
X37517428Y23915620D01*
X37517428Y23820381D01*
X38422190Y22915620D02*
X38422190Y23439429D01*
X38374571Y23534667D01*
X38279333Y23582286D01*
X38088857Y23582286D01*
X37993619Y23534667D01*
X38422190Y22963239D02*
X38326952Y22915620D01*
X38088857Y22915620D01*
X37993619Y22963239D01*
X37946000Y23058477D01*
X37946000Y23153715D01*
X37993619Y23248953D01*
X38088857Y23296572D01*
X38326952Y23296572D01*
X38422190Y23344191D01*
X39041238Y22915620D02*
X38946000Y22963239D01*
X38898380Y23058477D01*
X38898380Y23915620D01*
X39422190Y23296572D02*
X40184095Y23296572D01*
X41184095Y22915620D02*
X40612666Y22915620D01*
X40898380Y22915620D02*
X40898380Y23915620D01*
X40803142Y23772762D01*
X40707904Y23677524D01*
X40612666Y23629905D01*
X8612666Y23915620D02*
X9184095Y23915620D01*
X8898380Y22915620D02*
X8898380Y23915620D01*
X9946000Y23582286D02*
X9946000Y22915620D01*
X9517428Y23582286D02*
X9517428Y23058477D01*
X9565047Y22963239D01*
X9660285Y22915620D01*
X9803142Y22915620D01*
X9898380Y22963239D01*
X9946000Y23010858D01*
X10279333Y23582286D02*
X10660285Y23582286D01*
X10422190Y23915620D02*
X10422190Y23058477D01*
X10469809Y22963239D01*
X10565047Y22915620D01*
X10660285Y22915620D01*
X11136476Y22915620D02*
X11041238Y22963239D01*
X10993619Y23010858D01*
X10946000Y23106096D01*
X10946000Y23391810D01*
X10993619Y23487048D01*
X11041238Y23534667D01*
X11136476Y23582286D01*
X11279333Y23582286D01*
X11374571Y23534667D01*
X11422190Y23487048D01*
X11469809Y23391810D01*
X11469809Y23106096D01*
X11422190Y23010858D01*
X11374571Y22963239D01*
X11279333Y22915620D01*
X11136476Y22915620D01*
X11898380Y22915620D02*
X11898380Y23582286D01*
X11898380Y23391810D02*
X11946000Y23487048D01*
X11993619Y23534667D01*
X12088857Y23582286D01*
X12184095Y23582286D01*
X12517428Y22915620D02*
X12517428Y23582286D01*
X12517428Y23915620D02*
X12469809Y23868000D01*
X12517428Y23820381D01*
X12565047Y23868000D01*
X12517428Y23915620D01*
X12517428Y23820381D01*
X13422190Y22915620D02*
X13422190Y23439429D01*
X13374571Y23534667D01*
X13279333Y23582286D01*
X13088857Y23582286D01*
X12993619Y23534667D01*
X13422190Y22963239D02*
X13326952Y22915620D01*
X13088857Y22915620D01*
X12993619Y22963239D01*
X12946000Y23058477D01*
X12946000Y23153715D01*
X12993619Y23248953D01*
X13088857Y23296572D01*
X13326952Y23296572D01*
X13422190Y23344191D01*
X14041238Y22915620D02*
X13946000Y22963239D01*
X13898380Y23058477D01*
X13898380Y23915620D01*
X14422190Y23296572D02*
X15184095Y23296572D01*
X16184095Y22915620D02*
X15612666Y22915620D01*
X15898380Y22915620D02*
X15898380Y23915620D01*
X15803142Y23772762D01*
X15707904Y23677524D01*
X15612666Y23629905D01*
X-16387334Y23915620D02*
X-15815905Y23915620D01*
X-16101620Y22915620D02*
X-16101620Y23915620D01*
X-15054000Y23582286D02*
X-15054000Y22915620D01*
X-15482572Y23582286D02*
X-15482572Y23058477D01*
X-15434953Y22963239D01*
X-15339715Y22915620D01*
X-15196858Y22915620D01*
X-15101620Y22963239D01*
X-15054000Y23010858D01*
X-14720667Y23582286D02*
X-14339715Y23582286D01*
X-14577810Y23915620D02*
X-14577810Y23058477D01*
X-14530191Y22963239D01*
X-14434953Y22915620D01*
X-14339715Y22915620D01*
X-13863524Y22915620D02*
X-13958762Y22963239D01*
X-14006381Y23010858D01*
X-14054000Y23106096D01*
X-14054000Y23391810D01*
X-14006381Y23487048D01*
X-13958762Y23534667D01*
X-13863524Y23582286D01*
X-13720667Y23582286D01*
X-13625429Y23534667D01*
X-13577810Y23487048D01*
X-13530191Y23391810D01*
X-13530191Y23106096D01*
X-13577810Y23010858D01*
X-13625429Y22963239D01*
X-13720667Y22915620D01*
X-13863524Y22915620D01*
X-13101620Y22915620D02*
X-13101620Y23582286D01*
X-13101620Y23391810D02*
X-13054000Y23487048D01*
X-13006381Y23534667D01*
X-12911143Y23582286D01*
X-12815905Y23582286D01*
X-12482572Y22915620D02*
X-12482572Y23582286D01*
X-12482572Y23915620D02*
X-12530191Y23868000D01*
X-12482572Y23820381D01*
X-12434953Y23868000D01*
X-12482572Y23915620D01*
X-12482572Y23820381D01*
X-11577810Y22915620D02*
X-11577810Y23439429D01*
X-11625429Y23534667D01*
X-11720667Y23582286D01*
X-11911143Y23582286D01*
X-12006381Y23534667D01*
X-11577810Y22963239D02*
X-11673048Y22915620D01*
X-11911143Y22915620D01*
X-12006381Y22963239D01*
X-12054000Y23058477D01*
X-12054000Y23153715D01*
X-12006381Y23248953D01*
X-11911143Y23296572D01*
X-11673048Y23296572D01*
X-11577810Y23344191D01*
X-10958762Y22915620D02*
X-11054000Y22963239D01*
X-11101620Y23058477D01*
X-11101620Y23915620D01*
X-10577810Y23296572D02*
X-9815905Y23296572D01*
X-8815905Y22915620D02*
X-9387334Y22915620D01*
X-9101620Y22915620D02*
X-9101620Y23915620D01*
X-9196858Y23772762D01*
X-9292096Y23677524D01*
X-9387334Y23629905D01*
X-41387334Y23915620D02*
X-40815905Y23915620D01*
X-41101620Y22915620D02*
X-41101620Y23915620D01*
X-40054000Y23582286D02*
X-40054000Y22915620D01*
X-40482572Y23582286D02*
X-40482572Y23058477D01*
X-40434953Y22963239D01*
X-40339715Y22915620D01*
X-40196858Y22915620D01*
X-40101620Y22963239D01*
X-40054000Y23010858D01*
X-39720667Y23582286D02*
X-39339715Y23582286D01*
X-39577810Y23915620D02*
X-39577810Y23058477D01*
X-39530191Y22963239D01*
X-39434953Y22915620D01*
X-39339715Y22915620D01*
X-38863524Y22915620D02*
X-38958762Y22963239D01*
X-39006381Y23010858D01*
X-39054000Y23106096D01*
X-39054000Y23391810D01*
X-39006381Y23487048D01*
X-38958762Y23534667D01*
X-38863524Y23582286D01*
X-38720667Y23582286D01*
X-38625429Y23534667D01*
X-38577810Y23487048D01*
X-38530191Y23391810D01*
X-38530191Y23106096D01*
X-38577810Y23010858D01*
X-38625429Y22963239D01*
X-38720667Y22915620D01*
X-38863524Y22915620D01*
X-38101620Y22915620D02*
X-38101620Y23582286D01*
X-38101620Y23391810D02*
X-38054000Y23487048D01*
X-38006381Y23534667D01*
X-37911143Y23582286D01*
X-37815905Y23582286D01*
X-37482572Y22915620D02*
X-37482572Y23582286D01*
X-37482572Y23915620D02*
X-37530191Y23868000D01*
X-37482572Y23820381D01*
X-37434953Y23868000D01*
X-37482572Y23915620D01*
X-37482572Y23820381D01*
X-36577810Y22915620D02*
X-36577810Y23439429D01*
X-36625429Y23534667D01*
X-36720667Y23582286D01*
X-36911143Y23582286D01*
X-37006381Y23534667D01*
X-36577810Y22963239D02*
X-36673048Y22915620D01*
X-36911143Y22915620D01*
X-37006381Y22963239D01*
X-37054000Y23058477D01*
X-37054000Y23153715D01*
X-37006381Y23248953D01*
X-36911143Y23296572D01*
X-36673048Y23296572D01*
X-36577810Y23344191D01*
X-35958762Y22915620D02*
X-36054000Y22963239D01*
X-36101620Y23058477D01*
X-36101620Y23915620D01*
X-35577810Y23296572D02*
X-34815905Y23296572D01*
X-33815905Y22915620D02*
X-34387334Y22915620D01*
X-34101620Y22915620D02*
X-34101620Y23915620D01*
X-34196858Y23772762D01*
X-34292096Y23677524D01*
X-34387334Y23629905D01*
X33612666Y48915620D02*
X34184095Y48915620D01*
X33898380Y47915620D02*
X33898380Y48915620D01*
X34946000Y48582286D02*
X34946000Y47915620D01*
X34517428Y48582286D02*
X34517428Y48058477D01*
X34565047Y47963239D01*
X34660285Y47915620D01*
X34803142Y47915620D01*
X34898380Y47963239D01*
X34946000Y48010858D01*
X35279333Y48582286D02*
X35660285Y48582286D01*
X35422190Y48915620D02*
X35422190Y48058477D01*
X35469809Y47963239D01*
X35565047Y47915620D01*
X35660285Y47915620D01*
X36136476Y47915620D02*
X36041238Y47963239D01*
X35993619Y48010858D01*
X35946000Y48106096D01*
X35946000Y48391810D01*
X35993619Y48487048D01*
X36041238Y48534667D01*
X36136476Y48582286D01*
X36279333Y48582286D01*
X36374571Y48534667D01*
X36422190Y48487048D01*
X36469809Y48391810D01*
X36469809Y48106096D01*
X36422190Y48010858D01*
X36374571Y47963239D01*
X36279333Y47915620D01*
X36136476Y47915620D01*
X36898380Y47915620D02*
X36898380Y48582286D01*
X36898380Y48391810D02*
X36946000Y48487048D01*
X36993619Y48534667D01*
X37088857Y48582286D01*
X37184095Y48582286D01*
X37517428Y47915620D02*
X37517428Y48582286D01*
X37517428Y48915620D02*
X37469809Y48868000D01*
X37517428Y48820381D01*
X37565047Y48868000D01*
X37517428Y48915620D01*
X37517428Y48820381D01*
X38422190Y47915620D02*
X38422190Y48439429D01*
X38374571Y48534667D01*
X38279333Y48582286D01*
X38088857Y48582286D01*
X37993619Y48534667D01*
X38422190Y47963239D02*
X38326952Y47915620D01*
X38088857Y47915620D01*
X37993619Y47963239D01*
X37946000Y48058477D01*
X37946000Y48153715D01*
X37993619Y48248953D01*
X38088857Y48296572D01*
X38326952Y48296572D01*
X38422190Y48344191D01*
X39041238Y47915620D02*
X38946000Y47963239D01*
X38898380Y48058477D01*
X38898380Y48915620D01*
X39422190Y48296572D02*
X40184095Y48296572D01*
X41184095Y47915620D02*
X40612666Y47915620D01*
X40898380Y47915620D02*
X40898380Y48915620D01*
X40803142Y48772762D01*
X40707904Y48677524D01*
X40612666Y48629905D01*
X8612666Y48915620D02*
X9184095Y48915620D01*
X8898380Y47915620D02*
X8898380Y48915620D01*
X9946000Y48582286D02*
X9946000Y47915620D01*
X9517428Y48582286D02*
X9517428Y48058477D01*
X9565047Y47963239D01*
X9660285Y47915620D01*
X9803142Y47915620D01*
X9898380Y47963239D01*
X9946000Y48010858D01*
X10279333Y48582286D02*
X10660285Y48582286D01*
X10422190Y48915620D02*
X10422190Y48058477D01*
X10469809Y47963239D01*
X10565047Y47915620D01*
X10660285Y47915620D01*
X11136476Y47915620D02*
X11041238Y47963239D01*
X10993619Y48010858D01*
X10946000Y48106096D01*
X10946000Y48391810D01*
X10993619Y48487048D01*
X11041238Y48534667D01*
X11136476Y48582286D01*
X11279333Y48582286D01*
X11374571Y48534667D01*
X11422190Y48487048D01*
X11469809Y48391810D01*
X11469809Y48106096D01*
X11422190Y48010858D01*
X11374571Y47963239D01*
X11279333Y47915620D01*
X11136476Y47915620D01*
X11898380Y47915620D02*
X11898380Y48582286D01*
X11898380Y48391810D02*
X11946000Y48487048D01*
X11993619Y48534667D01*
X12088857Y48582286D01*
X12184095Y48582286D01*
X12517428Y47915620D02*
X12517428Y48582286D01*
X12517428Y48915620D02*
X12469809Y48868000D01*
X12517428Y48820381D01*
X12565047Y48868000D01*
X12517428Y48915620D01*
X12517428Y48820381D01*
X13422190Y47915620D02*
X13422190Y48439429D01*
X13374571Y48534667D01*
X13279333Y48582286D01*
X13088857Y48582286D01*
X12993619Y48534667D01*
X13422190Y47963239D02*
X13326952Y47915620D01*
X13088857Y47915620D01*
X12993619Y47963239D01*
X12946000Y48058477D01*
X12946000Y48153715D01*
X12993619Y48248953D01*
X13088857Y48296572D01*
X13326952Y48296572D01*
X13422190Y48344191D01*
X14041238Y47915620D02*
X13946000Y47963239D01*
X13898380Y48058477D01*
X13898380Y48915620D01*
X14422190Y48296572D02*
X15184095Y48296572D01*
X16184095Y47915620D02*
X15612666Y47915620D01*
X15898380Y47915620D02*
X15898380Y48915620D01*
X15803142Y48772762D01*
X15707904Y48677524D01*
X15612666Y48629905D01*
X-16387334Y48915620D02*
X-15815905Y48915620D01*
X-16101620Y47915620D02*
X-16101620Y48915620D01*
X-15054000Y48582286D02*
X-15054000Y47915620D01*
X-15482572Y48582286D02*
X-15482572Y48058477D01*
X-15434953Y47963239D01*
X-15339715Y47915620D01*
X-15196858Y47915620D01*
X-15101620Y47963239D01*
X-15054000Y48010858D01*
X-14720667Y48582286D02*
X-14339715Y48582286D01*
X-14577810Y48915620D02*
X-14577810Y48058477D01*
X-14530191Y47963239D01*
X-14434953Y47915620D01*
X-14339715Y47915620D01*
X-13863524Y47915620D02*
X-13958762Y47963239D01*
X-14006381Y48010858D01*
X-14054000Y48106096D01*
X-14054000Y48391810D01*
X-14006381Y48487048D01*
X-13958762Y48534667D01*
X-13863524Y48582286D01*
X-13720667Y48582286D01*
X-13625429Y48534667D01*
X-13577810Y48487048D01*
X-13530191Y48391810D01*
X-13530191Y48106096D01*
X-13577810Y48010858D01*
X-13625429Y47963239D01*
X-13720667Y47915620D01*
X-13863524Y47915620D01*
X-13101620Y47915620D02*
X-13101620Y48582286D01*
X-13101620Y48391810D02*
X-13054000Y48487048D01*
X-13006381Y48534667D01*
X-12911143Y48582286D01*
X-12815905Y48582286D01*
X-12482572Y47915620D02*
X-12482572Y48582286D01*
X-12482572Y48915620D02*
X-12530191Y48868000D01*
X-12482572Y48820381D01*
X-12434953Y48868000D01*
X-12482572Y48915620D01*
X-12482572Y48820381D01*
X-11577810Y47915620D02*
X-11577810Y48439429D01*
X-11625429Y48534667D01*
X-11720667Y48582286D01*
X-11911143Y48582286D01*
X-12006381Y48534667D01*
X-11577810Y47963239D02*
X-11673048Y47915620D01*
X-11911143Y47915620D01*
X-12006381Y47963239D01*
X-12054000Y48058477D01*
X-12054000Y48153715D01*
X-12006381Y48248953D01*
X-11911143Y48296572D01*
X-11673048Y48296572D01*
X-11577810Y48344191D01*
X-10958762Y47915620D02*
X-11054000Y47963239D01*
X-11101620Y48058477D01*
X-11101620Y48915620D01*
X-10577810Y48296572D02*
X-9815905Y48296572D01*
X-8815905Y47915620D02*
X-9387334Y47915620D01*
X-9101620Y47915620D02*
X-9101620Y48915620D01*
X-9196858Y48772762D01*
X-9292096Y48677524D01*
X-9387334Y48629905D01*
X-41387334Y48915620D02*
X-40815905Y48915620D01*
X-41101620Y47915620D02*
X-41101620Y48915620D01*
X-40054000Y48582286D02*
X-40054000Y47915620D01*
X-40482572Y48582286D02*
X-40482572Y48058477D01*
X-40434953Y47963239D01*
X-40339715Y47915620D01*
X-40196858Y47915620D01*
X-40101620Y47963239D01*
X-40054000Y48010858D01*
X-39720667Y48582286D02*
X-39339715Y48582286D01*
X-39577810Y48915620D02*
X-39577810Y48058477D01*
X-39530191Y47963239D01*
X-39434953Y47915620D01*
X-39339715Y47915620D01*
X-38863524Y47915620D02*
X-38958762Y47963239D01*
X-39006381Y48010858D01*
X-39054000Y48106096D01*
X-39054000Y48391810D01*
X-39006381Y48487048D01*
X-38958762Y48534667D01*
X-38863524Y48582286D01*
X-38720667Y48582286D01*
X-38625429Y48534667D01*
X-38577810Y48487048D01*
X-38530191Y48391810D01*
X-38530191Y48106096D01*
X-38577810Y48010858D01*
X-38625429Y47963239D01*
X-38720667Y47915620D01*
X-38863524Y47915620D01*
X-38101620Y47915620D02*
X-38101620Y48582286D01*
X-38101620Y48391810D02*
X-38054000Y48487048D01*
X-38006381Y48534667D01*
X-37911143Y48582286D01*
X-37815905Y48582286D01*
X-37482572Y47915620D02*
X-37482572Y48582286D01*
X-37482572Y48915620D02*
X-37530191Y48868000D01*
X-37482572Y48820381D01*
X-37434953Y48868000D01*
X-37482572Y48915620D01*
X-37482572Y48820381D01*
X-36577810Y47915620D02*
X-36577810Y48439429D01*
X-36625429Y48534667D01*
X-36720667Y48582286D01*
X-36911143Y48582286D01*
X-37006381Y48534667D01*
X-36577810Y47963239D02*
X-36673048Y47915620D01*
X-36911143Y47915620D01*
X-37006381Y47963239D01*
X-37054000Y48058477D01*
X-37054000Y48153715D01*
X-37006381Y48248953D01*
X-36911143Y48296572D01*
X-36673048Y48296572D01*
X-36577810Y48344191D01*
X-35958762Y47915620D02*
X-36054000Y47963239D01*
X-36101620Y48058477D01*
X-36101620Y48915620D01*
X-35577810Y48296572D02*
X-34815905Y48296572D01*
X-33815905Y47915620D02*
X-34387334Y47915620D01*
X-34101620Y47915620D02*
X-34101620Y48915620D01*
X-34196858Y48772762D01*
X-34292096Y48677524D01*
X-34387334Y48629905D01*
X33612666Y73915620D02*
X34184095Y73915620D01*
X33898380Y72915620D02*
X33898380Y73915620D01*
X34946000Y73582286D02*
X34946000Y72915620D01*
X34517428Y73582286D02*
X34517428Y73058477D01*
X34565047Y72963239D01*
X34660285Y72915620D01*
X34803142Y72915620D01*
X34898380Y72963239D01*
X34946000Y73010858D01*
X35279333Y73582286D02*
X35660285Y73582286D01*
X35422190Y73915620D02*
X35422190Y73058477D01*
X35469809Y72963239D01*
X35565047Y72915620D01*
X35660285Y72915620D01*
X36136476Y72915620D02*
X36041238Y72963239D01*
X35993619Y73010858D01*
X35946000Y73106096D01*
X35946000Y73391810D01*
X35993619Y73487048D01*
X36041238Y73534667D01*
X36136476Y73582286D01*
X36279333Y73582286D01*
X36374571Y73534667D01*
X36422190Y73487048D01*
X36469809Y73391810D01*
X36469809Y73106096D01*
X36422190Y73010858D01*
X36374571Y72963239D01*
X36279333Y72915620D01*
X36136476Y72915620D01*
X36898380Y72915620D02*
X36898380Y73582286D01*
X36898380Y73391810D02*
X36946000Y73487048D01*
X36993619Y73534667D01*
X37088857Y73582286D01*
X37184095Y73582286D01*
X37517428Y72915620D02*
X37517428Y73582286D01*
X37517428Y73915620D02*
X37469809Y73868000D01*
X37517428Y73820381D01*
X37565047Y73868000D01*
X37517428Y73915620D01*
X37517428Y73820381D01*
X38422190Y72915620D02*
X38422190Y73439429D01*
X38374571Y73534667D01*
X38279333Y73582286D01*
X38088857Y73582286D01*
X37993619Y73534667D01*
X38422190Y72963239D02*
X38326952Y72915620D01*
X38088857Y72915620D01*
X37993619Y72963239D01*
X37946000Y73058477D01*
X37946000Y73153715D01*
X37993619Y73248953D01*
X38088857Y73296572D01*
X38326952Y73296572D01*
X38422190Y73344191D01*
X39041238Y72915620D02*
X38946000Y72963239D01*
X38898380Y73058477D01*
X38898380Y73915620D01*
X39422190Y73296572D02*
X40184095Y73296572D01*
X41184095Y72915620D02*
X40612666Y72915620D01*
X40898380Y72915620D02*
X40898380Y73915620D01*
X40803142Y73772762D01*
X40707904Y73677524D01*
X40612666Y73629905D01*
X8612666Y73915620D02*
X9184095Y73915620D01*
X8898380Y72915620D02*
X8898380Y73915620D01*
X9946000Y73582286D02*
X9946000Y72915620D01*
X9517428Y73582286D02*
X9517428Y73058477D01*
X9565047Y72963239D01*
X9660285Y72915620D01*
X9803142Y72915620D01*
X9898380Y72963239D01*
X9946000Y73010858D01*
X10279333Y73582286D02*
X10660285Y73582286D01*
X10422190Y73915620D02*
X10422190Y73058477D01*
X10469809Y72963239D01*
X10565047Y72915620D01*
X10660285Y72915620D01*
X11136476Y72915620D02*
X11041238Y72963239D01*
X10993619Y73010858D01*
X10946000Y73106096D01*
X10946000Y73391810D01*
X10993619Y73487048D01*
X11041238Y73534667D01*
X11136476Y73582286D01*
X11279333Y73582286D01*
X11374571Y73534667D01*
X11422190Y73487048D01*
X11469809Y73391810D01*
X11469809Y73106096D01*
X11422190Y73010858D01*
X11374571Y72963239D01*
X11279333Y72915620D01*
X11136476Y72915620D01*
X11898380Y72915620D02*
X11898380Y73582286D01*
X11898380Y73391810D02*
X11946000Y73487048D01*
X11993619Y73534667D01*
X12088857Y73582286D01*
X12184095Y73582286D01*
X12517428Y72915620D02*
X12517428Y73582286D01*
X12517428Y73915620D02*
X12469809Y73868000D01*
X12517428Y73820381D01*
X12565047Y73868000D01*
X12517428Y73915620D01*
X12517428Y73820381D01*
X13422190Y72915620D02*
X13422190Y73439429D01*
X13374571Y73534667D01*
X13279333Y73582286D01*
X13088857Y73582286D01*
X12993619Y73534667D01*
X13422190Y72963239D02*
X13326952Y72915620D01*
X13088857Y72915620D01*
X12993619Y72963239D01*
X12946000Y73058477D01*
X12946000Y73153715D01*
X12993619Y73248953D01*
X13088857Y73296572D01*
X13326952Y73296572D01*
X13422190Y73344191D01*
X14041238Y72915620D02*
X13946000Y72963239D01*
X13898380Y73058477D01*
X13898380Y73915620D01*
X14422190Y73296572D02*
X15184095Y73296572D01*
X16184095Y72915620D02*
X15612666Y72915620D01*
X15898380Y72915620D02*
X15898380Y73915620D01*
X15803142Y73772762D01*
X15707904Y73677524D01*
X15612666Y73629905D01*
X-16387334Y73915620D02*
X-15815905Y73915620D01*
X-16101620Y72915620D02*
X-16101620Y73915620D01*
X-15054000Y73582286D02*
X-15054000Y72915620D01*
X-15482572Y73582286D02*
X-15482572Y73058477D01*
X-15434953Y72963239D01*
X-15339715Y72915620D01*
X-15196858Y72915620D01*
X-15101620Y72963239D01*
X-15054000Y73010858D01*
X-14720667Y73582286D02*
X-14339715Y73582286D01*
X-14577810Y73915620D02*
X-14577810Y73058477D01*
X-14530191Y72963239D01*
X-14434953Y72915620D01*
X-14339715Y72915620D01*
X-13863524Y72915620D02*
X-13958762Y72963239D01*
X-14006381Y73010858D01*
X-14054000Y73106096D01*
X-14054000Y73391810D01*
X-14006381Y73487048D01*
X-13958762Y73534667D01*
X-13863524Y73582286D01*
X-13720667Y73582286D01*
X-13625429Y73534667D01*
X-13577810Y73487048D01*
X-13530191Y73391810D01*
X-13530191Y73106096D01*
X-13577810Y73010858D01*
X-13625429Y72963239D01*
X-13720667Y72915620D01*
X-13863524Y72915620D01*
X-13101620Y72915620D02*
X-13101620Y73582286D01*
X-13101620Y73391810D02*
X-13054000Y73487048D01*
X-13006381Y73534667D01*
X-12911143Y73582286D01*
X-12815905Y73582286D01*
X-12482572Y72915620D02*
X-12482572Y73582286D01*
X-12482572Y73915620D02*
X-12530191Y73868000D01*
X-12482572Y73820381D01*
X-12434953Y73868000D01*
X-12482572Y73915620D01*
X-12482572Y73820381D01*
X-11577810Y72915620D02*
X-11577810Y73439429D01*
X-11625429Y73534667D01*
X-11720667Y73582286D01*
X-11911143Y73582286D01*
X-12006381Y73534667D01*
X-11577810Y72963239D02*
X-11673048Y72915620D01*
X-11911143Y72915620D01*
X-12006381Y72963239D01*
X-12054000Y73058477D01*
X-12054000Y73153715D01*
X-12006381Y73248953D01*
X-11911143Y73296572D01*
X-11673048Y73296572D01*
X-11577810Y73344191D01*
X-10958762Y72915620D02*
X-11054000Y72963239D01*
X-11101620Y73058477D01*
X-11101620Y73915620D01*
X-10577810Y73296572D02*
X-9815905Y73296572D01*
X-8815905Y72915620D02*
X-9387334Y72915620D01*
X-9101620Y72915620D02*
X-9101620Y73915620D01*
X-9196858Y73772762D01*
X-9292096Y73677524D01*
X-9387334Y73629905D01*
X-41387334Y73915620D02*
X-40815905Y73915620D01*
X-41101620Y72915620D02*
X-41101620Y73915620D01*
X-40054000Y73582286D02*
X-40054000Y72915620D01*
X-40482572Y73582286D02*
X-40482572Y73058477D01*
X-40434953Y72963239D01*
X-40339715Y72915620D01*
X-40196858Y72915620D01*
X-40101620Y72963239D01*
X-40054000Y73010858D01*
X-39720667Y73582286D02*
X-39339715Y73582286D01*
X-39577810Y73915620D02*
X-39577810Y73058477D01*
X-39530191Y72963239D01*
X-39434953Y72915620D01*
X-39339715Y72915620D01*
X-38863524Y72915620D02*
X-38958762Y72963239D01*
X-39006381Y73010858D01*
X-39054000Y73106096D01*
X-39054000Y73391810D01*
X-39006381Y73487048D01*
X-38958762Y73534667D01*
X-38863524Y73582286D01*
X-38720667Y73582286D01*
X-38625429Y73534667D01*
X-38577810Y73487048D01*
X-38530191Y73391810D01*
X-38530191Y73106096D01*
X-38577810Y73010858D01*
X-38625429Y72963239D01*
X-38720667Y72915620D01*
X-38863524Y72915620D01*
X-38101620Y72915620D02*
X-38101620Y73582286D01*
X-38101620Y73391810D02*
X-38054000Y73487048D01*
X-38006381Y73534667D01*
X-37911143Y73582286D01*
X-37815905Y73582286D01*
X-37482572Y72915620D02*
X-37482572Y73582286D01*
X-37482572Y73915620D02*
X-37530191Y73868000D01*
X-37482572Y73820381D01*
X-37434953Y73868000D01*
X-37482572Y73915620D01*
X-37482572Y73820381D01*
X-36577810Y72915620D02*
X-36577810Y73439429D01*
X-36625429Y73534667D01*
X-36720667Y73582286D01*
X-36911143Y73582286D01*
X-37006381Y73534667D01*
X-36577810Y72963239D02*
X-36673048Y72915620D01*
X-36911143Y72915620D01*
X-37006381Y72963239D01*
X-37054000Y73058477D01*
X-37054000Y73153715D01*
X-37006381Y73248953D01*
X-36911143Y73296572D01*
X-36673048Y73296572D01*
X-36577810Y73344191D01*
X-35958762Y72915620D02*
X-36054000Y72963239D01*
X-36101620Y73058477D01*
X-36101620Y73915620D01*
X-35577810Y73296572D02*
X-34815905Y73296572D01*
X-33815905Y72915620D02*
X-34387334Y72915620D01*
X-34101620Y72915620D02*
X-34101620Y73915620D01*
X-34196858Y73772762D01*
X-34292096Y73677524D01*
X-34387334Y73629905D01*
X34358333Y-20437142D02*
X34310714Y-20484761D01*
X34167857Y-20532380D01*
X34072619Y-20532380D01*
X33929761Y-20484761D01*
X33834523Y-20389523D01*
X33786904Y-20294285D01*
X33739285Y-20103809D01*
X33739285Y-19960952D01*
X33786904Y-19770476D01*
X33834523Y-19675238D01*
X33929761Y-19580000D01*
X34072619Y-19532380D01*
X34167857Y-19532380D01*
X34310714Y-19580000D01*
X34358333Y-19627619D01*
X35310714Y-20532380D02*
X34739285Y-20532380D01*
X35025000Y-20532380D02*
X35025000Y-19532380D01*
X34929761Y-19675238D01*
X34834523Y-19770476D01*
X34739285Y-19818095D01*
X31818333Y-16722380D02*
X31485000Y-16246190D01*
X31246904Y-16722380D02*
X31246904Y-15722380D01*
X31627857Y-15722380D01*
X31723095Y-15770000D01*
X31770714Y-15817619D01*
X31818333Y-15912857D01*
X31818333Y-16055714D01*
X31770714Y-16150952D01*
X31723095Y-16198571D01*
X31627857Y-16246190D01*
X31246904Y-16246190D01*
X32199285Y-15817619D02*
X32246904Y-15770000D01*
X32342142Y-15722380D01*
X32580238Y-15722380D01*
X32675476Y-15770000D01*
X32723095Y-15817619D01*
X32770714Y-15912857D01*
X32770714Y-16008095D01*
X32723095Y-16150952D01*
X32151666Y-16722380D01*
X32770714Y-16722380D01*
X31246904Y-11482380D02*
X31246904Y-10482380D01*
X31485000Y-10482380D01*
X31627857Y-10530000D01*
X31723095Y-10625238D01*
X31770714Y-10720476D01*
X31818333Y-10910952D01*
X31818333Y-11053809D01*
X31770714Y-11244285D01*
X31723095Y-11339523D01*
X31627857Y-11434761D01*
X31485000Y-11482380D01*
X31246904Y-11482380D01*
X32770714Y-11482380D02*
X32199285Y-11482380D01*
X32485000Y-11482380D02*
X32485000Y-10482380D01*
X32389761Y-10625238D01*
X32294523Y-10720476D01*
X32199285Y-10768095D01*
X34387380Y-14331904D02*
X35196904Y-14331904D01*
X35292142Y-14284285D01*
X35339761Y-14236666D01*
X35387380Y-14141428D01*
X35387380Y-13950952D01*
X35339761Y-13855714D01*
X35292142Y-13808095D01*
X35196904Y-13760476D01*
X34387380Y-13760476D01*
X35387380Y-12760476D02*
X35387380Y-13331904D01*
X35387380Y-13046190D02*
X34387380Y-13046190D01*
X34530238Y-13141428D01*
X34625476Y-13236666D01*
X34673095Y-13331904D01*
X45932380Y-13736666D02*
X45456190Y-14070000D01*
X45932380Y-14308095D02*
X44932380Y-14308095D01*
X44932380Y-13927142D01*
X44980000Y-13831904D01*
X45027619Y-13784285D01*
X45122857Y-13736666D01*
X45265714Y-13736666D01*
X45360952Y-13784285D01*
X45408571Y-13831904D01*
X45456190Y-13927142D01*
X45456190Y-14308095D01*
X45932380Y-12784285D02*
X45932380Y-13355714D01*
X45932380Y-13070000D02*
X44932380Y-13070000D01*
X45075238Y-13165238D01*
X45170476Y-13260476D01*
X45218095Y-13355714D01*
X32297380Y-22793333D02*
X33011666Y-22793333D01*
X33154523Y-22840952D01*
X33249761Y-22936190D01*
X33297380Y-23079047D01*
X33297380Y-23174285D01*
X33297380Y-21793333D02*
X33297380Y-22364761D01*
X33297380Y-22079047D02*
X32297380Y-22079047D01*
X32440238Y-22174285D01*
X32535476Y-22269523D01*
X32583095Y-22364761D01*
X9358333Y-20437142D02*
X9310714Y-20484761D01*
X9167857Y-20532380D01*
X9072619Y-20532380D01*
X8929761Y-20484761D01*
X8834523Y-20389523D01*
X8786904Y-20294285D01*
X8739285Y-20103809D01*
X8739285Y-19960952D01*
X8786904Y-19770476D01*
X8834523Y-19675238D01*
X8929761Y-19580000D01*
X9072619Y-19532380D01*
X9167857Y-19532380D01*
X9310714Y-19580000D01*
X9358333Y-19627619D01*
X10310714Y-20532380D02*
X9739285Y-20532380D01*
X10025000Y-20532380D02*
X10025000Y-19532380D01*
X9929761Y-19675238D01*
X9834523Y-19770476D01*
X9739285Y-19818095D01*
X6818333Y-16722380D02*
X6485000Y-16246190D01*
X6246904Y-16722380D02*
X6246904Y-15722380D01*
X6627857Y-15722380D01*
X6723095Y-15770000D01*
X6770714Y-15817619D01*
X6818333Y-15912857D01*
X6818333Y-16055714D01*
X6770714Y-16150952D01*
X6723095Y-16198571D01*
X6627857Y-16246190D01*
X6246904Y-16246190D01*
X7199285Y-15817619D02*
X7246904Y-15770000D01*
X7342142Y-15722380D01*
X7580238Y-15722380D01*
X7675476Y-15770000D01*
X7723095Y-15817619D01*
X7770714Y-15912857D01*
X7770714Y-16008095D01*
X7723095Y-16150952D01*
X7151666Y-16722380D01*
X7770714Y-16722380D01*
X6246904Y-11482380D02*
X6246904Y-10482380D01*
X6485000Y-10482380D01*
X6627857Y-10530000D01*
X6723095Y-10625238D01*
X6770714Y-10720476D01*
X6818333Y-10910952D01*
X6818333Y-11053809D01*
X6770714Y-11244285D01*
X6723095Y-11339523D01*
X6627857Y-11434761D01*
X6485000Y-11482380D01*
X6246904Y-11482380D01*
X7770714Y-11482380D02*
X7199285Y-11482380D01*
X7485000Y-11482380D02*
X7485000Y-10482380D01*
X7389761Y-10625238D01*
X7294523Y-10720476D01*
X7199285Y-10768095D01*
X9387380Y-14331904D02*
X10196904Y-14331904D01*
X10292142Y-14284285D01*
X10339761Y-14236666D01*
X10387380Y-14141428D01*
X10387380Y-13950952D01*
X10339761Y-13855714D01*
X10292142Y-13808095D01*
X10196904Y-13760476D01*
X9387380Y-13760476D01*
X10387380Y-12760476D02*
X10387380Y-13331904D01*
X10387380Y-13046190D02*
X9387380Y-13046190D01*
X9530238Y-13141428D01*
X9625476Y-13236666D01*
X9673095Y-13331904D01*
X20932380Y-13736666D02*
X20456190Y-14070000D01*
X20932380Y-14308095D02*
X19932380Y-14308095D01*
X19932380Y-13927142D01*
X19980000Y-13831904D01*
X20027619Y-13784285D01*
X20122857Y-13736666D01*
X20265714Y-13736666D01*
X20360952Y-13784285D01*
X20408571Y-13831904D01*
X20456190Y-13927142D01*
X20456190Y-14308095D01*
X20932380Y-12784285D02*
X20932380Y-13355714D01*
X20932380Y-13070000D02*
X19932380Y-13070000D01*
X20075238Y-13165238D01*
X20170476Y-13260476D01*
X20218095Y-13355714D01*
X7297380Y-22793333D02*
X8011666Y-22793333D01*
X8154523Y-22840952D01*
X8249761Y-22936190D01*
X8297380Y-23079047D01*
X8297380Y-23174285D01*
X8297380Y-21793333D02*
X8297380Y-22364761D01*
X8297380Y-22079047D02*
X7297380Y-22079047D01*
X7440238Y-22174285D01*
X7535476Y-22269523D01*
X7583095Y-22364761D01*
X-15641667Y-20437142D02*
X-15689286Y-20484761D01*
X-15832143Y-20532380D01*
X-15927381Y-20532380D01*
X-16070239Y-20484761D01*
X-16165477Y-20389523D01*
X-16213096Y-20294285D01*
X-16260715Y-20103809D01*
X-16260715Y-19960952D01*
X-16213096Y-19770476D01*
X-16165477Y-19675238D01*
X-16070239Y-19580000D01*
X-15927381Y-19532380D01*
X-15832143Y-19532380D01*
X-15689286Y-19580000D01*
X-15641667Y-19627619D01*
X-14689286Y-20532380D02*
X-15260715Y-20532380D01*
X-14975000Y-20532380D02*
X-14975000Y-19532380D01*
X-15070239Y-19675238D01*
X-15165477Y-19770476D01*
X-15260715Y-19818095D01*
X-18181667Y-16722380D02*
X-18515000Y-16246190D01*
X-18753096Y-16722380D02*
X-18753096Y-15722380D01*
X-18372143Y-15722380D01*
X-18276905Y-15770000D01*
X-18229286Y-15817619D01*
X-18181667Y-15912857D01*
X-18181667Y-16055714D01*
X-18229286Y-16150952D01*
X-18276905Y-16198571D01*
X-18372143Y-16246190D01*
X-18753096Y-16246190D01*
X-17800715Y-15817619D02*
X-17753096Y-15770000D01*
X-17657858Y-15722380D01*
X-17419762Y-15722380D01*
X-17324524Y-15770000D01*
X-17276905Y-15817619D01*
X-17229286Y-15912857D01*
X-17229286Y-16008095D01*
X-17276905Y-16150952D01*
X-17848334Y-16722380D01*
X-17229286Y-16722380D01*
X-18753096Y-11482380D02*
X-18753096Y-10482380D01*
X-18515000Y-10482380D01*
X-18372143Y-10530000D01*
X-18276905Y-10625238D01*
X-18229286Y-10720476D01*
X-18181667Y-10910952D01*
X-18181667Y-11053809D01*
X-18229286Y-11244285D01*
X-18276905Y-11339523D01*
X-18372143Y-11434761D01*
X-18515000Y-11482380D01*
X-18753096Y-11482380D01*
X-17229286Y-11482380D02*
X-17800715Y-11482380D01*
X-17515000Y-11482380D02*
X-17515000Y-10482380D01*
X-17610239Y-10625238D01*
X-17705477Y-10720476D01*
X-17800715Y-10768095D01*
X-15612620Y-14331904D02*
X-14803096Y-14331904D01*
X-14707858Y-14284285D01*
X-14660239Y-14236666D01*
X-14612620Y-14141428D01*
X-14612620Y-13950952D01*
X-14660239Y-13855714D01*
X-14707858Y-13808095D01*
X-14803096Y-13760476D01*
X-15612620Y-13760476D01*
X-14612620Y-12760476D02*
X-14612620Y-13331904D01*
X-14612620Y-13046190D02*
X-15612620Y-13046190D01*
X-15469762Y-13141428D01*
X-15374524Y-13236666D01*
X-15326905Y-13331904D01*
X-4067620Y-13736666D02*
X-4543810Y-14070000D01*
X-4067620Y-14308095D02*
X-5067620Y-14308095D01*
X-5067620Y-13927142D01*
X-5020000Y-13831904D01*
X-4972381Y-13784285D01*
X-4877143Y-13736666D01*
X-4734286Y-13736666D01*
X-4639048Y-13784285D01*
X-4591429Y-13831904D01*
X-4543810Y-13927142D01*
X-4543810Y-14308095D01*
X-4067620Y-12784285D02*
X-4067620Y-13355714D01*
X-4067620Y-13070000D02*
X-5067620Y-13070000D01*
X-4924762Y-13165238D01*
X-4829524Y-13260476D01*
X-4781905Y-13355714D01*
X-17702620Y-22793333D02*
X-16988334Y-22793333D01*
X-16845477Y-22840952D01*
X-16750239Y-22936190D01*
X-16702620Y-23079047D01*
X-16702620Y-23174285D01*
X-16702620Y-21793333D02*
X-16702620Y-22364761D01*
X-16702620Y-22079047D02*
X-17702620Y-22079047D01*
X-17559762Y-22174285D01*
X-17464524Y-22269523D01*
X-17416905Y-22364761D01*
X-40641667Y-20437142D02*
X-40689286Y-20484761D01*
X-40832143Y-20532380D01*
X-40927381Y-20532380D01*
X-41070239Y-20484761D01*
X-41165477Y-20389523D01*
X-41213096Y-20294285D01*
X-41260715Y-20103809D01*
X-41260715Y-19960952D01*
X-41213096Y-19770476D01*
X-41165477Y-19675238D01*
X-41070239Y-19580000D01*
X-40927381Y-19532380D01*
X-40832143Y-19532380D01*
X-40689286Y-19580000D01*
X-40641667Y-19627619D01*
X-39689286Y-20532380D02*
X-40260715Y-20532380D01*
X-39975000Y-20532380D02*
X-39975000Y-19532380D01*
X-40070239Y-19675238D01*
X-40165477Y-19770476D01*
X-40260715Y-19818095D01*
X-43181667Y-16722380D02*
X-43515000Y-16246190D01*
X-43753096Y-16722380D02*
X-43753096Y-15722380D01*
X-43372143Y-15722380D01*
X-43276905Y-15770000D01*
X-43229286Y-15817619D01*
X-43181667Y-15912857D01*
X-43181667Y-16055714D01*
X-43229286Y-16150952D01*
X-43276905Y-16198571D01*
X-43372143Y-16246190D01*
X-43753096Y-16246190D01*
X-42800715Y-15817619D02*
X-42753096Y-15770000D01*
X-42657858Y-15722380D01*
X-42419762Y-15722380D01*
X-42324524Y-15770000D01*
X-42276905Y-15817619D01*
X-42229286Y-15912857D01*
X-42229286Y-16008095D01*
X-42276905Y-16150952D01*
X-42848334Y-16722380D01*
X-42229286Y-16722380D01*
X-43753096Y-11482380D02*
X-43753096Y-10482380D01*
X-43515000Y-10482380D01*
X-43372143Y-10530000D01*
X-43276905Y-10625238D01*
X-43229286Y-10720476D01*
X-43181667Y-10910952D01*
X-43181667Y-11053809D01*
X-43229286Y-11244285D01*
X-43276905Y-11339523D01*
X-43372143Y-11434761D01*
X-43515000Y-11482380D01*
X-43753096Y-11482380D01*
X-42229286Y-11482380D02*
X-42800715Y-11482380D01*
X-42515000Y-11482380D02*
X-42515000Y-10482380D01*
X-42610239Y-10625238D01*
X-42705477Y-10720476D01*
X-42800715Y-10768095D01*
X-40612620Y-14331904D02*
X-39803096Y-14331904D01*
X-39707858Y-14284285D01*
X-39660239Y-14236666D01*
X-39612620Y-14141428D01*
X-39612620Y-13950952D01*
X-39660239Y-13855714D01*
X-39707858Y-13808095D01*
X-39803096Y-13760476D01*
X-40612620Y-13760476D01*
X-39612620Y-12760476D02*
X-39612620Y-13331904D01*
X-39612620Y-13046190D02*
X-40612620Y-13046190D01*
X-40469762Y-13141428D01*
X-40374524Y-13236666D01*
X-40326905Y-13331904D01*
X-29067620Y-13736666D02*
X-29543810Y-14070000D01*
X-29067620Y-14308095D02*
X-30067620Y-14308095D01*
X-30067620Y-13927142D01*
X-30020000Y-13831904D01*
X-29972381Y-13784285D01*
X-29877143Y-13736666D01*
X-29734286Y-13736666D01*
X-29639048Y-13784285D01*
X-29591429Y-13831904D01*
X-29543810Y-13927142D01*
X-29543810Y-14308095D01*
X-29067620Y-12784285D02*
X-29067620Y-13355714D01*
X-29067620Y-13070000D02*
X-30067620Y-13070000D01*
X-29924762Y-13165238D01*
X-29829524Y-13260476D01*
X-29781905Y-13355714D01*
X-42702620Y-22793333D02*
X-41988334Y-22793333D01*
X-41845477Y-22840952D01*
X-41750239Y-22936190D01*
X-41702620Y-23079047D01*
X-41702620Y-23174285D01*
X-41702620Y-21793333D02*
X-41702620Y-22364761D01*
X-41702620Y-22079047D02*
X-42702620Y-22079047D01*
X-42559762Y-22174285D01*
X-42464524Y-22269523D01*
X-42416905Y-22364761D01*
X34358333Y4562858D02*
X34310714Y4515239D01*
X34167857Y4467620D01*
X34072619Y4467620D01*
X33929761Y4515239D01*
X33834523Y4610477D01*
X33786904Y4705715D01*
X33739285Y4896191D01*
X33739285Y5039048D01*
X33786904Y5229524D01*
X33834523Y5324762D01*
X33929761Y5420000D01*
X34072619Y5467620D01*
X34167857Y5467620D01*
X34310714Y5420000D01*
X34358333Y5372381D01*
X35310714Y4467620D02*
X34739285Y4467620D01*
X35025000Y4467620D02*
X35025000Y5467620D01*
X34929761Y5324762D01*
X34834523Y5229524D01*
X34739285Y5181905D01*
X31818333Y8277620D02*
X31485000Y8753810D01*
X31246904Y8277620D02*
X31246904Y9277620D01*
X31627857Y9277620D01*
X31723095Y9230000D01*
X31770714Y9182381D01*
X31818333Y9087143D01*
X31818333Y8944286D01*
X31770714Y8849048D01*
X31723095Y8801429D01*
X31627857Y8753810D01*
X31246904Y8753810D01*
X32199285Y9182381D02*
X32246904Y9230000D01*
X32342142Y9277620D01*
X32580238Y9277620D01*
X32675476Y9230000D01*
X32723095Y9182381D01*
X32770714Y9087143D01*
X32770714Y8991905D01*
X32723095Y8849048D01*
X32151666Y8277620D01*
X32770714Y8277620D01*
X31246904Y13517620D02*
X31246904Y14517620D01*
X31485000Y14517620D01*
X31627857Y14470000D01*
X31723095Y14374762D01*
X31770714Y14279524D01*
X31818333Y14089048D01*
X31818333Y13946191D01*
X31770714Y13755715D01*
X31723095Y13660477D01*
X31627857Y13565239D01*
X31485000Y13517620D01*
X31246904Y13517620D01*
X32770714Y13517620D02*
X32199285Y13517620D01*
X32485000Y13517620D02*
X32485000Y14517620D01*
X32389761Y14374762D01*
X32294523Y14279524D01*
X32199285Y14231905D01*
X34387380Y10668096D02*
X35196904Y10668096D01*
X35292142Y10715715D01*
X35339761Y10763334D01*
X35387380Y10858572D01*
X35387380Y11049048D01*
X35339761Y11144286D01*
X35292142Y11191905D01*
X35196904Y11239524D01*
X34387380Y11239524D01*
X35387380Y12239524D02*
X35387380Y11668096D01*
X35387380Y11953810D02*
X34387380Y11953810D01*
X34530238Y11858572D01*
X34625476Y11763334D01*
X34673095Y11668096D01*
X45932380Y11263334D02*
X45456190Y10930000D01*
X45932380Y10691905D02*
X44932380Y10691905D01*
X44932380Y11072858D01*
X44980000Y11168096D01*
X45027619Y11215715D01*
X45122857Y11263334D01*
X45265714Y11263334D01*
X45360952Y11215715D01*
X45408571Y11168096D01*
X45456190Y11072858D01*
X45456190Y10691905D01*
X45932380Y12215715D02*
X45932380Y11644286D01*
X45932380Y11930000D02*
X44932380Y11930000D01*
X45075238Y11834762D01*
X45170476Y11739524D01*
X45218095Y11644286D01*
X32297380Y2206667D02*
X33011666Y2206667D01*
X33154523Y2159048D01*
X33249761Y2063810D01*
X33297380Y1920953D01*
X33297380Y1825715D01*
X33297380Y3206667D02*
X33297380Y2635239D01*
X33297380Y2920953D02*
X32297380Y2920953D01*
X32440238Y2825715D01*
X32535476Y2730477D01*
X32583095Y2635239D01*
X9358333Y4562858D02*
X9310714Y4515239D01*
X9167857Y4467620D01*
X9072619Y4467620D01*
X8929761Y4515239D01*
X8834523Y4610477D01*
X8786904Y4705715D01*
X8739285Y4896191D01*
X8739285Y5039048D01*
X8786904Y5229524D01*
X8834523Y5324762D01*
X8929761Y5420000D01*
X9072619Y5467620D01*
X9167857Y5467620D01*
X9310714Y5420000D01*
X9358333Y5372381D01*
X10310714Y4467620D02*
X9739285Y4467620D01*
X10025000Y4467620D02*
X10025000Y5467620D01*
X9929761Y5324762D01*
X9834523Y5229524D01*
X9739285Y5181905D01*
X6818333Y8277620D02*
X6485000Y8753810D01*
X6246904Y8277620D02*
X6246904Y9277620D01*
X6627857Y9277620D01*
X6723095Y9230000D01*
X6770714Y9182381D01*
X6818333Y9087143D01*
X6818333Y8944286D01*
X6770714Y8849048D01*
X6723095Y8801429D01*
X6627857Y8753810D01*
X6246904Y8753810D01*
X7199285Y9182381D02*
X7246904Y9230000D01*
X7342142Y9277620D01*
X7580238Y9277620D01*
X7675476Y9230000D01*
X7723095Y9182381D01*
X7770714Y9087143D01*
X7770714Y8991905D01*
X7723095Y8849048D01*
X7151666Y8277620D01*
X7770714Y8277620D01*
X6246904Y13517620D02*
X6246904Y14517620D01*
X6485000Y14517620D01*
X6627857Y14470000D01*
X6723095Y14374762D01*
X6770714Y14279524D01*
X6818333Y14089048D01*
X6818333Y13946191D01*
X6770714Y13755715D01*
X6723095Y13660477D01*
X6627857Y13565239D01*
X6485000Y13517620D01*
X6246904Y13517620D01*
X7770714Y13517620D02*
X7199285Y13517620D01*
X7485000Y13517620D02*
X7485000Y14517620D01*
X7389761Y14374762D01*
X7294523Y14279524D01*
X7199285Y14231905D01*
X9387380Y10668096D02*
X10196904Y10668096D01*
X10292142Y10715715D01*
X10339761Y10763334D01*
X10387380Y10858572D01*
X10387380Y11049048D01*
X10339761Y11144286D01*
X10292142Y11191905D01*
X10196904Y11239524D01*
X9387380Y11239524D01*
X10387380Y12239524D02*
X10387380Y11668096D01*
X10387380Y11953810D02*
X9387380Y11953810D01*
X9530238Y11858572D01*
X9625476Y11763334D01*
X9673095Y11668096D01*
X20932380Y11263334D02*
X20456190Y10930000D01*
X20932380Y10691905D02*
X19932380Y10691905D01*
X19932380Y11072858D01*
X19980000Y11168096D01*
X20027619Y11215715D01*
X20122857Y11263334D01*
X20265714Y11263334D01*
X20360952Y11215715D01*
X20408571Y11168096D01*
X20456190Y11072858D01*
X20456190Y10691905D01*
X20932380Y12215715D02*
X20932380Y11644286D01*
X20932380Y11930000D02*
X19932380Y11930000D01*
X20075238Y11834762D01*
X20170476Y11739524D01*
X20218095Y11644286D01*
X7297380Y2206667D02*
X8011666Y2206667D01*
X8154523Y2159048D01*
X8249761Y2063810D01*
X8297380Y1920953D01*
X8297380Y1825715D01*
X8297380Y3206667D02*
X8297380Y2635239D01*
X8297380Y2920953D02*
X7297380Y2920953D01*
X7440238Y2825715D01*
X7535476Y2730477D01*
X7583095Y2635239D01*
X-15641667Y4562858D02*
X-15689286Y4515239D01*
X-15832143Y4467620D01*
X-15927381Y4467620D01*
X-16070239Y4515239D01*
X-16165477Y4610477D01*
X-16213096Y4705715D01*
X-16260715Y4896191D01*
X-16260715Y5039048D01*
X-16213096Y5229524D01*
X-16165477Y5324762D01*
X-16070239Y5420000D01*
X-15927381Y5467620D01*
X-15832143Y5467620D01*
X-15689286Y5420000D01*
X-15641667Y5372381D01*
X-14689286Y4467620D02*
X-15260715Y4467620D01*
X-14975000Y4467620D02*
X-14975000Y5467620D01*
X-15070239Y5324762D01*
X-15165477Y5229524D01*
X-15260715Y5181905D01*
X-18181667Y8277620D02*
X-18515000Y8753810D01*
X-18753096Y8277620D02*
X-18753096Y9277620D01*
X-18372143Y9277620D01*
X-18276905Y9230000D01*
X-18229286Y9182381D01*
X-18181667Y9087143D01*
X-18181667Y8944286D01*
X-18229286Y8849048D01*
X-18276905Y8801429D01*
X-18372143Y8753810D01*
X-18753096Y8753810D01*
X-17800715Y9182381D02*
X-17753096Y9230000D01*
X-17657858Y9277620D01*
X-17419762Y9277620D01*
X-17324524Y9230000D01*
X-17276905Y9182381D01*
X-17229286Y9087143D01*
X-17229286Y8991905D01*
X-17276905Y8849048D01*
X-17848334Y8277620D01*
X-17229286Y8277620D01*
X-18753096Y13517620D02*
X-18753096Y14517620D01*
X-18515000Y14517620D01*
X-18372143Y14470000D01*
X-18276905Y14374762D01*
X-18229286Y14279524D01*
X-18181667Y14089048D01*
X-18181667Y13946191D01*
X-18229286Y13755715D01*
X-18276905Y13660477D01*
X-18372143Y13565239D01*
X-18515000Y13517620D01*
X-18753096Y13517620D01*
X-17229286Y13517620D02*
X-17800715Y13517620D01*
X-17515000Y13517620D02*
X-17515000Y14517620D01*
X-17610239Y14374762D01*
X-17705477Y14279524D01*
X-17800715Y14231905D01*
X-15612620Y10668096D02*
X-14803096Y10668096D01*
X-14707858Y10715715D01*
X-14660239Y10763334D01*
X-14612620Y10858572D01*
X-14612620Y11049048D01*
X-14660239Y11144286D01*
X-14707858Y11191905D01*
X-14803096Y11239524D01*
X-15612620Y11239524D01*
X-14612620Y12239524D02*
X-14612620Y11668096D01*
X-14612620Y11953810D02*
X-15612620Y11953810D01*
X-15469762Y11858572D01*
X-15374524Y11763334D01*
X-15326905Y11668096D01*
X-4067620Y11263334D02*
X-4543810Y10930000D01*
X-4067620Y10691905D02*
X-5067620Y10691905D01*
X-5067620Y11072858D01*
X-5020000Y11168096D01*
X-4972381Y11215715D01*
X-4877143Y11263334D01*
X-4734286Y11263334D01*
X-4639048Y11215715D01*
X-4591429Y11168096D01*
X-4543810Y11072858D01*
X-4543810Y10691905D01*
X-4067620Y12215715D02*
X-4067620Y11644286D01*
X-4067620Y11930000D02*
X-5067620Y11930000D01*
X-4924762Y11834762D01*
X-4829524Y11739524D01*
X-4781905Y11644286D01*
X-17702620Y2206667D02*
X-16988334Y2206667D01*
X-16845477Y2159048D01*
X-16750239Y2063810D01*
X-16702620Y1920953D01*
X-16702620Y1825715D01*
X-16702620Y3206667D02*
X-16702620Y2635239D01*
X-16702620Y2920953D02*
X-17702620Y2920953D01*
X-17559762Y2825715D01*
X-17464524Y2730477D01*
X-17416905Y2635239D01*
X-40641667Y4562858D02*
X-40689286Y4515239D01*
X-40832143Y4467620D01*
X-40927381Y4467620D01*
X-41070239Y4515239D01*
X-41165477Y4610477D01*
X-41213096Y4705715D01*
X-41260715Y4896191D01*
X-41260715Y5039048D01*
X-41213096Y5229524D01*
X-41165477Y5324762D01*
X-41070239Y5420000D01*
X-40927381Y5467620D01*
X-40832143Y5467620D01*
X-40689286Y5420000D01*
X-40641667Y5372381D01*
X-39689286Y4467620D02*
X-40260715Y4467620D01*
X-39975000Y4467620D02*
X-39975000Y5467620D01*
X-40070239Y5324762D01*
X-40165477Y5229524D01*
X-40260715Y5181905D01*
X-43181667Y8277620D02*
X-43515000Y8753810D01*
X-43753096Y8277620D02*
X-43753096Y9277620D01*
X-43372143Y9277620D01*
X-43276905Y9230000D01*
X-43229286Y9182381D01*
X-43181667Y9087143D01*
X-43181667Y8944286D01*
X-43229286Y8849048D01*
X-43276905Y8801429D01*
X-43372143Y8753810D01*
X-43753096Y8753810D01*
X-42800715Y9182381D02*
X-42753096Y9230000D01*
X-42657858Y9277620D01*
X-42419762Y9277620D01*
X-42324524Y9230000D01*
X-42276905Y9182381D01*
X-42229286Y9087143D01*
X-42229286Y8991905D01*
X-42276905Y8849048D01*
X-42848334Y8277620D01*
X-42229286Y8277620D01*
X-43753096Y13517620D02*
X-43753096Y14517620D01*
X-43515000Y14517620D01*
X-43372143Y14470000D01*
X-43276905Y14374762D01*
X-43229286Y14279524D01*
X-43181667Y14089048D01*
X-43181667Y13946191D01*
X-43229286Y13755715D01*
X-43276905Y13660477D01*
X-43372143Y13565239D01*
X-43515000Y13517620D01*
X-43753096Y13517620D01*
X-42229286Y13517620D02*
X-42800715Y13517620D01*
X-42515000Y13517620D02*
X-42515000Y14517620D01*
X-42610239Y14374762D01*
X-42705477Y14279524D01*
X-42800715Y14231905D01*
X-40612620Y10668096D02*
X-39803096Y10668096D01*
X-39707858Y10715715D01*
X-39660239Y10763334D01*
X-39612620Y10858572D01*
X-39612620Y11049048D01*
X-39660239Y11144286D01*
X-39707858Y11191905D01*
X-39803096Y11239524D01*
X-40612620Y11239524D01*
X-39612620Y12239524D02*
X-39612620Y11668096D01*
X-39612620Y11953810D02*
X-40612620Y11953810D01*
X-40469762Y11858572D01*
X-40374524Y11763334D01*
X-40326905Y11668096D01*
X-29067620Y11263334D02*
X-29543810Y10930000D01*
X-29067620Y10691905D02*
X-30067620Y10691905D01*
X-30067620Y11072858D01*
X-30020000Y11168096D01*
X-29972381Y11215715D01*
X-29877143Y11263334D01*
X-29734286Y11263334D01*
X-29639048Y11215715D01*
X-29591429Y11168096D01*
X-29543810Y11072858D01*
X-29543810Y10691905D01*
X-29067620Y12215715D02*
X-29067620Y11644286D01*
X-29067620Y11930000D02*
X-30067620Y11930000D01*
X-29924762Y11834762D01*
X-29829524Y11739524D01*
X-29781905Y11644286D01*
X-42702620Y2206667D02*
X-41988334Y2206667D01*
X-41845477Y2159048D01*
X-41750239Y2063810D01*
X-41702620Y1920953D01*
X-41702620Y1825715D01*
X-41702620Y3206667D02*
X-41702620Y2635239D01*
X-41702620Y2920953D02*
X-42702620Y2920953D01*
X-42559762Y2825715D01*
X-42464524Y2730477D01*
X-42416905Y2635239D01*
X34358333Y29562858D02*
X34310714Y29515239D01*
X34167857Y29467620D01*
X34072619Y29467620D01*
X33929761Y29515239D01*
X33834523Y29610477D01*
X33786904Y29705715D01*
X33739285Y29896191D01*
X33739285Y30039048D01*
X33786904Y30229524D01*
X33834523Y30324762D01*
X33929761Y30420000D01*
X34072619Y30467620D01*
X34167857Y30467620D01*
X34310714Y30420000D01*
X34358333Y30372381D01*
X35310714Y29467620D02*
X34739285Y29467620D01*
X35025000Y29467620D02*
X35025000Y30467620D01*
X34929761Y30324762D01*
X34834523Y30229524D01*
X34739285Y30181905D01*
X31818333Y33277620D02*
X31485000Y33753810D01*
X31246904Y33277620D02*
X31246904Y34277620D01*
X31627857Y34277620D01*
X31723095Y34230000D01*
X31770714Y34182381D01*
X31818333Y34087143D01*
X31818333Y33944286D01*
X31770714Y33849048D01*
X31723095Y33801429D01*
X31627857Y33753810D01*
X31246904Y33753810D01*
X32199285Y34182381D02*
X32246904Y34230000D01*
X32342142Y34277620D01*
X32580238Y34277620D01*
X32675476Y34230000D01*
X32723095Y34182381D01*
X32770714Y34087143D01*
X32770714Y33991905D01*
X32723095Y33849048D01*
X32151666Y33277620D01*
X32770714Y33277620D01*
X31246904Y38517620D02*
X31246904Y39517620D01*
X31485000Y39517620D01*
X31627857Y39470000D01*
X31723095Y39374762D01*
X31770714Y39279524D01*
X31818333Y39089048D01*
X31818333Y38946191D01*
X31770714Y38755715D01*
X31723095Y38660477D01*
X31627857Y38565239D01*
X31485000Y38517620D01*
X31246904Y38517620D01*
X32770714Y38517620D02*
X32199285Y38517620D01*
X32485000Y38517620D02*
X32485000Y39517620D01*
X32389761Y39374762D01*
X32294523Y39279524D01*
X32199285Y39231905D01*
X34387380Y35668096D02*
X35196904Y35668096D01*
X35292142Y35715715D01*
X35339761Y35763334D01*
X35387380Y35858572D01*
X35387380Y36049048D01*
X35339761Y36144286D01*
X35292142Y36191905D01*
X35196904Y36239524D01*
X34387380Y36239524D01*
X35387380Y37239524D02*
X35387380Y36668096D01*
X35387380Y36953810D02*
X34387380Y36953810D01*
X34530238Y36858572D01*
X34625476Y36763334D01*
X34673095Y36668096D01*
X45932380Y36263334D02*
X45456190Y35930000D01*
X45932380Y35691905D02*
X44932380Y35691905D01*
X44932380Y36072858D01*
X44980000Y36168096D01*
X45027619Y36215715D01*
X45122857Y36263334D01*
X45265714Y36263334D01*
X45360952Y36215715D01*
X45408571Y36168096D01*
X45456190Y36072858D01*
X45456190Y35691905D01*
X45932380Y37215715D02*
X45932380Y36644286D01*
X45932380Y36930000D02*
X44932380Y36930000D01*
X45075238Y36834762D01*
X45170476Y36739524D01*
X45218095Y36644286D01*
X32297380Y27206667D02*
X33011666Y27206667D01*
X33154523Y27159048D01*
X33249761Y27063810D01*
X33297380Y26920953D01*
X33297380Y26825715D01*
X33297380Y28206667D02*
X33297380Y27635239D01*
X33297380Y27920953D02*
X32297380Y27920953D01*
X32440238Y27825715D01*
X32535476Y27730477D01*
X32583095Y27635239D01*
X9358333Y29562858D02*
X9310714Y29515239D01*
X9167857Y29467620D01*
X9072619Y29467620D01*
X8929761Y29515239D01*
X8834523Y29610477D01*
X8786904Y29705715D01*
X8739285Y29896191D01*
X8739285Y30039048D01*
X8786904Y30229524D01*
X8834523Y30324762D01*
X8929761Y30420000D01*
X9072619Y30467620D01*
X9167857Y30467620D01*
X9310714Y30420000D01*
X9358333Y30372381D01*
X10310714Y29467620D02*
X9739285Y29467620D01*
X10025000Y29467620D02*
X10025000Y30467620D01*
X9929761Y30324762D01*
X9834523Y30229524D01*
X9739285Y30181905D01*
X6818333Y33277620D02*
X6485000Y33753810D01*
X6246904Y33277620D02*
X6246904Y34277620D01*
X6627857Y34277620D01*
X6723095Y34230000D01*
X6770714Y34182381D01*
X6818333Y34087143D01*
X6818333Y33944286D01*
X6770714Y33849048D01*
X6723095Y33801429D01*
X6627857Y33753810D01*
X6246904Y33753810D01*
X7199285Y34182381D02*
X7246904Y34230000D01*
X7342142Y34277620D01*
X7580238Y34277620D01*
X7675476Y34230000D01*
X7723095Y34182381D01*
X7770714Y34087143D01*
X7770714Y33991905D01*
X7723095Y33849048D01*
X7151666Y33277620D01*
X7770714Y33277620D01*
X6246904Y38517620D02*
X6246904Y39517620D01*
X6485000Y39517620D01*
X6627857Y39470000D01*
X6723095Y39374762D01*
X6770714Y39279524D01*
X6818333Y39089048D01*
X6818333Y38946191D01*
X6770714Y38755715D01*
X6723095Y38660477D01*
X6627857Y38565239D01*
X6485000Y38517620D01*
X6246904Y38517620D01*
X7770714Y38517620D02*
X7199285Y38517620D01*
X7485000Y38517620D02*
X7485000Y39517620D01*
X7389761Y39374762D01*
X7294523Y39279524D01*
X7199285Y39231905D01*
X9387380Y35668096D02*
X10196904Y35668096D01*
X10292142Y35715715D01*
X10339761Y35763334D01*
X10387380Y35858572D01*
X10387380Y36049048D01*
X10339761Y36144286D01*
X10292142Y36191905D01*
X10196904Y36239524D01*
X9387380Y36239524D01*
X10387380Y37239524D02*
X10387380Y36668096D01*
X10387380Y36953810D02*
X9387380Y36953810D01*
X9530238Y36858572D01*
X9625476Y36763334D01*
X9673095Y36668096D01*
X20932380Y36263334D02*
X20456190Y35930000D01*
X20932380Y35691905D02*
X19932380Y35691905D01*
X19932380Y36072858D01*
X19980000Y36168096D01*
X20027619Y36215715D01*
X20122857Y36263334D01*
X20265714Y36263334D01*
X20360952Y36215715D01*
X20408571Y36168096D01*
X20456190Y36072858D01*
X20456190Y35691905D01*
X20932380Y37215715D02*
X20932380Y36644286D01*
X20932380Y36930000D02*
X19932380Y36930000D01*
X20075238Y36834762D01*
X20170476Y36739524D01*
X20218095Y36644286D01*
X7297380Y27206667D02*
X8011666Y27206667D01*
X8154523Y27159048D01*
X8249761Y27063810D01*
X8297380Y26920953D01*
X8297380Y26825715D01*
X8297380Y28206667D02*
X8297380Y27635239D01*
X8297380Y27920953D02*
X7297380Y27920953D01*
X7440238Y27825715D01*
X7535476Y27730477D01*
X7583095Y27635239D01*
X-15641667Y29562858D02*
X-15689286Y29515239D01*
X-15832143Y29467620D01*
X-15927381Y29467620D01*
X-16070239Y29515239D01*
X-16165477Y29610477D01*
X-16213096Y29705715D01*
X-16260715Y29896191D01*
X-16260715Y30039048D01*
X-16213096Y30229524D01*
X-16165477Y30324762D01*
X-16070239Y30420000D01*
X-15927381Y30467620D01*
X-15832143Y30467620D01*
X-15689286Y30420000D01*
X-15641667Y30372381D01*
X-14689286Y29467620D02*
X-15260715Y29467620D01*
X-14975000Y29467620D02*
X-14975000Y30467620D01*
X-15070239Y30324762D01*
X-15165477Y30229524D01*
X-15260715Y30181905D01*
X-18181667Y33277620D02*
X-18515000Y33753810D01*
X-18753096Y33277620D02*
X-18753096Y34277620D01*
X-18372143Y34277620D01*
X-18276905Y34230000D01*
X-18229286Y34182381D01*
X-18181667Y34087143D01*
X-18181667Y33944286D01*
X-18229286Y33849048D01*
X-18276905Y33801429D01*
X-18372143Y33753810D01*
X-18753096Y33753810D01*
X-17800715Y34182381D02*
X-17753096Y34230000D01*
X-17657858Y34277620D01*
X-17419762Y34277620D01*
X-17324524Y34230000D01*
X-17276905Y34182381D01*
X-17229286Y34087143D01*
X-17229286Y33991905D01*
X-17276905Y33849048D01*
X-17848334Y33277620D01*
X-17229286Y33277620D01*
X-18753096Y38517620D02*
X-18753096Y39517620D01*
X-18515000Y39517620D01*
X-18372143Y39470000D01*
X-18276905Y39374762D01*
X-18229286Y39279524D01*
X-18181667Y39089048D01*
X-18181667Y38946191D01*
X-18229286Y38755715D01*
X-18276905Y38660477D01*
X-18372143Y38565239D01*
X-18515000Y38517620D01*
X-18753096Y38517620D01*
X-17229286Y38517620D02*
X-17800715Y38517620D01*
X-17515000Y38517620D02*
X-17515000Y39517620D01*
X-17610239Y39374762D01*
X-17705477Y39279524D01*
X-17800715Y39231905D01*
X-15612620Y35668096D02*
X-14803096Y35668096D01*
X-14707858Y35715715D01*
X-14660239Y35763334D01*
X-14612620Y35858572D01*
X-14612620Y36049048D01*
X-14660239Y36144286D01*
X-14707858Y36191905D01*
X-14803096Y36239524D01*
X-15612620Y36239524D01*
X-14612620Y37239524D02*
X-14612620Y36668096D01*
X-14612620Y36953810D02*
X-15612620Y36953810D01*
X-15469762Y36858572D01*
X-15374524Y36763334D01*
X-15326905Y36668096D01*
X-4067620Y36263334D02*
X-4543810Y35930000D01*
X-4067620Y35691905D02*
X-5067620Y35691905D01*
X-5067620Y36072858D01*
X-5020000Y36168096D01*
X-4972381Y36215715D01*
X-4877143Y36263334D01*
X-4734286Y36263334D01*
X-4639048Y36215715D01*
X-4591429Y36168096D01*
X-4543810Y36072858D01*
X-4543810Y35691905D01*
X-4067620Y37215715D02*
X-4067620Y36644286D01*
X-4067620Y36930000D02*
X-5067620Y36930000D01*
X-4924762Y36834762D01*
X-4829524Y36739524D01*
X-4781905Y36644286D01*
X-17702620Y27206667D02*
X-16988334Y27206667D01*
X-16845477Y27159048D01*
X-16750239Y27063810D01*
X-16702620Y26920953D01*
X-16702620Y26825715D01*
X-16702620Y28206667D02*
X-16702620Y27635239D01*
X-16702620Y27920953D02*
X-17702620Y27920953D01*
X-17559762Y27825715D01*
X-17464524Y27730477D01*
X-17416905Y27635239D01*
X-40641667Y29562858D02*
X-40689286Y29515239D01*
X-40832143Y29467620D01*
X-40927381Y29467620D01*
X-41070239Y29515239D01*
X-41165477Y29610477D01*
X-41213096Y29705715D01*
X-41260715Y29896191D01*
X-41260715Y30039048D01*
X-41213096Y30229524D01*
X-41165477Y30324762D01*
X-41070239Y30420000D01*
X-40927381Y30467620D01*
X-40832143Y30467620D01*
X-40689286Y30420000D01*
X-40641667Y30372381D01*
X-39689286Y29467620D02*
X-40260715Y29467620D01*
X-39975000Y29467620D02*
X-39975000Y30467620D01*
X-40070239Y30324762D01*
X-40165477Y30229524D01*
X-40260715Y30181905D01*
X-43181667Y33277620D02*
X-43515000Y33753810D01*
X-43753096Y33277620D02*
X-43753096Y34277620D01*
X-43372143Y34277620D01*
X-43276905Y34230000D01*
X-43229286Y34182381D01*
X-43181667Y34087143D01*
X-43181667Y33944286D01*
X-43229286Y33849048D01*
X-43276905Y33801429D01*
X-43372143Y33753810D01*
X-43753096Y33753810D01*
X-42800715Y34182381D02*
X-42753096Y34230000D01*
X-42657858Y34277620D01*
X-42419762Y34277620D01*
X-42324524Y34230000D01*
X-42276905Y34182381D01*
X-42229286Y34087143D01*
X-42229286Y33991905D01*
X-42276905Y33849048D01*
X-42848334Y33277620D01*
X-42229286Y33277620D01*
X-43753096Y38517620D02*
X-43753096Y39517620D01*
X-43515000Y39517620D01*
X-43372143Y39470000D01*
X-43276905Y39374762D01*
X-43229286Y39279524D01*
X-43181667Y39089048D01*
X-43181667Y38946191D01*
X-43229286Y38755715D01*
X-43276905Y38660477D01*
X-43372143Y38565239D01*
X-43515000Y38517620D01*
X-43753096Y38517620D01*
X-42229286Y38517620D02*
X-42800715Y38517620D01*
X-42515000Y38517620D02*
X-42515000Y39517620D01*
X-42610239Y39374762D01*
X-42705477Y39279524D01*
X-42800715Y39231905D01*
X-40612620Y35668096D02*
X-39803096Y35668096D01*
X-39707858Y35715715D01*
X-39660239Y35763334D01*
X-39612620Y35858572D01*
X-39612620Y36049048D01*
X-39660239Y36144286D01*
X-39707858Y36191905D01*
X-39803096Y36239524D01*
X-40612620Y36239524D01*
X-39612620Y37239524D02*
X-39612620Y36668096D01*
X-39612620Y36953810D02*
X-40612620Y36953810D01*
X-40469762Y36858572D01*
X-40374524Y36763334D01*
X-40326905Y36668096D01*
X-29067620Y36263334D02*
X-29543810Y35930000D01*
X-29067620Y35691905D02*
X-30067620Y35691905D01*
X-30067620Y36072858D01*
X-30020000Y36168096D01*
X-29972381Y36215715D01*
X-29877143Y36263334D01*
X-29734286Y36263334D01*
X-29639048Y36215715D01*
X-29591429Y36168096D01*
X-29543810Y36072858D01*
X-29543810Y35691905D01*
X-29067620Y37215715D02*
X-29067620Y36644286D01*
X-29067620Y36930000D02*
X-30067620Y36930000D01*
X-29924762Y36834762D01*
X-29829524Y36739524D01*
X-29781905Y36644286D01*
X-42702620Y27206667D02*
X-41988334Y27206667D01*
X-41845477Y27159048D01*
X-41750239Y27063810D01*
X-41702620Y26920953D01*
X-41702620Y26825715D01*
X-41702620Y28206667D02*
X-41702620Y27635239D01*
X-41702620Y27920953D02*
X-42702620Y27920953D01*
X-42559762Y27825715D01*
X-42464524Y27730477D01*
X-42416905Y27635239D01*
X34358333Y54562858D02*
X34310714Y54515239D01*
X34167857Y54467620D01*
X34072619Y54467620D01*
X33929761Y54515239D01*
X33834523Y54610477D01*
X33786904Y54705715D01*
X33739285Y54896191D01*
X33739285Y55039048D01*
X33786904Y55229524D01*
X33834523Y55324762D01*
X33929761Y55420000D01*
X34072619Y55467620D01*
X34167857Y55467620D01*
X34310714Y55420000D01*
X34358333Y55372381D01*
X35310714Y54467620D02*
X34739285Y54467620D01*
X35025000Y54467620D02*
X35025000Y55467620D01*
X34929761Y55324762D01*
X34834523Y55229524D01*
X34739285Y55181905D01*
X31818333Y58277620D02*
X31485000Y58753810D01*
X31246904Y58277620D02*
X31246904Y59277620D01*
X31627857Y59277620D01*
X31723095Y59230000D01*
X31770714Y59182381D01*
X31818333Y59087143D01*
X31818333Y58944286D01*
X31770714Y58849048D01*
X31723095Y58801429D01*
X31627857Y58753810D01*
X31246904Y58753810D01*
X32199285Y59182381D02*
X32246904Y59230000D01*
X32342142Y59277620D01*
X32580238Y59277620D01*
X32675476Y59230000D01*
X32723095Y59182381D01*
X32770714Y59087143D01*
X32770714Y58991905D01*
X32723095Y58849048D01*
X32151666Y58277620D01*
X32770714Y58277620D01*
X31246904Y63517620D02*
X31246904Y64517620D01*
X31485000Y64517620D01*
X31627857Y64470000D01*
X31723095Y64374762D01*
X31770714Y64279524D01*
X31818333Y64089048D01*
X31818333Y63946191D01*
X31770714Y63755715D01*
X31723095Y63660477D01*
X31627857Y63565239D01*
X31485000Y63517620D01*
X31246904Y63517620D01*
X32770714Y63517620D02*
X32199285Y63517620D01*
X32485000Y63517620D02*
X32485000Y64517620D01*
X32389761Y64374762D01*
X32294523Y64279524D01*
X32199285Y64231905D01*
X34387380Y60668096D02*
X35196904Y60668096D01*
X35292142Y60715715D01*
X35339761Y60763334D01*
X35387380Y60858572D01*
X35387380Y61049048D01*
X35339761Y61144286D01*
X35292142Y61191905D01*
X35196904Y61239524D01*
X34387380Y61239524D01*
X35387380Y62239524D02*
X35387380Y61668096D01*
X35387380Y61953810D02*
X34387380Y61953810D01*
X34530238Y61858572D01*
X34625476Y61763334D01*
X34673095Y61668096D01*
X45932380Y61263334D02*
X45456190Y60930000D01*
X45932380Y60691905D02*
X44932380Y60691905D01*
X44932380Y61072858D01*
X44980000Y61168096D01*
X45027619Y61215715D01*
X45122857Y61263334D01*
X45265714Y61263334D01*
X45360952Y61215715D01*
X45408571Y61168096D01*
X45456190Y61072858D01*
X45456190Y60691905D01*
X45932380Y62215715D02*
X45932380Y61644286D01*
X45932380Y61930000D02*
X44932380Y61930000D01*
X45075238Y61834762D01*
X45170476Y61739524D01*
X45218095Y61644286D01*
X32297380Y52206667D02*
X33011666Y52206667D01*
X33154523Y52159048D01*
X33249761Y52063810D01*
X33297380Y51920953D01*
X33297380Y51825715D01*
X33297380Y53206667D02*
X33297380Y52635239D01*
X33297380Y52920953D02*
X32297380Y52920953D01*
X32440238Y52825715D01*
X32535476Y52730477D01*
X32583095Y52635239D01*
X9358333Y54562858D02*
X9310714Y54515239D01*
X9167857Y54467620D01*
X9072619Y54467620D01*
X8929761Y54515239D01*
X8834523Y54610477D01*
X8786904Y54705715D01*
X8739285Y54896191D01*
X8739285Y55039048D01*
X8786904Y55229524D01*
X8834523Y55324762D01*
X8929761Y55420000D01*
X9072619Y55467620D01*
X9167857Y55467620D01*
X9310714Y55420000D01*
X9358333Y55372381D01*
X10310714Y54467620D02*
X9739285Y54467620D01*
X10025000Y54467620D02*
X10025000Y55467620D01*
X9929761Y55324762D01*
X9834523Y55229524D01*
X9739285Y55181905D01*
X6818333Y58277620D02*
X6485000Y58753810D01*
X6246904Y58277620D02*
X6246904Y59277620D01*
X6627857Y59277620D01*
X6723095Y59230000D01*
X6770714Y59182381D01*
X6818333Y59087143D01*
X6818333Y58944286D01*
X6770714Y58849048D01*
X6723095Y58801429D01*
X6627857Y58753810D01*
X6246904Y58753810D01*
X7199285Y59182381D02*
X7246904Y59230000D01*
X7342142Y59277620D01*
X7580238Y59277620D01*
X7675476Y59230000D01*
X7723095Y59182381D01*
X7770714Y59087143D01*
X7770714Y58991905D01*
X7723095Y58849048D01*
X7151666Y58277620D01*
X7770714Y58277620D01*
X6246904Y63517620D02*
X6246904Y64517620D01*
X6485000Y64517620D01*
X6627857Y64470000D01*
X6723095Y64374762D01*
X6770714Y64279524D01*
X6818333Y64089048D01*
X6818333Y63946191D01*
X6770714Y63755715D01*
X6723095Y63660477D01*
X6627857Y63565239D01*
X6485000Y63517620D01*
X6246904Y63517620D01*
X7770714Y63517620D02*
X7199285Y63517620D01*
X7485000Y63517620D02*
X7485000Y64517620D01*
X7389761Y64374762D01*
X7294523Y64279524D01*
X7199285Y64231905D01*
X9387380Y60668096D02*
X10196904Y60668096D01*
X10292142Y60715715D01*
X10339761Y60763334D01*
X10387380Y60858572D01*
X10387380Y61049048D01*
X10339761Y61144286D01*
X10292142Y61191905D01*
X10196904Y61239524D01*
X9387380Y61239524D01*
X10387380Y62239524D02*
X10387380Y61668096D01*
X10387380Y61953810D02*
X9387380Y61953810D01*
X9530238Y61858572D01*
X9625476Y61763334D01*
X9673095Y61668096D01*
X20932380Y61263334D02*
X20456190Y60930000D01*
X20932380Y60691905D02*
X19932380Y60691905D01*
X19932380Y61072858D01*
X19980000Y61168096D01*
X20027619Y61215715D01*
X20122857Y61263334D01*
X20265714Y61263334D01*
X20360952Y61215715D01*
X20408571Y61168096D01*
X20456190Y61072858D01*
X20456190Y60691905D01*
X20932380Y62215715D02*
X20932380Y61644286D01*
X20932380Y61930000D02*
X19932380Y61930000D01*
X20075238Y61834762D01*
X20170476Y61739524D01*
X20218095Y61644286D01*
X7297380Y52206667D02*
X8011666Y52206667D01*
X8154523Y52159048D01*
X8249761Y52063810D01*
X8297380Y51920953D01*
X8297380Y51825715D01*
X8297380Y53206667D02*
X8297380Y52635239D01*
X8297380Y52920953D02*
X7297380Y52920953D01*
X7440238Y52825715D01*
X7535476Y52730477D01*
X7583095Y52635239D01*
X-15641667Y54562858D02*
X-15689286Y54515239D01*
X-15832143Y54467620D01*
X-15927381Y54467620D01*
X-16070239Y54515239D01*
X-16165477Y54610477D01*
X-16213096Y54705715D01*
X-16260715Y54896191D01*
X-16260715Y55039048D01*
X-16213096Y55229524D01*
X-16165477Y55324762D01*
X-16070239Y55420000D01*
X-15927381Y55467620D01*
X-15832143Y55467620D01*
X-15689286Y55420000D01*
X-15641667Y55372381D01*
X-14689286Y54467620D02*
X-15260715Y54467620D01*
X-14975000Y54467620D02*
X-14975000Y55467620D01*
X-15070239Y55324762D01*
X-15165477Y55229524D01*
X-15260715Y55181905D01*
X-18181667Y58277620D02*
X-18515000Y58753810D01*
X-18753096Y58277620D02*
X-18753096Y59277620D01*
X-18372143Y59277620D01*
X-18276905Y59230000D01*
X-18229286Y59182381D01*
X-18181667Y59087143D01*
X-18181667Y58944286D01*
X-18229286Y58849048D01*
X-18276905Y58801429D01*
X-18372143Y58753810D01*
X-18753096Y58753810D01*
X-17800715Y59182381D02*
X-17753096Y59230000D01*
X-17657858Y59277620D01*
X-17419762Y59277620D01*
X-17324524Y59230000D01*
X-17276905Y59182381D01*
X-17229286Y59087143D01*
X-17229286Y58991905D01*
X-17276905Y58849048D01*
X-17848334Y58277620D01*
X-17229286Y58277620D01*
X-18753096Y63517620D02*
X-18753096Y64517620D01*
X-18515000Y64517620D01*
X-18372143Y64470000D01*
X-18276905Y64374762D01*
X-18229286Y64279524D01*
X-18181667Y64089048D01*
X-18181667Y63946191D01*
X-18229286Y63755715D01*
X-18276905Y63660477D01*
X-18372143Y63565239D01*
X-18515000Y63517620D01*
X-18753096Y63517620D01*
X-17229286Y63517620D02*
X-17800715Y63517620D01*
X-17515000Y63517620D02*
X-17515000Y64517620D01*
X-17610239Y64374762D01*
X-17705477Y64279524D01*
X-17800715Y64231905D01*
X-15612620Y60668096D02*
X-14803096Y60668096D01*
X-14707858Y60715715D01*
X-14660239Y60763334D01*
X-14612620Y60858572D01*
X-14612620Y61049048D01*
X-14660239Y61144286D01*
X-14707858Y61191905D01*
X-14803096Y61239524D01*
X-15612620Y61239524D01*
X-14612620Y62239524D02*
X-14612620Y61668096D01*
X-14612620Y61953810D02*
X-15612620Y61953810D01*
X-15469762Y61858572D01*
X-15374524Y61763334D01*
X-15326905Y61668096D01*
X-4067620Y61263334D02*
X-4543810Y60930000D01*
X-4067620Y60691905D02*
X-5067620Y60691905D01*
X-5067620Y61072858D01*
X-5020000Y61168096D01*
X-4972381Y61215715D01*
X-4877143Y61263334D01*
X-4734286Y61263334D01*
X-4639048Y61215715D01*
X-4591429Y61168096D01*
X-4543810Y61072858D01*
X-4543810Y60691905D01*
X-4067620Y62215715D02*
X-4067620Y61644286D01*
X-4067620Y61930000D02*
X-5067620Y61930000D01*
X-4924762Y61834762D01*
X-4829524Y61739524D01*
X-4781905Y61644286D01*
X-17702620Y52206667D02*
X-16988334Y52206667D01*
X-16845477Y52159048D01*
X-16750239Y52063810D01*
X-16702620Y51920953D01*
X-16702620Y51825715D01*
X-16702620Y53206667D02*
X-16702620Y52635239D01*
X-16702620Y52920953D02*
X-17702620Y52920953D01*
X-17559762Y52825715D01*
X-17464524Y52730477D01*
X-17416905Y52635239D01*
X-43181667Y58277620D02*
X-43515000Y58753810D01*
X-43753096Y58277620D02*
X-43753096Y59277620D01*
X-43372143Y59277620D01*
X-43276905Y59230000D01*
X-43229286Y59182381D01*
X-43181667Y59087143D01*
X-43181667Y58944286D01*
X-43229286Y58849048D01*
X-43276905Y58801429D01*
X-43372143Y58753810D01*
X-43753096Y58753810D01*
X-42800715Y59182381D02*
X-42753096Y59230000D01*
X-42657858Y59277620D01*
X-42419762Y59277620D01*
X-42324524Y59230000D01*
X-42276905Y59182381D01*
X-42229286Y59087143D01*
X-42229286Y58991905D01*
X-42276905Y58849048D01*
X-42848334Y58277620D01*
X-42229286Y58277620D01*
X-40641667Y54562858D02*
X-40689286Y54515239D01*
X-40832143Y54467620D01*
X-40927381Y54467620D01*
X-41070239Y54515239D01*
X-41165477Y54610477D01*
X-41213096Y54705715D01*
X-41260715Y54896191D01*
X-41260715Y55039048D01*
X-41213096Y55229524D01*
X-41165477Y55324762D01*
X-41070239Y55420000D01*
X-40927381Y55467620D01*
X-40832143Y55467620D01*
X-40689286Y55420000D01*
X-40641667Y55372381D01*
X-39689286Y54467620D02*
X-40260715Y54467620D01*
X-39975000Y54467620D02*
X-39975000Y55467620D01*
X-40070239Y55324762D01*
X-40165477Y55229524D01*
X-40260715Y55181905D01*
X-43753096Y63517620D02*
X-43753096Y64517620D01*
X-43515000Y64517620D01*
X-43372143Y64470000D01*
X-43276905Y64374762D01*
X-43229286Y64279524D01*
X-43181667Y64089048D01*
X-43181667Y63946191D01*
X-43229286Y63755715D01*
X-43276905Y63660477D01*
X-43372143Y63565239D01*
X-43515000Y63517620D01*
X-43753096Y63517620D01*
X-42229286Y63517620D02*
X-42800715Y63517620D01*
X-42515000Y63517620D02*
X-42515000Y64517620D01*
X-42610239Y64374762D01*
X-42705477Y64279524D01*
X-42800715Y64231905D01*
X-42702620Y52206667D02*
X-41988334Y52206667D01*
X-41845477Y52159048D01*
X-41750239Y52063810D01*
X-41702620Y51920953D01*
X-41702620Y51825715D01*
X-41702620Y53206667D02*
X-41702620Y52635239D01*
X-41702620Y52920953D02*
X-42702620Y52920953D01*
X-42559762Y52825715D01*
X-42464524Y52730477D01*
X-42416905Y52635239D01*
X-29067620Y61263334D02*
X-29543810Y60930000D01*
X-29067620Y60691905D02*
X-30067620Y60691905D01*
X-30067620Y61072858D01*
X-30020000Y61168096D01*
X-29972381Y61215715D01*
X-29877143Y61263334D01*
X-29734286Y61263334D01*
X-29639048Y61215715D01*
X-29591429Y61168096D01*
X-29543810Y61072858D01*
X-29543810Y60691905D01*
X-29067620Y62215715D02*
X-29067620Y61644286D01*
X-29067620Y61930000D02*
X-30067620Y61930000D01*
X-29924762Y61834762D01*
X-29829524Y61739524D01*
X-29781905Y61644286D01*
X-40612620Y60668096D02*
X-39803096Y60668096D01*
X-39707858Y60715715D01*
X-39660239Y60763334D01*
X-39612620Y60858572D01*
X-39612620Y61049048D01*
X-39660239Y61144286D01*
X-39707858Y61191905D01*
X-39803096Y61239524D01*
X-40612620Y61239524D01*
X-39612620Y62239524D02*
X-39612620Y61668096D01*
X-39612620Y61953810D02*
X-40612620Y61953810D01*
X-40469762Y61858572D01*
X-40374524Y61763334D01*
X-40326905Y61668096D01*
D11*
X34671267Y-19160000D02*
X34378733Y-19160000D01*
X34671267Y-18140000D02*
X34378733Y-18140000D01*
X32239724Y-15362500D02*
X31730276Y-15362500D01*
X32239724Y-14317500D02*
X31730276Y-14317500D01*
X31185000Y-13670000D02*
X33645000Y-13670000D01*
X33645000Y-13670000D02*
X33645000Y-12200000D01*
X33645000Y-12200000D02*
X31185000Y-12200000D01*
X35775000Y-13570000D02*
X35775000Y-11620000D01*
X35775000Y-13570000D02*
X35775000Y-17020000D01*
X40895000Y-13570000D02*
X40895000Y-15520000D01*
X40895000Y-13570000D02*
X40895000Y-11620000D01*
X44572500Y-13315276D02*
X44572500Y-13824724D01*
X43527500Y-13315276D02*
X43527500Y-13824724D01*
X35175000Y-23790000D02*
X33845000Y-23790000D01*
X36445000Y-23790000D02*
X36445000Y-21130000D01*
X36445000Y-21130000D02*
X41585000Y-21130000D01*
X36445000Y-23790000D02*
X41585000Y-23790000D01*
X41585000Y-23790000D02*
X41585000Y-21130000D01*
X33845000Y-23790000D02*
X33845000Y-22460000D01*
X9671267Y-19160000D02*
X9378733Y-19160000D01*
X9671267Y-18140000D02*
X9378733Y-18140000D01*
X7239724Y-15362500D02*
X6730276Y-15362500D01*
X7239724Y-14317500D02*
X6730276Y-14317500D01*
X6185000Y-13670000D02*
X8645000Y-13670000D01*
X8645000Y-13670000D02*
X8645000Y-12200000D01*
X8645000Y-12200000D02*
X6185000Y-12200000D01*
X10775000Y-13570000D02*
X10775000Y-11620000D01*
X10775000Y-13570000D02*
X10775000Y-17020000D01*
X15895000Y-13570000D02*
X15895000Y-15520000D01*
X15895000Y-13570000D02*
X15895000Y-11620000D01*
X19572500Y-13315276D02*
X19572500Y-13824724D01*
X18527500Y-13315276D02*
X18527500Y-13824724D01*
X10175000Y-23790000D02*
X8845000Y-23790000D01*
X11445000Y-23790000D02*
X11445000Y-21130000D01*
X11445000Y-21130000D02*
X16585000Y-21130000D01*
X11445000Y-23790000D02*
X16585000Y-23790000D01*
X16585000Y-23790000D02*
X16585000Y-21130000D01*
X8845000Y-23790000D02*
X8845000Y-22460000D01*
X-15328733Y-19160000D02*
X-15621267Y-19160000D01*
X-15328733Y-18140000D02*
X-15621267Y-18140000D01*
X-17760276Y-15362500D02*
X-18269724Y-15362500D01*
X-17760276Y-14317500D02*
X-18269724Y-14317500D01*
X-18815000Y-13670000D02*
X-16355000Y-13670000D01*
X-16355000Y-13670000D02*
X-16355000Y-12200000D01*
X-16355000Y-12200000D02*
X-18815000Y-12200000D01*
X-14225000Y-13570000D02*
X-14225000Y-11620000D01*
X-14225000Y-13570000D02*
X-14225000Y-17020000D01*
X-9105000Y-13570000D02*
X-9105000Y-15520000D01*
X-9105000Y-13570000D02*
X-9105000Y-11620000D01*
X-5427500Y-13315276D02*
X-5427500Y-13824724D01*
X-6472500Y-13315276D02*
X-6472500Y-13824724D01*
X-14825000Y-23790000D02*
X-16155000Y-23790000D01*
X-13555000Y-23790000D02*
X-13555000Y-21130000D01*
X-13555000Y-21130000D02*
X-8415000Y-21130000D01*
X-13555000Y-23790000D02*
X-8415000Y-23790000D01*
X-8415000Y-23790000D02*
X-8415000Y-21130000D01*
X-16155000Y-23790000D02*
X-16155000Y-22460000D01*
X-40328733Y-19160000D02*
X-40621267Y-19160000D01*
X-40328733Y-18140000D02*
X-40621267Y-18140000D01*
X-42760276Y-15362500D02*
X-43269724Y-15362500D01*
X-42760276Y-14317500D02*
X-43269724Y-14317500D01*
X-43815000Y-13670000D02*
X-41355000Y-13670000D01*
X-41355000Y-13670000D02*
X-41355000Y-12200000D01*
X-41355000Y-12200000D02*
X-43815000Y-12200000D01*
X-39225000Y-13570000D02*
X-39225000Y-11620000D01*
X-39225000Y-13570000D02*
X-39225000Y-17020000D01*
X-34105000Y-13570000D02*
X-34105000Y-15520000D01*
X-34105000Y-13570000D02*
X-34105000Y-11620000D01*
X-30427500Y-13315276D02*
X-30427500Y-13824724D01*
X-31472500Y-13315276D02*
X-31472500Y-13824724D01*
X-39825000Y-23790000D02*
X-41155000Y-23790000D01*
X-38555000Y-23790000D02*
X-38555000Y-21130000D01*
X-38555000Y-21130000D02*
X-33415000Y-21130000D01*
X-38555000Y-23790000D02*
X-33415000Y-23790000D01*
X-33415000Y-23790000D02*
X-33415000Y-21130000D01*
X-41155000Y-23790000D02*
X-41155000Y-22460000D01*
X34671267Y5840000D02*
X34378733Y5840000D01*
X34671267Y6860000D02*
X34378733Y6860000D01*
X32239724Y9637500D02*
X31730276Y9637500D01*
X32239724Y10682500D02*
X31730276Y10682500D01*
X31185000Y11330000D02*
X33645000Y11330000D01*
X33645000Y11330000D02*
X33645000Y12800000D01*
X33645000Y12800000D02*
X31185000Y12800000D01*
X35775000Y11430000D02*
X35775000Y13380000D01*
X35775000Y11430000D02*
X35775000Y7980000D01*
X40895000Y11430000D02*
X40895000Y9480000D01*
X40895000Y11430000D02*
X40895000Y13380000D01*
X44572500Y11684724D02*
X44572500Y11175276D01*
X43527500Y11684724D02*
X43527500Y11175276D01*
X35175000Y1210000D02*
X33845000Y1210000D01*
X36445000Y1210000D02*
X36445000Y3870000D01*
X36445000Y3870000D02*
X41585000Y3870000D01*
X36445000Y1210000D02*
X41585000Y1210000D01*
X41585000Y1210000D02*
X41585000Y3870000D01*
X33845000Y1210000D02*
X33845000Y2540000D01*
X9671267Y5840000D02*
X9378733Y5840000D01*
X9671267Y6860000D02*
X9378733Y6860000D01*
X7239724Y9637500D02*
X6730276Y9637500D01*
X7239724Y10682500D02*
X6730276Y10682500D01*
X6185000Y11330000D02*
X8645000Y11330000D01*
X8645000Y11330000D02*
X8645000Y12800000D01*
X8645000Y12800000D02*
X6185000Y12800000D01*
X10775000Y11430000D02*
X10775000Y13380000D01*
X10775000Y11430000D02*
X10775000Y7980000D01*
X15895000Y11430000D02*
X15895000Y9480000D01*
X15895000Y11430000D02*
X15895000Y13380000D01*
X19572500Y11684724D02*
X19572500Y11175276D01*
X18527500Y11684724D02*
X18527500Y11175276D01*
X10175000Y1210000D02*
X8845000Y1210000D01*
X11445000Y1210000D02*
X11445000Y3870000D01*
X11445000Y3870000D02*
X16585000Y3870000D01*
X11445000Y1210000D02*
X16585000Y1210000D01*
X16585000Y1210000D02*
X16585000Y3870000D01*
X8845000Y1210000D02*
X8845000Y2540000D01*
X-15328733Y5840000D02*
X-15621267Y5840000D01*
X-15328733Y6860000D02*
X-15621267Y6860000D01*
X-17760276Y9637500D02*
X-18269724Y9637500D01*
X-17760276Y10682500D02*
X-18269724Y10682500D01*
X-18815000Y11330000D02*
X-16355000Y11330000D01*
X-16355000Y11330000D02*
X-16355000Y12800000D01*
X-16355000Y12800000D02*
X-18815000Y12800000D01*
X-14225000Y11430000D02*
X-14225000Y13380000D01*
X-14225000Y11430000D02*
X-14225000Y7980000D01*
X-9105000Y11430000D02*
X-9105000Y9480000D01*
X-9105000Y11430000D02*
X-9105000Y13380000D01*
X-5427500Y11684724D02*
X-5427500Y11175276D01*
X-6472500Y11684724D02*
X-6472500Y11175276D01*
X-14825000Y1210000D02*
X-16155000Y1210000D01*
X-13555000Y1210000D02*
X-13555000Y3870000D01*
X-13555000Y3870000D02*
X-8415000Y3870000D01*
X-13555000Y1210000D02*
X-8415000Y1210000D01*
X-8415000Y1210000D02*
X-8415000Y3870000D01*
X-16155000Y1210000D02*
X-16155000Y2540000D01*
X-40328733Y5840000D02*
X-40621267Y5840000D01*
X-40328733Y6860000D02*
X-40621267Y6860000D01*
X-42760276Y9637500D02*
X-43269724Y9637500D01*
X-42760276Y10682500D02*
X-43269724Y10682500D01*
X-43815000Y11330000D02*
X-41355000Y11330000D01*
X-41355000Y11330000D02*
X-41355000Y12800000D01*
X-41355000Y12800000D02*
X-43815000Y12800000D01*
X-39225000Y11430000D02*
X-39225000Y13380000D01*
X-39225000Y11430000D02*
X-39225000Y7980000D01*
X-34105000Y11430000D02*
X-34105000Y9480000D01*
X-34105000Y11430000D02*
X-34105000Y13380000D01*
X-30427500Y11684724D02*
X-30427500Y11175276D01*
X-31472500Y11684724D02*
X-31472500Y11175276D01*
X-39825000Y1210000D02*
X-41155000Y1210000D01*
X-38555000Y1210000D02*
X-38555000Y3870000D01*
X-38555000Y3870000D02*
X-33415000Y3870000D01*
X-38555000Y1210000D02*
X-33415000Y1210000D01*
X-33415000Y1210000D02*
X-33415000Y3870000D01*
X-41155000Y1210000D02*
X-41155000Y2540000D01*
X34671267Y30840000D02*
X34378733Y30840000D01*
X34671267Y31860000D02*
X34378733Y31860000D01*
X32239724Y34637500D02*
X31730276Y34637500D01*
X32239724Y35682500D02*
X31730276Y35682500D01*
X31185000Y36330000D02*
X33645000Y36330000D01*
X33645000Y36330000D02*
X33645000Y37800000D01*
X33645000Y37800000D02*
X31185000Y37800000D01*
X35775000Y36430000D02*
X35775000Y38380000D01*
X35775000Y36430000D02*
X35775000Y32980000D01*
X40895000Y36430000D02*
X40895000Y34480000D01*
X40895000Y36430000D02*
X40895000Y38380000D01*
X44572500Y36684724D02*
X44572500Y36175276D01*
X43527500Y36684724D02*
X43527500Y36175276D01*
X35175000Y26210000D02*
X33845000Y26210000D01*
X36445000Y26210000D02*
X36445000Y28870000D01*
X36445000Y28870000D02*
X41585000Y28870000D01*
X36445000Y26210000D02*
X41585000Y26210000D01*
X41585000Y26210000D02*
X41585000Y28870000D01*
X33845000Y26210000D02*
X33845000Y27540000D01*
X9671267Y30840000D02*
X9378733Y30840000D01*
X9671267Y31860000D02*
X9378733Y31860000D01*
X7239724Y34637500D02*
X6730276Y34637500D01*
X7239724Y35682500D02*
X6730276Y35682500D01*
X6185000Y36330000D02*
X8645000Y36330000D01*
X8645000Y36330000D02*
X8645000Y37800000D01*
X8645000Y37800000D02*
X6185000Y37800000D01*
X10775000Y36430000D02*
X10775000Y38380000D01*
X10775000Y36430000D02*
X10775000Y32980000D01*
X15895000Y36430000D02*
X15895000Y34480000D01*
X15895000Y36430000D02*
X15895000Y38380000D01*
X19572500Y36684724D02*
X19572500Y36175276D01*
X18527500Y36684724D02*
X18527500Y36175276D01*
X10175000Y26210000D02*
X8845000Y26210000D01*
X11445000Y26210000D02*
X11445000Y28870000D01*
X11445000Y28870000D02*
X16585000Y28870000D01*
X11445000Y26210000D02*
X16585000Y26210000D01*
X16585000Y26210000D02*
X16585000Y28870000D01*
X8845000Y26210000D02*
X8845000Y27540000D01*
X-15328733Y30840000D02*
X-15621267Y30840000D01*
X-15328733Y31860000D02*
X-15621267Y31860000D01*
X-17760276Y34637500D02*
X-18269724Y34637500D01*
X-17760276Y35682500D02*
X-18269724Y35682500D01*
X-18815000Y36330000D02*
X-16355000Y36330000D01*
X-16355000Y36330000D02*
X-16355000Y37800000D01*
X-16355000Y37800000D02*
X-18815000Y37800000D01*
X-14225000Y36430000D02*
X-14225000Y38380000D01*
X-14225000Y36430000D02*
X-14225000Y32980000D01*
X-9105000Y36430000D02*
X-9105000Y34480000D01*
X-9105000Y36430000D02*
X-9105000Y38380000D01*
X-5427500Y36684724D02*
X-5427500Y36175276D01*
X-6472500Y36684724D02*
X-6472500Y36175276D01*
X-14825000Y26210000D02*
X-16155000Y26210000D01*
X-13555000Y26210000D02*
X-13555000Y28870000D01*
X-13555000Y28870000D02*
X-8415000Y28870000D01*
X-13555000Y26210000D02*
X-8415000Y26210000D01*
X-8415000Y26210000D02*
X-8415000Y28870000D01*
X-16155000Y26210000D02*
X-16155000Y27540000D01*
X-40328733Y30840000D02*
X-40621267Y30840000D01*
X-40328733Y31860000D02*
X-40621267Y31860000D01*
X-42760276Y34637500D02*
X-43269724Y34637500D01*
X-42760276Y35682500D02*
X-43269724Y35682500D01*
X-43815000Y36330000D02*
X-41355000Y36330000D01*
X-41355000Y36330000D02*
X-41355000Y37800000D01*
X-41355000Y37800000D02*
X-43815000Y37800000D01*
X-39225000Y36430000D02*
X-39225000Y38380000D01*
X-39225000Y36430000D02*
X-39225000Y32980000D01*
X-34105000Y36430000D02*
X-34105000Y34480000D01*
X-34105000Y36430000D02*
X-34105000Y38380000D01*
X-30427500Y36684724D02*
X-30427500Y36175276D01*
X-31472500Y36684724D02*
X-31472500Y36175276D01*
X-39825000Y26210000D02*
X-41155000Y26210000D01*
X-38555000Y26210000D02*
X-38555000Y28870000D01*
X-38555000Y28870000D02*
X-33415000Y28870000D01*
X-38555000Y26210000D02*
X-33415000Y26210000D01*
X-33415000Y26210000D02*
X-33415000Y28870000D01*
X-41155000Y26210000D02*
X-41155000Y27540000D01*
X34671267Y55840000D02*
X34378733Y55840000D01*
X34671267Y56860000D02*
X34378733Y56860000D01*
X32239724Y59637500D02*
X31730276Y59637500D01*
X32239724Y60682500D02*
X31730276Y60682500D01*
X31185000Y61330000D02*
X33645000Y61330000D01*
X33645000Y61330000D02*
X33645000Y62800000D01*
X33645000Y62800000D02*
X31185000Y62800000D01*
X35775000Y61430000D02*
X35775000Y63380000D01*
X35775000Y61430000D02*
X35775000Y57980000D01*
X40895000Y61430000D02*
X40895000Y59480000D01*
X40895000Y61430000D02*
X40895000Y63380000D01*
X44572500Y61684724D02*
X44572500Y61175276D01*
X43527500Y61684724D02*
X43527500Y61175276D01*
X35175000Y51210000D02*
X33845000Y51210000D01*
X36445000Y51210000D02*
X36445000Y53870000D01*
X36445000Y53870000D02*
X41585000Y53870000D01*
X36445000Y51210000D02*
X41585000Y51210000D01*
X41585000Y51210000D02*
X41585000Y53870000D01*
X33845000Y51210000D02*
X33845000Y52540000D01*
X9671267Y55840000D02*
X9378733Y55840000D01*
X9671267Y56860000D02*
X9378733Y56860000D01*
X7239724Y59637500D02*
X6730276Y59637500D01*
X7239724Y60682500D02*
X6730276Y60682500D01*
X6185000Y61330000D02*
X8645000Y61330000D01*
X8645000Y61330000D02*
X8645000Y62800000D01*
X8645000Y62800000D02*
X6185000Y62800000D01*
X10775000Y61430000D02*
X10775000Y63380000D01*
X10775000Y61430000D02*
X10775000Y57980000D01*
X15895000Y61430000D02*
X15895000Y59480000D01*
X15895000Y61430000D02*
X15895000Y63380000D01*
X19572500Y61684724D02*
X19572500Y61175276D01*
X18527500Y61684724D02*
X18527500Y61175276D01*
X10175000Y51210000D02*
X8845000Y51210000D01*
X11445000Y51210000D02*
X11445000Y53870000D01*
X11445000Y53870000D02*
X16585000Y53870000D01*
X11445000Y51210000D02*
X16585000Y51210000D01*
X16585000Y51210000D02*
X16585000Y53870000D01*
X8845000Y51210000D02*
X8845000Y52540000D01*
X-15328733Y55840000D02*
X-15621267Y55840000D01*
X-15328733Y56860000D02*
X-15621267Y56860000D01*
X-17760276Y59637500D02*
X-18269724Y59637500D01*
X-17760276Y60682500D02*
X-18269724Y60682500D01*
X-18815000Y61330000D02*
X-16355000Y61330000D01*
X-16355000Y61330000D02*
X-16355000Y62800000D01*
X-16355000Y62800000D02*
X-18815000Y62800000D01*
X-14225000Y61430000D02*
X-14225000Y63380000D01*
X-14225000Y61430000D02*
X-14225000Y57980000D01*
X-9105000Y61430000D02*
X-9105000Y59480000D01*
X-9105000Y61430000D02*
X-9105000Y63380000D01*
X-5427500Y61684724D02*
X-5427500Y61175276D01*
X-6472500Y61684724D02*
X-6472500Y61175276D01*
X-14825000Y51210000D02*
X-16155000Y51210000D01*
X-13555000Y51210000D02*
X-13555000Y53870000D01*
X-13555000Y53870000D02*
X-8415000Y53870000D01*
X-13555000Y51210000D02*
X-8415000Y51210000D01*
X-8415000Y51210000D02*
X-8415000Y53870000D01*
X-16155000Y51210000D02*
X-16155000Y52540000D01*
X-42760276Y59637500D02*
X-43269724Y59637500D01*
X-42760276Y60682500D02*
X-43269724Y60682500D01*
X-40328733Y55840000D02*
X-40621267Y55840000D01*
X-40328733Y56860000D02*
X-40621267Y56860000D01*
X-43815000Y61330000D02*
X-41355000Y61330000D01*
X-41355000Y61330000D02*
X-41355000Y62800000D01*
X-41355000Y62800000D02*
X-43815000Y62800000D01*
X-39825000Y51210000D02*
X-41155000Y51210000D01*
X-38555000Y51210000D02*
X-38555000Y53870000D01*
X-38555000Y53870000D02*
X-33415000Y53870000D01*
X-38555000Y51210000D02*
X-33415000Y51210000D01*
X-33415000Y51210000D02*
X-33415000Y53870000D01*
X-41155000Y51210000D02*
X-41155000Y52540000D01*
X-30427500Y61684724D02*
X-30427500Y61175276D01*
X-31472500Y61684724D02*
X-31472500Y61175276D01*
X-39225000Y61430000D02*
X-39225000Y63380000D01*
X-39225000Y61430000D02*
X-39225000Y57980000D01*
X-34105000Y61430000D02*
X-34105000Y59480000D01*
X-34105000Y61430000D02*
X-34105000Y63380000D01*
M02*
