M48
; DRILL file {KiCad (6.0.6)} date Fri Aug 12 15:00:31 2022
; FORMAT={-:-/ absolute / metric / decimal}
; #@! TF.CreationDate,2022-08-12T15:00:31+09:00
; #@! TF.GenerationSoftware,Kicad,Pcbnew,(6.0.6)
; #@! TF.FileFunction,MixedPlating,1,2
FMAT,2
METRIC
; #@! TA.AperFunction,Plated,PTH,ViaDrill
T1C0.300
; #@! TA.AperFunction,Plated,PTH,ComponentDrill
T2C1.000
; #@! TA.AperFunction,NonPlated,NPTH,ComponentDrill
T3C3.200
%
G90
G05
T1
X-46.825Y60.795
X-46.825Y53.81
X-46.825Y35.795
X-46.825Y28.81
X-46.825Y10.795
X-46.825Y3.81
X-46.825Y-14.205
X-46.825Y-21.19
X-37.935Y70.32
X-37.935Y45.32
X-37.935Y20.32
X-37.935Y-4.68
X-28.41Y70.32
X-28.41Y63.97
X-28.41Y53.81
X-28.41Y45.32
X-28.41Y38.97
X-28.41Y28.81
X-28.41Y20.32
X-28.41Y13.97
X-28.41Y3.81
X-28.41Y-4.68
X-28.41Y-11.03
X-28.41Y-21.19
X-21.825Y60.795
X-21.825Y53.81
X-21.825Y35.795
X-21.825Y28.81
X-21.825Y10.795
X-21.825Y3.81
X-21.825Y-14.205
X-21.825Y-21.19
X-12.935Y70.32
X-12.935Y45.32
X-12.935Y20.32
X-12.935Y-4.68
X-3.41Y70.32
X-3.41Y63.97
X-3.41Y53.81
X-3.41Y45.32
X-3.41Y38.97
X-3.41Y28.81
X-3.41Y20.32
X-3.41Y13.97
X-3.41Y3.81
X-3.41Y-4.68
X-3.41Y-11.03
X-3.41Y-21.19
X3.175Y60.795
X3.175Y53.81
X3.175Y35.795
X3.175Y28.81
X3.175Y10.795
X3.175Y3.81
X3.175Y-14.205
X3.175Y-21.19
X12.065Y70.32
X12.065Y45.32
X12.065Y20.32
X12.065Y-4.68
X21.59Y70.32
X21.59Y63.97
X21.59Y53.81
X21.59Y45.32
X21.59Y38.97
X21.59Y28.81
X21.59Y20.32
X21.59Y13.97
X21.59Y3.81
X21.59Y-4.68
X21.59Y-11.03
X21.59Y-21.19
X28.175Y60.795
X28.175Y53.81
X28.175Y35.795
X28.175Y28.81
X28.175Y10.795
X28.175Y3.81
X28.175Y-14.205
X28.175Y-21.19
X37.065Y70.32
X37.065Y45.32
X37.065Y20.32
X37.065Y-4.68
X46.59Y70.32
X46.59Y63.97
X46.59Y53.81
X46.59Y45.32
X46.59Y38.97
X46.59Y28.81
X46.59Y20.32
X46.59Y13.97
X46.59Y3.81
X46.59Y-4.68
X46.59Y-11.03
X46.59Y-21.19
T2
X-39.825Y52.54
X-39.825Y27.54
X-39.825Y2.54
X-39.825Y-22.46
X-37.285Y52.54
X-37.285Y27.54
X-37.285Y2.54
X-37.285Y-22.46
X-34.745Y52.54
X-34.745Y27.54
X-34.745Y2.54
X-34.745Y-22.46
X-14.825Y52.54
X-14.825Y27.54
X-14.825Y2.54
X-14.825Y-22.46
X-12.285Y52.54
X-12.285Y27.54
X-12.285Y2.54
X-12.285Y-22.46
X-9.745Y52.54
X-9.745Y27.54
X-9.745Y2.54
X-9.745Y-22.46
X10.175Y52.54
X10.175Y27.54
X10.175Y2.54
X10.175Y-22.46
X12.715Y52.54
X12.715Y27.54
X12.715Y2.54
X12.715Y-22.46
X15.255Y52.54
X15.255Y27.54
X15.255Y2.54
X15.255Y-22.46
X35.175Y52.54
X35.175Y27.54
X35.175Y2.54
X35.175Y-22.46
X37.715Y52.54
X37.715Y27.54
X37.715Y2.54
X37.715Y-22.46
X40.255Y52.54
X40.255Y27.54
X40.255Y2.54
X40.255Y-22.46
T3
X-45.0Y70.0
X-45.0Y45.0
X-45.0Y20.0
X-45.0Y-5.0
X-20.0Y70.0
X-20.0Y45.0
X-20.0Y20.0
X-20.0Y-5.0
X5.0Y70.0
X5.0Y45.0
X5.0Y20.0
X5.0Y-5.0
X30.0Y70.0
X30.0Y45.0
X30.0Y20.0
X30.0Y-5.0
T0
M30
