G04 #@! TF.GenerationSoftware,KiCad,Pcbnew,(6.0.6)*
G04 #@! TF.CreationDate,2022-08-12T14:57:57+09:00*
G04 #@! TF.ProjectId,tutorial1-PNLZ,7475746f-7269-4616-9c31-2d504e4c5a2e,1*
G04 #@! TF.SameCoordinates,PX7bfa480PY7bfa480*
G04 #@! TF.FileFunction,Profile,NP*
%FSLAX46Y46*%
G04 Gerber Fmt 4.6, Leading zero omitted, Abs format (unit mm)*
G04 Created by KiCad (PCBNEW (6.0.6)) date 2022-08-12 14:57:57*
%MOMM*%
%LPD*%
G01*
G04 APERTURE LIST*
%ADD10C,0.300000*%
G04 #@! TA.AperFunction,Profile*
%ADD11C,0.100000*%
G04 #@! TD*
G04 APERTURE END LIST*
D10*
X-30214286Y-28904761D02*
X-29547620Y-30904761D01*
X-28880953Y-28904761D01*
X-28214286Y-30142857D02*
X-26690477Y-30142857D01*
X-24595239Y-30714285D02*
X-24690477Y-30809523D01*
X-24976191Y-30904761D01*
X-25166667Y-30904761D01*
X-25452381Y-30809523D01*
X-25642858Y-30619047D01*
X-25738096Y-30428571D01*
X-25833334Y-30047619D01*
X-25833334Y-29761904D01*
X-25738096Y-29380952D01*
X-25642858Y-29190476D01*
X-25452381Y-29000000D01*
X-25166667Y-28904761D01*
X-24976191Y-28904761D01*
X-24690477Y-29000000D01*
X-24595239Y-29095238D01*
X-23738096Y-28904761D02*
X-23738096Y-30523809D01*
X-23642858Y-30714285D01*
X-23547620Y-30809523D01*
X-23357143Y-30904761D01*
X-22976191Y-30904761D01*
X-22785715Y-30809523D01*
X-22690477Y-30714285D01*
X-22595239Y-30523809D01*
X-22595239Y-28904761D01*
X-21928572Y-28904761D02*
X-20785715Y-28904761D01*
X-21357143Y-30904761D02*
X-21357143Y-28904761D01*
X-4714286Y-28904761D02*
X-4047620Y-30904761D01*
X-3380953Y-28904761D01*
X-2714286Y-30142857D02*
X-1190477Y-30142857D01*
X904761Y-30714285D02*
X809523Y-30809523D01*
X523809Y-30904761D01*
X333333Y-30904761D01*
X47619Y-30809523D01*
X-142858Y-30619047D01*
X-238096Y-30428571D01*
X-333334Y-30047619D01*
X-333334Y-29761904D01*
X-238096Y-29380952D01*
X-142858Y-29190476D01*
X47619Y-29000000D01*
X333333Y-28904761D01*
X523809Y-28904761D01*
X809523Y-29000000D01*
X904761Y-29095238D01*
X1761904Y-28904761D02*
X1761904Y-30523809D01*
X1857142Y-30714285D01*
X1952380Y-30809523D01*
X2142857Y-30904761D01*
X2523809Y-30904761D01*
X2714285Y-30809523D01*
X2809523Y-30714285D01*
X2904761Y-30523809D01*
X2904761Y-28904761D01*
X3571428Y-28904761D02*
X4714285Y-28904761D01*
X4142857Y-30904761D02*
X4142857Y-28904761D01*
X20285714Y-28904761D02*
X20952380Y-30904761D01*
X21619047Y-28904761D01*
X22285714Y-30142857D02*
X23809523Y-30142857D01*
X25904761Y-30714285D02*
X25809523Y-30809523D01*
X25523809Y-30904761D01*
X25333333Y-30904761D01*
X25047619Y-30809523D01*
X24857142Y-30619047D01*
X24761904Y-30428571D01*
X24666666Y-30047619D01*
X24666666Y-29761904D01*
X24761904Y-29380952D01*
X24857142Y-29190476D01*
X25047619Y-29000000D01*
X25333333Y-28904761D01*
X25523809Y-28904761D01*
X25809523Y-29000000D01*
X25904761Y-29095238D01*
X26761904Y-28904761D02*
X26761904Y-30523809D01*
X26857142Y-30714285D01*
X26952380Y-30809523D01*
X27142857Y-30904761D01*
X27523809Y-30904761D01*
X27714285Y-30809523D01*
X27809523Y-30714285D01*
X27904761Y-30523809D01*
X27904761Y-28904761D01*
X28571428Y-28904761D02*
X29714285Y-28904761D01*
X29142857Y-30904761D02*
X29142857Y-28904761D01*
X53785714Y1095239D02*
X54452380Y-904761D01*
X55119047Y1095239D01*
X55785714Y-142857D02*
X57309523Y-142857D01*
X59404761Y-714285D02*
X59309523Y-809523D01*
X59023809Y-904761D01*
X58833333Y-904761D01*
X58547619Y-809523D01*
X58357142Y-619047D01*
X58261904Y-428571D01*
X58166666Y-47619D01*
X58166666Y238096D01*
X58261904Y619048D01*
X58357142Y809524D01*
X58547619Y1000000D01*
X58833333Y1095239D01*
X59023809Y1095239D01*
X59309523Y1000000D01*
X59404761Y904762D01*
X60261904Y1095239D02*
X60261904Y-523809D01*
X60357142Y-714285D01*
X60452380Y-809523D01*
X60642857Y-904761D01*
X61023809Y-904761D01*
X61214285Y-809523D01*
X61309523Y-714285D01*
X61404761Y-523809D01*
X61404761Y1095239D01*
X62071428Y1095239D02*
X63214285Y1095239D01*
X62642857Y-904761D02*
X62642857Y1095239D01*
X53785714Y26095239D02*
X54452380Y24095239D01*
X55119047Y26095239D01*
X55785714Y24857143D02*
X57309523Y24857143D01*
X59404761Y24285715D02*
X59309523Y24190477D01*
X59023809Y24095239D01*
X58833333Y24095239D01*
X58547619Y24190477D01*
X58357142Y24380953D01*
X58261904Y24571429D01*
X58166666Y24952381D01*
X58166666Y25238096D01*
X58261904Y25619048D01*
X58357142Y25809524D01*
X58547619Y26000000D01*
X58833333Y26095239D01*
X59023809Y26095239D01*
X59309523Y26000000D01*
X59404761Y25904762D01*
X60261904Y26095239D02*
X60261904Y24476191D01*
X60357142Y24285715D01*
X60452380Y24190477D01*
X60642857Y24095239D01*
X61023809Y24095239D01*
X61214285Y24190477D01*
X61309523Y24285715D01*
X61404761Y24476191D01*
X61404761Y26095239D01*
X62071428Y26095239D02*
X63214285Y26095239D01*
X62642857Y24095239D02*
X62642857Y26095239D01*
X53785714Y51095239D02*
X54452380Y49095239D01*
X55119047Y51095239D01*
X55785714Y49857143D02*
X57309523Y49857143D01*
X59404761Y49285715D02*
X59309523Y49190477D01*
X59023809Y49095239D01*
X58833333Y49095239D01*
X58547619Y49190477D01*
X58357142Y49380953D01*
X58261904Y49571429D01*
X58166666Y49952381D01*
X58166666Y50238096D01*
X58261904Y50619048D01*
X58357142Y50809524D01*
X58547619Y51000000D01*
X58833333Y51095239D01*
X59023809Y51095239D01*
X59309523Y51000000D01*
X59404761Y50904762D01*
X60261904Y51095239D02*
X60261904Y49476191D01*
X60357142Y49285715D01*
X60452380Y49190477D01*
X60642857Y49095239D01*
X61023809Y49095239D01*
X61214285Y49190477D01*
X61309523Y49285715D01*
X61404761Y49476191D01*
X61404761Y51095239D01*
X62071428Y51095239D02*
X63214285Y51095239D01*
X62642857Y49095239D02*
X62642857Y51095239D01*
D11*
X52500000Y0D02*
X-52500000Y0D01*
X-52500000Y25000000D02*
X52500000Y25000000D01*
X52500000Y50000000D02*
X-52500000Y50000000D01*
X25000000Y77500000D02*
X25000000Y-27500000D01*
X0Y-27500000D02*
X0Y77500000D01*
X-25000000Y77500000D02*
X-25000000Y-27500000D01*
X-50000000Y75000000D02*
X50000000Y75000000D01*
X50000000Y75000000D02*
X50000000Y-25000000D01*
X50000000Y-25000000D02*
X-50000000Y-25000000D01*
X-50000000Y-25000000D02*
X-50000000Y75000000D01*
M02*
