G04 #@! TF.GenerationSoftware,KiCad,Pcbnew,(6.0.6)*
G04 #@! TF.CreationDate,2022-08-12T14:57:56+09:00*
G04 #@! TF.ProjectId,tutorial1-PNLZ,7475746f-7269-4616-9c31-2d504e4c5a2e,1*
G04 #@! TF.SameCoordinates,PX7bfa480PY7bfa480*
G04 #@! TF.FileFunction,Soldermask,Bot*
G04 #@! TF.FilePolarity,Negative*
%FSLAX46Y46*%
G04 Gerber Fmt 4.6, Leading zero omitted, Abs format (unit mm)*
G04 Created by KiCad (PCBNEW (6.0.6)) date 2022-08-12 14:57:56*
%MOMM*%
%LPD*%
G01*
G04 APERTURE LIST*
%ADD10C,3.200000*%
%ADD11O,1.700000X1.700000*%
%ADD12R,1.700000X1.700000*%
%ADD13C,0.605000*%
G04 APERTURE END LIST*
D10*
X30000000Y-5000000D03*
D11*
X40255000Y-22460000D03*
X37715000Y-22460000D03*
D12*
X35175000Y-22460000D03*
D10*
X5000000Y-5000000D03*
D11*
X15255000Y-22460000D03*
X12715000Y-22460000D03*
D12*
X10175000Y-22460000D03*
D10*
X-20000000Y-5000000D03*
D11*
X-9745000Y-22460000D03*
X-12285000Y-22460000D03*
D12*
X-14825000Y-22460000D03*
D10*
X-45000000Y-5000000D03*
D11*
X-34745000Y-22460000D03*
X-37285000Y-22460000D03*
D12*
X-39825000Y-22460000D03*
D10*
X30000000Y20000000D03*
D11*
X40255000Y2540000D03*
X37715000Y2540000D03*
D12*
X35175000Y2540000D03*
D10*
X5000000Y20000000D03*
D11*
X15255000Y2540000D03*
X12715000Y2540000D03*
D12*
X10175000Y2540000D03*
D10*
X-20000000Y20000000D03*
D11*
X-9745000Y2540000D03*
X-12285000Y2540000D03*
D12*
X-14825000Y2540000D03*
D10*
X-45000000Y20000000D03*
D11*
X-34745000Y2540000D03*
X-37285000Y2540000D03*
D12*
X-39825000Y2540000D03*
D10*
X30000000Y45000000D03*
D11*
X40255000Y27540000D03*
X37715000Y27540000D03*
D12*
X35175000Y27540000D03*
D10*
X5000000Y45000000D03*
D11*
X15255000Y27540000D03*
X12715000Y27540000D03*
D12*
X10175000Y27540000D03*
D10*
X-20000000Y45000000D03*
D11*
X-9745000Y27540000D03*
X-12285000Y27540000D03*
D12*
X-14825000Y27540000D03*
D10*
X-45000000Y45000000D03*
D11*
X-34745000Y27540000D03*
X-37285000Y27540000D03*
D12*
X-39825000Y27540000D03*
D10*
X30000000Y70000000D03*
D11*
X40255000Y52540000D03*
X37715000Y52540000D03*
D12*
X35175000Y52540000D03*
D10*
X5000000Y70000000D03*
D11*
X15255000Y52540000D03*
X12715000Y52540000D03*
D12*
X10175000Y52540000D03*
D10*
X-20000000Y70000000D03*
D11*
X-9745000Y52540000D03*
X-12285000Y52540000D03*
D12*
X-14825000Y52540000D03*
D10*
X-45000000Y70000000D03*
D11*
X-34745000Y52540000D03*
X-37285000Y52540000D03*
D12*
X-39825000Y52540000D03*
D13*
X46590000Y-4680000D03*
X28175000Y-21190000D03*
X28175000Y-14205000D03*
X37065000Y-4680000D03*
X46590000Y-11030000D03*
X46590000Y-21190000D03*
X21590000Y-4680000D03*
X3175000Y-21190000D03*
X3175000Y-14205000D03*
X12065000Y-4680000D03*
X21590000Y-11030000D03*
X21590000Y-21190000D03*
X-3410000Y-4680000D03*
X-21825000Y-21190000D03*
X-21825000Y-14205000D03*
X-12935000Y-4680000D03*
X-3410000Y-11030000D03*
X-3410000Y-21190000D03*
X-28410000Y-4680000D03*
X-46825000Y-21190000D03*
X-46825000Y-14205000D03*
X-37935000Y-4680000D03*
X-28410000Y-11030000D03*
X-28410000Y-21190000D03*
X46590000Y20320000D03*
X28175000Y3810000D03*
X28175000Y10795000D03*
X37065000Y20320000D03*
X46590000Y13970000D03*
X46590000Y3810000D03*
X21590000Y20320000D03*
X3175000Y3810000D03*
X3175000Y10795000D03*
X12065000Y20320000D03*
X21590000Y13970000D03*
X21590000Y3810000D03*
X-3410000Y20320000D03*
X-21825000Y3810000D03*
X-21825000Y10795000D03*
X-12935000Y20320000D03*
X-3410000Y13970000D03*
X-3410000Y3810000D03*
X-28410000Y20320000D03*
X-46825000Y3810000D03*
X-46825000Y10795000D03*
X-37935000Y20320000D03*
X-28410000Y13970000D03*
X-28410000Y3810000D03*
X46590000Y45320000D03*
X28175000Y28810000D03*
X28175000Y35795000D03*
X37065000Y45320000D03*
X46590000Y38970000D03*
X46590000Y28810000D03*
X21590000Y45320000D03*
X3175000Y28810000D03*
X3175000Y35795000D03*
X12065000Y45320000D03*
X21590000Y38970000D03*
X21590000Y28810000D03*
X-3410000Y45320000D03*
X-21825000Y28810000D03*
X-21825000Y35795000D03*
X-12935000Y45320000D03*
X-3410000Y38970000D03*
X-3410000Y28810000D03*
X-28410000Y45320000D03*
X-46825000Y28810000D03*
X-46825000Y35795000D03*
X-37935000Y45320000D03*
X-28410000Y38970000D03*
X-28410000Y28810000D03*
X46590000Y70320000D03*
X28175000Y53810000D03*
X28175000Y60795000D03*
X37065000Y70320000D03*
X46590000Y63970000D03*
X46590000Y53810000D03*
X21590000Y70320000D03*
X3175000Y53810000D03*
X3175000Y60795000D03*
X12065000Y70320000D03*
X21590000Y63970000D03*
X21590000Y53810000D03*
X-3410000Y70320000D03*
X-21825000Y53810000D03*
X-21825000Y60795000D03*
X-12935000Y70320000D03*
X-3410000Y63970000D03*
X-3410000Y53810000D03*
X-46825000Y60795000D03*
X-28410000Y70320000D03*
X-28410000Y53810000D03*
X-28410000Y63970000D03*
X-46825000Y53810000D03*
X-37935000Y70320000D03*
M02*
